<svg width="222" height="65" viewBox="0 0 222 65" fill="none" xmlns="http://www.w3.org/2000/svg">
<path d="M6.25455 1.52684H23.4545L29.3182 63.2905V64.0723H18.3727L17.0436 49.2178H12.6655L11.3364 64.0723H0.390909V63.2905L6.25455 1.52684ZM12.7436 39.0541H16.9655L15.2455 17.5541H14.4636L12.7436 39.0541ZM31.2941 1.52684H42.865C52.7159 1.52684 60.2214 8.40684 60.2214 20.525C60.2214 28.3432 57.8759 32.7214 53.5759 36.9432L59.4396 63.2905V64.0723H48.1032L43.6468 40.305H42.4741L43.0214 64.0723H31.2941V1.52684ZM43.0214 10.9087V32.0178H43.4123C46.1487 32.0178 48.4941 29.9068 48.4941 25.7632V17.1632C48.4941 13.0196 46.1487 10.9087 43.4123 10.9087H43.0214ZM61.9832 30.4541C61.9832 8.95412 67.925 0.745022 78.0887 0.745022C87.4705 0.745022 92.4741 8.1723 92.4741 19.8996C92.4741 21.3068 92.5523 22.9487 92.865 24.1996V24.9814H81.1378C80.9032 24.1996 80.7469 23.0268 80.7469 21.4632V13.7232C80.7469 11.5341 79.8087 10.1268 77.9323 10.1268C76.0559 10.1268 74.8832 11.5341 74.8832 14.1141V51.0941C74.8832 53.6741 76.0559 55.0814 77.9323 55.0814C79.8087 55.0814 80.7469 53.6741 80.7469 51.485V43.745C80.7469 42.1814 80.9032 41.0087 81.1378 40.2268H92.865V41.0087C92.4741 42.4159 92.4741 43.9014 92.4741 45.6996C92.4741 57.4268 87.4705 64.8541 78.0887 64.8541C67.925 64.8541 61.9832 56.645 61.9832 35.145V30.4541ZM95.0382 1.52684H106.375V27.3268H111.456V1.52684H122.793V64.0723H111.456V37.4905H106.375V64.0723H95.0382V1.52684ZM125.944 1.52684H137.672V64.0723H125.944V1.52684ZM145.892 64.0723L139.637 2.30866V1.52684H151.364L153.71 34.7541H154.492L156.837 1.52684H168.564V2.30866L162.31 64.0723H145.892ZM170.54 1.52684H191.649V11.6905H182.267V27.3268H190.477V37.4905H182.267V53.9087H191.649V64.0723H170.54V1.52684ZM192.301 42.5723H203.012C203.403 43.3541 203.481 44.7614 203.481 46.0905V51.8759C203.481 54.2996 204.576 55.8632 206.374 55.8632C208.25 55.8632 209.345 54.2996 209.345 51.5632C209.345 46.5596 206.061 41.9468 202.621 37.4123L200.354 34.4414C195.037 27.4832 192.848 22.8705 192.848 15.9905C192.848 6.99957 198.243 0.745022 207.077 0.745022C216.068 0.745022 220.994 6.99957 220.994 16.9287C220.994 18.805 221.072 20.2123 221.463 21.4632V22.245H210.908C210.596 21.385 210.439 20.2123 210.439 18.7268V13.4887C210.439 10.9868 209.266 9.73593 207.625 9.73593C205.905 9.73593 204.576 10.9868 204.576 14.1141C204.576 18.7268 206.999 22.0105 210.439 26.3887L212.785 29.3596C218.179 36.1614 221.072 41.5559 221.072 49.2178C221.072 58.7559 215.677 64.8541 207.156 64.8541C197.617 64.8541 192.77 58.6778 192.77 47.7323C192.77 45.8559 192.692 44.5268 192.301 43.3541V42.5723Z" fill="white"/>
</svg>
