<svg width="212" height="65" viewBox="0 0 212 65" fill="none" xmlns="http://www.w3.org/2000/svg">
<path d="M6.25455 1.45457H23.4545L29.3182 63.2182V64H18.3727L17.0436 49.1455H12.6655L11.3364 64H0.390909V63.2182L6.25455 1.45457ZM12.7436 38.9818H16.9655L15.2455 17.4818H14.4636L12.7436 38.9818ZM31.2941 1.45457H42.865C52.7159 1.45457 60.2214 8.33458 60.2214 20.4528C60.2214 28.2709 57.8759 32.6491 53.5759 36.8709L59.4396 63.2182V64H48.1032L43.6468 40.2328H42.4741L43.0214 64H31.2941V1.45457ZM43.0214 10.8364V31.9455H43.4123C46.1487 31.9455 48.4941 29.8346 48.4941 25.6909V17.0909C48.4941 12.9473 46.1487 10.8364 43.4123 10.8364H43.0214ZM59.9184 1.45457H87.2821V11.6182H79.4639V64H67.7366V11.6182H59.9184V1.45457ZM89.4953 1.45457H101.223V64H89.4953V1.45457ZM103.891 30.3818C103.891 8.88185 109.833 0.672757 119.997 0.672757C129.379 0.672757 134.382 8.10003 134.382 19.8273C134.382 21.2346 134.461 22.8764 134.773 24.1273V24.9091H123.046C122.811 24.1273 122.655 22.9546 122.655 21.3909V13.6509C122.655 11.4618 121.717 10.0546 119.841 10.0546C117.964 10.0546 116.791 11.4618 116.791 14.0419V51.0218C116.791 53.6018 117.964 55.0091 119.841 55.0091C121.717 55.0091 122.655 53.6018 122.655 51.4128V43.6728C122.655 42.1091 122.811 40.9364 123.046 40.1546H134.773V40.9364C134.382 42.3437 134.382 43.8291 134.382 45.6273C134.382 57.3546 129.379 64.7818 119.997 64.7818C109.833 64.7818 103.891 56.5728 103.891 35.0728V30.3818ZM136.946 1.45457H148.674V53.8364H158.446V64H136.946V1.45457ZM160.63 1.45457H181.739V11.6182H172.357V27.2546H180.566V37.4182H172.357V53.8364H181.739V64H160.63V1.45457ZM182.391 42.5H193.102C193.493 43.2818 193.571 44.6891 193.571 46.0182V51.8037C193.571 54.2273 194.665 55.7909 196.464 55.7909C198.34 55.7909 199.434 54.2273 199.434 51.4909C199.434 46.4873 196.151 41.8746 192.711 37.34L190.444 34.3691C185.127 27.4109 182.938 22.7982 182.938 15.9182C182.938 6.9273 188.333 0.672757 197.167 0.672757C206.158 0.672757 211.084 6.9273 211.084 16.8564C211.084 18.7328 211.162 20.14 211.553 21.3909V22.1728H200.998C200.685 21.3128 200.529 20.14 200.529 18.6546V13.4164C200.529 10.9146 199.356 9.66367 197.714 9.66367C195.994 9.66367 194.665 10.9146 194.665 14.0419C194.665 18.6546 197.089 21.9382 200.529 26.3164L202.874 29.2873C208.269 36.0891 211.162 41.4837 211.162 49.1455C211.162 58.6837 205.767 64.7818 197.245 64.7818C187.707 64.7818 182.86 58.6055 182.86 47.66C182.86 45.7837 182.782 44.4546 182.391 43.2818V42.5Z" fill="white"/>
</svg>
