<svg width="279" height="65" viewBox="0 0 279 65" fill="none" xmlns="http://www.w3.org/2000/svg">
<path d="M0.563636 1.45454H11.5091C22.8455 1.45454 29.4909 8.88182 29.4909 27.2545V38.2C29.4909 56.5727 22.8455 64 11.5091 64H0.563636V1.45454ZM11.9 10.8364V54.2273H13.0727C16.1218 54.2273 17.7636 52.0382 17.7636 48.6764V16.3873C17.7636 13.0255 16.1218 10.8364 13.0727 10.8364H11.9ZM32.1418 1.45454H53.2509V11.6182H43.869V27.2545H52.0781V37.4182H43.869V53.8364H53.2509V64H32.1418V1.45454ZM60.8232 64L54.5686 2.23636V1.45454H66.2959L68.6414 34.6818H69.4232L71.7686 1.45454H83.4959V2.23636L77.2414 64H60.8232ZM85.4718 1.45454H106.581V11.6182H97.1991V27.2545H105.408V37.4182H97.1991V53.8364H106.581V64H85.4718V1.45454ZM109.071 1.45454H120.799V53.8364H130.571V64H109.071V1.45454ZM129.934 35.0727V30.3818C129.934 8.88182 135.798 0.672726 145.962 0.672726C156.125 0.672726 161.989 8.88182 161.989 30.3818V35.0727C161.989 56.5727 156.125 64.7818 145.962 64.7818C135.798 64.7818 129.934 56.5727 129.934 35.0727ZM142.834 14.0418V51.0218C142.834 53.6018 144.085 55.0091 145.962 55.0091C147.838 55.0091 149.089 53.6018 149.089 51.0218V14.0418C149.089 11.4618 147.838 10.0545 145.962 10.0545C144.085 10.0545 142.834 11.4618 142.834 14.0418ZM164.669 1.45454H176.24C185.778 1.45454 193.987 7.70909 193.987 21V22.5636C193.987 35.8545 185.778 42.1091 176.396 42.1091V64H164.669V1.45454ZM176.396 10.8364V32.7273H177.178C180.305 32.7273 182.26 30.9291 182.26 26.4727V17.0909C182.26 12.6345 180.305 10.8364 177.178 10.8364H176.396ZM196.163 1.45454H217.272V11.6182H207.891V27.2545H216.1V37.4182H207.891V53.8364H217.272V64H196.163V1.45454ZM219.763 1.45454H231.334C241.185 1.45454 248.69 8.33455 248.69 20.4527C248.69 28.2709 246.345 32.6491 242.045 36.8709L247.908 63.2182V64H236.572L232.116 40.2327H230.943L231.49 64H219.763V1.45454ZM231.49 10.8364V31.9455H231.881C234.617 31.9455 236.963 29.8345 236.963 25.6909V17.0909C236.963 12.9473 234.617 10.8364 231.881 10.8364H231.49ZM249.67 42.5H260.381C260.772 43.2818 260.85 44.6891 260.85 46.0182V51.8036C260.85 54.2273 261.945 55.7909 263.743 55.7909C265.619 55.7909 266.714 54.2273 266.714 51.4909C266.714 46.4873 263.43 41.8745 259.99 37.34L257.723 34.3691C252.407 27.4109 250.217 22.7982 250.217 15.9182C250.217 6.92727 255.612 0.672726 264.447 0.672726C273.437 0.672726 278.363 6.92727 278.363 16.8564C278.363 18.7327 278.441 20.14 278.832 21.3909V22.1727H268.277C267.965 21.3127 267.808 20.14 267.808 18.6545V13.4164C267.808 10.9145 266.636 9.66364 264.994 9.66364C263.274 9.66364 261.945 10.9145 261.945 14.0418C261.945 18.6545 264.368 21.9382 267.808 26.3164L270.154 29.2873C275.548 36.0891 278.441 41.4836 278.441 49.1455C278.441 58.6836 273.047 64.7818 264.525 64.7818C254.987 64.7818 250.139 58.6055 250.139 47.66C250.139 45.7836 250.061 44.4545 249.67 43.2818V42.5Z" fill="white"/>
</svg>
