<svg width="417" height="65" viewBox="0 0 417 65" fill="none" xmlns="http://www.w3.org/2000/svg">
<path d="M0.161293 1.45454H21.2704V11.6182H11.8886V27.2545H20.0977V37.4182H11.8886V53.8364H21.2704V64H0.161293V1.45454ZM28.8427 64L22.5882 2.23636V1.45454H34.3154L36.6609 34.6818H37.4427L39.7882 1.45454H51.5154V2.23636L45.2609 64H28.8427ZM53.4914 1.45454H74.6005V11.6182H65.2186V27.2545H73.4277V37.4182H65.2186V53.8364H74.6005V64H53.4914V1.45454ZM77.091 1.45454H87.2546L93.9001 32.7273H94.6819L93.5092 1.45454H104.455V64H94.291L87.6455 32.7273H86.8637L88.0364 64H77.091V1.45454ZM106.639 1.45454H134.003V11.6182H126.185V64H114.457V11.6182H106.639V1.45454ZM134.377 42.5H145.088C145.479 43.2818 145.557 44.6891 145.557 46.0182V51.8036C145.557 54.2273 146.652 55.7909 148.45 55.7909C150.326 55.7909 151.421 54.2273 151.421 51.4909C151.421 46.4873 148.137 41.8745 144.697 37.34L142.43 34.3691C137.114 27.4109 134.924 22.7982 134.924 15.9182C134.924 6.92727 140.319 0.672726 149.154 0.672726C158.144 0.672726 163.07 6.92727 163.07 16.8564C163.07 18.7327 163.148 20.14 163.539 21.3909V22.1727H152.984C152.672 21.3127 152.515 20.14 152.515 18.6545V13.4164C152.515 10.9145 151.343 9.66364 149.701 9.66364C147.981 9.66364 146.652 10.9145 146.652 14.0418C146.652 18.6545 149.075 21.9382 152.515 26.3164L154.861 29.2873C160.255 36.0891 163.148 41.4836 163.148 49.1455C163.148 58.6836 157.754 64.7818 149.232 64.7818C139.694 64.7818 134.846 58.6055 134.846 47.66C134.846 45.7836 134.768 44.4545 134.377 43.2818V42.5ZM176.528 1.45454H188.099C197.95 1.45454 205.456 8.33455 205.456 20.4527C205.456 28.2709 203.11 32.6491 198.81 36.8709L204.674 63.2182V64H193.338L188.881 40.2327H187.708L188.256 64H176.528V1.45454ZM188.256 10.8364V31.9455H188.647C191.383 31.9455 193.728 29.8345 193.728 25.6909V17.0909C193.728 12.9473 191.383 10.8364 188.647 10.8364H188.256ZM224.887 1.45454H236.614V48.3636C236.614 58.5273 231.141 64.7818 222.15 64.7818C213.159 64.7818 207.687 58.5273 207.687 48.3636V1.45454H219.414V51.4127C219.414 53.9927 220.274 55.4 222.15 55.4C224.027 55.4 224.887 53.9927 224.887 51.4127V1.45454ZM239.769 1.45454H251.496V53.8364H261.269V64H239.769V1.45454ZM263.452 1.45454H284.561V11.6182H275.18V27.2545H283.389V37.4182H275.18V53.8364H284.561V64H263.452V1.45454ZM287.052 1.45454H298.232C307.77 1.45454 316.37 6.77091 316.37 17.4818C316.37 26.0818 311.523 29.9909 306.988 31.9455V32.7273C311.836 34.4473 316.761 38.5127 316.761 47.3473C316.761 58.4491 308.943 64 299.405 64H287.052V1.45454ZM298.779 10.8364V28.0364H299.561C302.297 28.0364 304.252 26.0818 304.252 21.7818V17.0909C304.252 12.7909 302.297 10.8364 299.561 10.8364H298.779ZM298.779 37.4182V54.6182H299.561C302.297 54.6182 304.643 52.6636 304.643 47.9727V44.0636C304.643 39.3727 302.297 37.4182 299.561 37.4182H298.779ZM318.497 35.0727V30.3818C318.497 8.88182 324.361 0.672726 334.524 0.672726C344.688 0.672726 350.551 8.88182 350.551 30.3818V35.0727C350.551 56.5727 344.688 64.7818 334.524 64.7818C324.361 64.7818 318.497 56.5727 318.497 35.0727ZM331.397 14.0418V51.0218C331.397 53.6018 332.648 55.0091 334.524 55.0091C336.401 55.0091 337.651 53.6018 337.651 51.0218V14.0418C337.651 11.4618 336.401 10.0545 334.524 10.0545C332.648 10.0545 331.397 11.4618 331.397 14.0418ZM352.763 35.0727V30.3818C352.763 8.88182 358.626 0.672726 368.79 0.672726C378.953 0.672726 384.817 8.88182 384.817 30.3818V35.0727C384.817 56.5727 378.953 64.7818 368.79 64.7818C358.626 64.7818 352.763 56.5727 352.763 35.0727ZM365.663 14.0418V51.0218C365.663 53.6018 366.913 55.0091 368.79 55.0091C370.666 55.0091 371.917 53.6018 371.917 51.0218V14.0418C371.917 11.4618 370.666 10.0545 368.79 10.0545C366.913 10.0545 365.663 11.4618 365.663 14.0418ZM387.497 64V1.45454H399.225L398.677 22.3291H399.459L404.697 1.45454H415.643V2.23636L408.606 31.9455V32.7273L416.034 63.2182V64H404.697L399.459 42.7345H398.677L399.225 64H387.497Z" fill="white"/>
</svg>
