<svg width="142" height="142" viewBox="0 0 142 142" fill="none" xmlns="http://www.w3.org/2000/svg">
<circle cx="123.152" cy="22.2852" r="13.8776" stroke="white" stroke-width="1.24488"/>
<path d="M41.0402 46.8641C41.1132 46.9781 41.2066 46.9985 41.2796 47.1124C41.1657 47.1855 41.2387 47.2994 41.3322 47.3198C41.3322 47.3198 41.3118 47.4133 41.2183 47.3928L42.0829 48.3655C41.2562 49.4579 40.409 50.6438 39.6554 51.8501L33.4835 49.6182L31.7513 53.0591L35.7558 55.7961L35.9427 55.837L35.9222 55.9305L37.1081 56.7776C36.6758 57.8584 36.223 59.0326 35.8841 60.1338C36.515 59.4883 37.2395 58.8632 38.0252 57.9577C38.8577 58.6296 37.5199 58.9246 37.1168 59.424C36.848 59.757 36.5384 60.2769 36.1762 60.5895C35.814 60.902 35.3583 61.194 35.11 61.4335C34.9961 61.5066 34.9756 61.6001 34.8412 61.7665C35.443 61.7023 36.1907 61.8659 36.7924 61.8017C37.4029 61.2496 38.0134 60.6976 38.7524 61.349C38.5771 61.7024 38.028 61.974 37.9462 62.3479C37.9257 62.4414 38.1769 63.084 38.2908 63.011C37.8468 63.6974 37.2948 63.0869 36.582 64.1063C35.7379 63.0401 35.0135 63.6651 34.1811 62.9933C34.1694 62.599 34.5521 62.1929 34.2395 61.8307C34.6426 61.3313 35.0048 61.0187 35.294 60.5923L29.1484 60.0313L28.3304 63.77L28.7773 63.9657C28.8912 63.8927 29.0051 63.8197 29.0986 63.8401C29.1716 63.9541 29.2446 64.068 29.2242 64.1614L34.5752 66.1158C34.3619 67.5383 34.2626 68.8877 34.2362 70.3511L27.8159 71.493L27.9531 75.3428L28.14 75.3837L28.067 75.2698C28.1809 75.1967 28.2013 75.1033 28.3153 75.0303C28.5752 75.1851 28.4408 75.3515 28.6073 75.4859L34.4726 75.9857C34.6536 77.3965 34.9486 78.7343 35.2231 80.1655L29.2233 82.9665L30.3769 86.6469L36.8177 85.4116C37.32 86.6969 37.9158 88.0026 38.6256 89.2352L33.5955 93.4237L34.3987 94.6768C34.6996 94.6446 34.8252 94.9659 34.7638 95.2464L35.713 96.7274L41.6193 93.906C42.37 94.9517 43.2345 95.9244 44.0991 96.8971C44.1604 96.6167 44.5957 96.4181 44.8147 96.7599C44.6599 97.0199 44.4321 97.1659 44.2772 97.4258C44.1838 97.4054 44.1838 97.4053 44.1107 97.2914L40.433 102.461L43.2955 105.047L44.496 104.036C44.5165 103.942 44.423 103.922 44.4434 103.829C44.5778 103.662 44.7648 103.703 44.8582 103.723L48.346 100.765C49.4384 101.591 50.6242 102.438 51.8305 103.192L49.5986 109.364L53.0395 111.096L54.909 108.371C54.649 108.216 54.4095 107.968 54.243 107.834C53.9539 108.26 53.5712 108.666 53.1885 109.072C52.4291 108.514 53.1535 107.889 52.4876 107.352C53.0776 106.893 54.8069 105.704 54.0153 104.845C54.5849 104.48 55.2187 104.717 55.9256 105.068C55.5751 105.774 55.2245 106.481 54.801 107.074C54.9675 107.209 55.1339 107.343 55.3209 107.384C55.2595 107.664 55.1982 107.945 55.0434 108.205L56.758 105.739C58.0053 106.306 59.3664 106.8 60.748 107.2L60.6077 108.736C60.7216 108.663 60.8356 108.59 60.929 108.611C61.1481 108.953 61.1802 109.253 61.0049 109.607C61.078 109.721 61.078 109.721 61.0575 109.814C60.964 109.794 60.9436 109.887 60.8501 109.867C60.7362 109.94 60.6018 110.106 60.4879 110.179L60.1781 113.833L63.9169 114.652L66.1488 108.48C67.5713 108.693 68.9207 108.792 70.3841 108.819L71.5259 115.239L74.8879 115.093C74.555 114.824 74.6163 114.544 74.0964 114.234C74.6134 113.662 74.6572 114.357 75.3845 114.614C75.3436 114.801 75.3232 114.894 75.1684 115.154L75.3757 115.102L75.6563 112.029C75.3875 112.362 75.1071 112.301 74.8793 112.447C74.4733 112.064 75.2386 111.252 75.7176 111.749L75.9456 108.468C77.3564 108.287 78.6738 108.086 80.1255 107.718L82.9264 113.718L86.6069 112.564L85.3716 106.123C86.6568 105.621 87.9625 105.025 89.1952 104.315L93.3836 109.345L93.7254 109.126C93.5793 108.899 93.8276 108.659 94.035 108.606L94.1811 108.834L96.6873 107.228L93.8659 101.322C95.0256 100.498 96.1122 99.5604 97.1054 98.6024L100.237 100.855C100.237 100.855 100.33 100.875 100.444 100.802C100.423 100.895 100.517 100.916 100.496 101.009L100.923 101.299C101.057 101.132 101.338 101.193 101.431 101.214C101.639 101.161 101.98 100.942 102.313 101.211C102.769 100.919 103.257 100.928 103.704 101.123L105.12 99.5725L104.662 98.9824C104.641 99.0759 104.527 99.1489 104.507 99.2424C104.101 98.8597 103.78 98.9853 103.552 99.1314C103.561 98.6436 103.882 98.518 104.276 98.5063L100.932 94.5424C101.759 93.45 102.606 92.2642 103.359 91.0579L108.077 92.7756L108.48 92.2761C108.626 92.5039 108.772 92.7318 108.711 93.0122L109.531 93.2898L111.264 89.8489L105.813 86.1099C106.38 84.8627 106.874 83.5015 107.274 82.1199L107.762 82.1288C107.73 81.8279 107.718 81.4336 107.873 81.1736C108.299 81.4628 108.124 81.8162 108.156 82.1171L113.72 82.6489L114.232 80.3122C114.232 80.3122 114.138 80.2917 114.159 80.1983C114.273 80.1253 114.2 80.0113 114.106 79.9909C114.22 79.9179 114.24 79.8244 114.354 79.7514L114.448 79.7718L114.652 78.8371L108.481 76.6052C108.694 75.1827 108.793 73.8333 108.82 72.3699L115.333 71.2485L115.281 71.0412C115.187 71.0207 115.208 70.9272 115.114 70.9068C115.135 70.8133 115.228 70.8338 115.249 70.7403L115.237 70.346C114.916 70.4716 114.799 69.6625 115.193 69.6508L115.123 67.2848L114.635 67.276C114.46 67.6295 114.191 67.9624 113.765 67.6732C113.899 67.5067 114.013 67.4337 114.054 67.2468L108.563 66.8288C108.382 65.418 108.087 64.0802 107.812 62.649L113.812 59.848L112.658 56.1676L105.75 57.3006C105.248 56.0154 104.652 54.7097 103.942 53.477L108.972 49.2886L106.928 46.0988C105.646 47.4833 104.965 48.8036 103.35 49.9193C102.339 48.7187 104.112 48.2251 104.877 47.4132C105.126 47.1737 105.28 46.9137 105.435 46.6538L100.949 48.8063C100.125 47.6467 99.1669 46.6535 98.2294 45.5669L101.948 40.21L99.0855 37.6249L94.035 41.9068C92.9427 41.0801 91.7568 40.2329 90.5505 39.4793L92.7823 33.3074L89.3415 31.5752L85.6025 37.0254C84.3553 36.4587 82.9941 35.965 81.6126 35.5648L82.162 29.0249L78.4232 28.2068L76.3666 34.0252C77.684 33.8237 77.9497 35.7428 76.5593 35.8304C76.0598 35.4273 75.8817 34.8986 76.0979 34.3582C75.8175 34.2969 75.4231 34.3085 75.1427 34.2472C75.0814 34.5276 74.8126 34.8605 74.4183 34.8722C74.1788 34.6239 74.1467 34.3231 74.3015 34.0631C73.5333 33.993 72.8585 33.9433 72.0699 33.9666L71.5092 30.7098L70.9485 27.4529L67.68 27.6192C67.6391 27.8062 67.5047 27.9726 67.3178 27.9317C67.1309 27.8908 67.1513 27.7974 67.1922 27.6104L67.0053 27.5695L66.4559 34.1095C65.045 34.2905 63.7072 34.5855 62.2759 34.86L61.2303 32.4764C61.023 32.529 60.8156 32.5816 60.7016 32.6546C60.5556 32.4268 60.8039 32.1873 61.0317 32.0413L59.5685 28.8807L55.888 30.0343L57.1233 36.475C55.8381 36.9774 54.5324 37.5732 53.2997 38.2829L49.1113 33.2529L47.8582 34.0561C47.7969 34.3365 47.642 34.5965 47.3411 34.6286C47.2477 34.6082 47.1747 34.4942 47.0812 34.4738L45.8281 35.277L46.1523 36.0335C46.2457 36.0539 46.3392 36.0744 46.5057 36.2088C46.4852 36.3023 46.3713 36.3753 46.3713 36.3753L48.6495 41.1832C47.4898 42.0069 46.4032 42.9445 45.41 43.9025L43.9642 42.9005C43.8503 42.9735 43.6429 43.0261 43.4034 42.7778C43.4238 42.6844 43.5377 42.6114 43.5377 42.6114L40.2196 40.3183C40.1057 40.3913 40.1057 40.3913 40.0123 40.3709C40.0327 40.2774 39.9597 40.1634 39.8867 40.0495L37.322 42.8185L40.3537 46.4201C40.9262 46.9372 40.9467 46.8437 41.0402 46.8641ZM42.0863 103.411C41.8672 103.069 42.0308 102.321 42.5391 102.237C43.132 102.66 42.6675 103.44 42.0863 103.411ZM54.2021 108.021C54.2752 108.134 54.3686 108.155 54.4416 108.269C54.3277 108.342 54.4007 108.456 54.4942 108.476C54.3189 108.83 53.6734 108.199 54.2021 108.021ZM51.3163 107.781C50.8898 107.492 51.1585 107.159 51.4273 106.826C51.8537 107.115 51.8245 107.696 51.3163 107.781ZM64.1946 110.697C63.9025 110.241 64.6298 110.498 64.7846 110.238C65.0767 110.694 64.3289 110.53 64.1946 110.697ZM61.9805 109.624C61.8666 109.697 61.7732 109.677 61.6592 109.75C61.5862 109.636 61.4927 109.616 61.4197 109.502C61.6885 109.169 61.4081 109.107 61.8228 109.002C61.9689 109.23 61.8345 109.397 61.9805 109.624ZM62.1412 107.995C62.0273 108.068 62.0069 108.161 61.893 108.234C61.82 108.12 61.7265 108.1 61.6535 107.986C61.7674 107.913 61.7878 107.819 61.9018 107.746C61.9748 107.86 62.0478 107.974 62.1412 107.995ZM73.9183 113.706C73.7021 114.246 73.4304 113.697 73.1705 113.542C73.3253 113.282 73.5853 113.437 73.9183 113.706ZM106.884 48.5378C107.05 48.6722 106.688 48.9847 106.595 48.9643C106.241 48.789 106.665 48.1961 106.884 48.5378ZM96.9414 42.0529C97.0962 41.793 97.2306 41.6265 97.3649 41.46L97.2715 41.4395C97.3854 41.3665 97.4789 41.387 97.5928 41.3139L97.5723 41.4074C97.7797 41.3548 98.0601 41.4162 98.3931 41.6849C97.9258 41.5827 97.5255 42.9643 96.9414 42.0529ZM77.7132 33.2425C78.3529 32.1092 79.2438 31.6185 79.9799 31.3878C80.678 32.2261 78.5982 34.1217 77.7132 33.2425ZM80.3946 34.4168C80.7363 34.1978 81.2241 34.2066 81.3088 34.7148C81.0196 35.1413 80.4267 34.7177 80.3946 34.4168ZM70.5132 30.7856C70.6797 30.92 70.3175 31.2325 70.224 31.2121C69.8706 31.0368 70.2941 30.4439 70.5132 30.7856ZM70.1655 32.3746C70.3729 32.3221 70.2794 32.3016 70.332 32.509C70.3758 33.2042 69.5638 32.4389 70.1655 32.3746ZM76.8074 38.7251C76.6935 38.7981 76.6731 38.8915 76.5592 38.9646C76.4862 38.8506 76.3927 38.8302 76.3197 38.7162C76.4336 38.6432 76.454 38.5498 76.568 38.4768C76.641 38.5907 76.7344 38.6111 76.8074 38.7251ZM76.4716 37.5742C75.9955 37.9598 75.8582 37.2441 76.127 36.9111C76.5943 37.0134 76.2321 37.3259 76.4716 37.5742ZM87.0017 36.4501C87.0338 36.751 86.765 37.0839 86.5167 37.3235C85.582 37.1189 86.4496 35.8396 87.0017 36.4501ZM81.0663 36.7186C80.9699 35.816 81.5424 36.333 82.1325 35.8745C82.8714 36.5259 81.8578 37.5774 81.0663 36.7186ZM75.759 35.4594C75.2624 35.9384 74.7425 35.6288 74.7513 35.141C75.02 34.808 75.6743 34.9512 75.759 35.4594ZM70.1596 33.7446C70.3991 33.9929 70.2238 34.3463 69.8616 34.6588C69.736 34.3375 69.6718 33.7358 70.1596 33.7446ZM71.3776 34.8925C71.4915 34.8195 71.512 34.7261 71.6259 34.653C71.6989 34.767 71.7924 34.7874 71.8654 34.9013C71.7515 34.9744 71.731 35.0678 71.6171 35.1408C71.5441 35.0269 71.4506 35.0064 71.3776 34.8925ZM72.8819 34.7319C73.0279 34.9598 72.8936 35.1263 73.0601 35.2606C72.543 35.8331 72.1867 34.7757 72.8819 34.7319ZM73.1652 35.6754C73.3317 35.8098 73.4047 35.9237 73.5916 35.9646C73.4368 36.2246 73.2703 36.0902 73.1359 36.2567C73.0629 36.1428 73.0834 36.0493 73.0103 35.9354C73.0308 35.8419 73.1447 35.7689 73.1652 35.6754ZM73.0629 36.1428C73.1067 36.838 72.1252 38.1903 71.3541 37.2381C71.9237 36.873 72.2918 35.1905 73.0629 36.1428ZM71.1877 37.1037C69.7564 37.3782 71.5235 38.2545 71.1877 37.1037ZM63.4823 35.6136C63.6487 35.748 63.2865 36.0605 63.1931 36.0401C62.8192 35.9583 63.2632 35.2719 63.4823 35.6136ZM58.7387 35.3593C59.0074 35.0263 59.2557 34.7869 59.5682 35.1491C59.3725 35.596 59.0512 35.7215 58.7387 35.3593ZM60.9001 36.224C61.014 36.151 61.1075 36.1714 61.2214 36.0984C61.2944 36.2123 61.274 36.3058 61.347 36.4197C61.2331 36.4927 61.1396 36.4723 61.0257 36.5453C60.9527 36.4314 61.0666 36.3584 60.9001 36.224ZM77.4121 39.543C77.4851 39.6569 77.5785 39.6773 77.6516 39.7913C77.5376 39.8643 77.5172 39.9577 77.4033 40.0308C77.3303 39.9168 77.2368 39.8964 77.1638 39.7825C77.2572 39.8029 77.3712 39.7299 77.4121 39.543ZM88.5875 42.184C88.4122 42.5374 88.2253 42.4965 87.9974 42.6425C87.6645 42.3738 88.161 41.8948 88.5875 42.184ZM94.663 43.5133C94.809 43.7411 94.6746 43.9076 94.8207 44.1354C94.5724 44.3749 94.3212 43.7324 94.663 43.5133ZM57.7776 36.6182C57.8915 36.5452 57.912 36.4517 58.0259 36.3787C58.0989 36.4926 58.1924 36.5131 58.2654 36.627C58.1515 36.7 58.131 36.7935 58.0171 36.8665C57.9441 36.7526 57.8711 36.6386 57.7776 36.6182ZM67.6941 38.2982C68.0271 38.5669 67.7584 38.8999 67.4575 38.932C67.1245 38.6633 67.3933 38.3303 67.6941 38.2982ZM46.0932 49.7327C45.991 50.2001 45.2637 49.943 45.5558 50.3987C44.8927 50.7433 45.7486 49.0696 46.0932 49.7327ZM44.5422 51.4502C44.3669 51.8036 44.139 51.9497 43.9317 52.0022C43.5052 51.713 44.1566 50.9741 44.5422 51.4502ZM41.5189 53.629C41.4868 53.3282 41.8402 53.5035 42.2959 53.2114C42.772 52.8259 42.6873 52.3176 43.3299 52.0664C43.7885 52.6565 42.8246 53.0332 42.4215 53.5327C41.8635 54.2921 41.3581 55.259 40.3942 55.6357C39.9035 54.7448 41.6561 54.3447 41.5189 53.629ZM39.9502 56.3221C39.7749 56.6755 39.6318 57.3298 39.1235 57.4145C38.6971 57.1253 39.4712 55.8255 39.9502 56.3221ZM39.9531 57.2042C40.2948 56.9852 40.7417 57.1809 41.0105 56.8479C41.3756 57.4175 41.4515 58.4136 40.5489 58.5099C39.7486 58.1389 40.4526 57.6073 39.9531 57.2042ZM31.9027 64.4537C32.5132 63.9016 32.9543 62.3331 33.8072 62.9115C33.5384 63.2444 32.5161 64.7837 31.9027 64.4537ZM39.0501 66.7031C39.3919 66.484 39.8388 66.6798 40.1075 66.3468C40.2535 66.5747 40.2126 66.7616 40.4521 67.0099C40.1104 67.2289 39.6635 67.0332 39.3948 67.3662C39.2487 67.1383 39.2896 66.9514 39.0501 66.7031ZM41.3547 66.9135C41.086 67.2465 40.8056 67.1852 40.4726 66.9164C40.7618 66.49 41.0422 66.5513 41.3547 66.9135ZM46.8108 72.4168C47.6696 71.6253 48.5722 71.5289 49.4222 71.2252C50.1728 72.2709 47.8302 73.1295 46.8108 72.4168ZM52.3431 72.6478C51.6274 72.785 50.2078 73.4539 50.0384 72.4374C50.7103 71.605 51.5836 72.0899 52.3431 72.6478ZM33.4826 71.5575C33.649 71.6918 33.2869 72.0044 33.1934 71.9839C32.7465 71.7882 33.2635 71.2157 33.4826 71.5575ZM43.8898 74.1284C43.4049 75.0017 42.6863 74.2568 42.1693 74.8293C41.3048 73.8566 43.1099 73.6639 43.8898 74.1284ZM35.4628 74.1455C35.5359 74.2595 35.5154 74.3529 35.5885 74.4668C35.4745 74.5399 35.381 74.5194 35.2671 74.5924C35.1941 74.4785 35.2146 74.385 35.1416 74.2711C35.2555 74.1981 35.4219 74.3325 35.4628 74.1455ZM30.2724 73.6954L30.6755 73.196C30.7485 73.3099 30.842 73.3304 30.915 73.4443L30.5119 73.9437C30.4388 73.8298 30.3454 73.8094 30.2724 73.6954ZM39.5141 75.3258C39.7829 74.9928 40.2823 75.3959 40.3145 75.6968C40.0866 75.8428 39.8793 75.8954 39.6514 76.0414C39.298 75.8661 39.7536 75.5741 39.5141 75.3258ZM31.3852 74.4286C31.7065 74.3031 31.6452 74.5835 31.8116 74.7178C31.5634 74.9573 31.5517 74.563 31.3852 74.4286ZM38.4186 79.8853C38.5851 80.0196 38.2229 80.3322 38.1294 80.3117C37.6825 80.116 38.1061 79.5231 38.4186 79.8853ZM32.5708 81.5441C33.0148 80.8577 33.5026 80.8665 34.0634 80.9892C33.5347 81.1674 33.1754 82.362 32.5708 81.5441ZM37.3144 81.7985C37.4809 81.9328 37.5539 82.0468 37.7408 82.0877C37.6181 82.6485 36.7653 82.0701 37.3144 81.7985ZM32.8539 85.6218C32.4684 85.1457 33.0701 85.0814 33.3914 84.9559C33.6835 85.4115 33.0818 85.4758 32.8539 85.6218ZM34.96 85.397C34.7847 85.7504 34.4926 85.2947 34.2443 85.5342C33.8179 85.245 34.5832 84.4331 34.998 84.3279C35.3309 84.5967 34.7409 85.0552 34.96 85.397ZM43.1004 89.8226C43.6174 89.2501 44.19 89.7671 44.3477 90.3893C43.7576 90.8478 43.1646 90.4243 43.1004 89.8226ZM49.4621 92.9775C49.576 92.9044 49.6695 92.9249 49.7834 92.8519C49.8564 92.9658 49.836 93.0592 49.909 93.1732C49.7951 93.2462 49.7016 93.2257 49.5877 93.2988C49.6082 93.2053 49.6286 93.1118 49.4621 92.9775ZM47.9783 93.0446C48.3317 93.2199 47.876 93.5119 48.1155 93.7602C47.8877 93.9062 47.7007 93.8654 47.5343 93.731C47.4087 93.4097 47.5635 93.1497 47.9783 93.0446ZM45.624 93.5089C45.9132 93.0825 46.36 93.2782 46.3717 93.6725C46.2373 93.839 45.9569 93.7777 45.624 93.5089ZM47.7241 94.654C47.7124 94.2597 47.8584 94.4875 48.1272 94.1545C48.761 94.3912 48.2031 95.1506 47.7241 94.654ZM53.7703 96.5646C53.8959 96.8859 54.042 97.1137 53.7732 97.4467C53.4402 97.1779 53.376 96.5762 53.7703 96.5646ZM55.7682 98.177C55.5404 98.3231 55.3534 98.2822 55.1869 98.1478C55.4236 97.5139 55.7565 97.7827 55.7682 98.177ZM46.6579 95.4981C47.1545 95.0191 47.5108 96.0765 46.8156 96.1203C46.763 95.9129 46.8039 95.726 46.6579 95.4981ZM49.1114 96.8185C49.2779 96.9529 48.9157 97.2654 48.8222 97.2449C48.4688 97.0697 48.8924 96.4767 49.1114 96.8185ZM47.5049 97.4464C47.6188 97.3734 47.7123 97.3938 47.8262 97.3208C47.8992 97.4347 47.8788 97.5282 47.9518 97.6421C47.8379 97.7151 47.7444 97.6947 47.6305 97.7677C47.537 97.7473 47.6714 97.5808 47.5049 97.4464ZM66.8735 101.586C66.9465 101.7 67.04 101.721 67.113 101.835C66.9991 101.908 66.9786 102.001 66.8647 102.074C66.7917 101.96 66.6982 101.94 66.6252 101.826C66.7391 101.753 66.853 101.68 66.8735 101.586ZM56.9979 99.7193C57.3192 99.5938 57.2578 99.8742 57.4243 100.009C57.103 100.134 57.1643 99.8537 56.9979 99.7193ZM68.848 102.41C69.0583 103.24 68.0009 103.596 67.811 102.673C68.1002 102.246 68.4011 102.214 68.848 102.41ZM59.3375 101.113C59.4923 100.853 59.6588 100.987 59.7931 100.821C59.8661 100.935 59.8457 101.028 59.9187 101.142C59.7844 101.308 59.5974 101.268 59.3375 101.113ZM66.4294 102.273C66.1403 102.699 65.7138 102.41 65.6817 102.109C65.8161 101.943 66.0965 102.004 66.4294 102.273ZM52.596 99.246C52.6515 100.335 51.1355 100.102 50.9457 99.1787C51.3488 98.6792 52.0147 99.2167 52.596 99.246ZM66.5054 103.269C66.1841 103.394 66.2454 103.114 66.0789 102.98C66.4207 102.76 66.3593 103.041 66.5054 103.269ZM47.426 98.7024C47.312 98.7754 47.2916 98.8689 47.1777 98.9419C47.1046 98.828 47.0112 98.8076 46.9382 98.6937C47.0521 98.6206 47.0725 98.5271 47.1864 98.4541C47.2595 98.568 47.3325 98.682 47.426 98.7024ZM44.5517 98.8571C44.5079 98.1619 45.4836 98.1795 45.4339 98.8542C45.1126 98.9798 44.8847 99.1258 44.5517 98.8571ZM45.1038 99.4676C45.2586 99.2076 45.4251 99.342 45.5594 99.1755C45.6325 99.2895 45.612 99.3829 45.685 99.4968C45.5507 99.6633 45.3433 99.7159 45.1038 99.4676ZM62.2612 103.417C62.6672 103.8 62.0772 104.259 61.6712 103.876C61.6799 103.388 62.0129 103.657 62.2612 103.417ZM51.7313 101.407C51.8452 101.334 51.9387 101.355 52.0526 101.282C52.1256 101.396 52.1052 101.489 52.1782 101.603C52.0643 101.676 51.9708 101.656 51.8569 101.729C51.8569 101.729 51.8978 101.542 51.7313 101.407ZM53.6561 102.906C53.8519 102.459 54.0797 102.313 54.2871 102.26C54.401 102.187 54.328 102.073 54.2345 102.053C54.3689 101.887 54.6084 102.135 54.7749 102.269C54.7544 102.363 54.6405 102.436 54.547 102.415C54.7135 102.55 54.7661 102.757 54.8187 102.964C54.4565 103.277 54.0621 103.289 53.6561 102.906ZM67.1216 104.481C67.7233 104.417 68.2666 105.515 68.7252 106.105C67.9803 106.824 66.4702 105.22 67.1216 104.481ZM52.254 105.733C52.6804 106.023 53.25 105.657 53.2938 106.353C52.879 106.458 52.5051 106.376 52.1225 106.782C51.8713 106.139 51.4565 106.244 51.0008 106.537C50.6153 106.06 51.1323 105.488 51.3485 104.948C51.9707 104.79 52.2423 105.339 52.254 105.733ZM70.6674 109.762C70.7813 109.689 70.8748 109.71 70.9887 109.637C71.0618 109.75 71.1552 109.771 71.2282 109.885C71.1873 110.072 70.9274 109.917 70.6674 109.762ZM73.9797 110.291C73.6468 110.022 73.9155 109.689 74.2164 109.657C74.5493 109.926 74.2806 110.259 73.9797 110.291ZM71.5467 108.877C71.1202 108.588 71.6168 108.109 71.7921 107.755C72.0111 108.097 72.0228 108.492 71.5467 108.877ZM65.3222 106.438C65.2083 106.511 65.1148 106.49 65.0009 106.563C64.9279 106.45 64.9484 106.356 64.8754 106.242C64.9893 106.169 65.0827 106.19 65.1966 106.117C65.2901 106.137 65.1558 106.304 65.3222 106.438ZM56.7143 105.044C56.837 104.483 57.2927 104.191 57.541 103.952C57.7396 104.387 57.2663 105.655 56.7143 105.044ZM53.3844 105.491C53.1536 104.755 53.8051 104.016 54.0826 103.195C54.5207 103.879 53.7554 104.691 53.3844 105.491ZM75.4958 107.391C75.2271 107.724 74.9262 107.756 74.5933 107.487C74.8094 106.947 75.4842 106.996 75.4958 107.391ZM72.1923 106.374C72.0579 106.54 71.944 106.613 71.7571 106.573C71.7892 106.873 71.2926 107.352 71.3218 106.771L71.3832 106.491C71.2167 106.356 71.1641 106.149 71.0181 105.921C70.8516 105.787 70.7786 105.673 70.726 105.465L70.8399 105.392L70.8604 105.299C71.7922 104.621 72.0346 105.752 72.1923 106.374ZM82.503 111.176C82.2547 111.416 82.0882 111.282 81.7553 111.013C82.0445 110.586 82.4913 110.782 82.503 111.176ZM82.6433 109.64C82.4155 109.786 82.2285 109.745 81.9802 109.985C81.8342 109.757 81.8751 109.57 81.6356 109.322C81.8634 109.176 82.0504 109.216 82.2987 108.977C82.5586 109.132 82.4038 109.392 82.6433 109.64ZM85.0152 108.2L84.612 108.7L84.1126 108.296L84.5157 107.797L85.0152 108.2ZM76.9447 106.14C76.6555 106.567 76.3546 106.599 76.0421 106.237C76.2378 105.79 76.5387 105.758 76.9447 106.14ZM52.891 100.584C53.2211 99.9704 53.6592 100.654 53.9279 100.321C54.1061 100.85 53.183 101.039 52.891 100.584ZM75.5923 105.159C75.3557 105.793 74.8855 104.808 74.6897 105.255C74.3977 104.8 75.6011 104.671 75.5923 105.159ZM73.6383 104.242C73.5244 104.315 73.5039 104.408 73.39 104.481C73.3169 104.367 73.2235 104.347 73.1505 104.233C73.2644 104.16 73.2848 104.066 73.3987 103.993C73.4718 104.107 73.5448 104.221 73.6383 104.242ZM75.2244 103.707C75.0491 104.061 74.7687 103.999 74.5087 103.844C74.684 103.491 74.8914 103.438 75.2244 103.707ZM76.1269 103.611C75.3908 103.842 76.0919 102.428 76.3723 102.489C76.8923 102.799 75.9079 103.269 76.1269 103.611ZM75.3237 102.358C75.7706 102.553 75.4084 102.866 75.6684 103.021C75.4405 103.167 75.274 103.032 75.1397 103.199C74.7862 103.024 75.055 102.691 75.3237 102.358ZM72.6364 102.553C72.3035 102.285 72.2188 101.776 72.6336 101.671C72.7592 101.993 72.8847 102.314 72.6364 102.553ZM94.599 103.343C94.6428 104.038 93.9243 103.293 94.4325 103.209C94.7334 103.176 94.6399 103.156 94.599 103.343ZM89.5897 101.17C89.0172 100.653 89.5342 100.08 90.1564 99.9223C90.7084 100.533 90.1914 101.105 89.5897 101.17ZM83.2777 97.3399C82.784 98.7011 81.6769 99.7321 80.2047 100.194C78.7325 100.655 77.3013 100.929 75.7765 101.184C75.7152 101.464 75.2799 101.663 75.0726 101.715C74.9061 101.581 74.947 101.394 74.9674 101.3C74.0648 101.397 73.2557 101.513 72.3736 101.516C71.5849 101.54 70.7963 101.563 69.9346 101.472C69.9667 101.773 69.958 102.261 69.9696 102.655C70.3844 102.55 70.9043 102.86 70.916 103.254C70.6472 103.587 70.2734 103.505 69.9199 103.33C69.8177 103.798 69.4759 104.017 68.7691 103.666C69.0583 103.24 69.0466 102.845 69.5432 102.366C69.625 101.992 69.5929 101.692 69.6338 101.505C65.7518 101.341 61.9605 100.315 58.5927 98.6971L58.1896 99.1966L57.6902 98.7934C57.8041 98.7204 57.845 98.5335 57.9589 98.4605C57.7924 98.3261 57.6055 98.2852 57.3455 98.1304C57.3046 98.3173 57.0038 98.3494 56.8986 97.9347C55.6718 97.2745 54.3721 96.5004 53.2797 95.6737C52.9583 95.7993 52.7714 95.7584 52.5728 95.3231C52.5933 95.2297 52.5933 95.2296 52.6867 95.2501C52.4268 95.0952 52.1873 94.847 51.9273 94.6922C51.8134 94.7652 51.7929 94.8586 51.679 94.9317C51.752 95.0456 51.939 95.0865 52.012 95.2004C51.8572 95.4604 51.5154 95.6794 51.7754 95.8343C51.568 95.8868 51.3285 95.6385 51.3168 95.2442C50.975 95.4633 50.6742 95.4953 50.2477 95.2061C50.6099 94.8936 51.0131 94.3942 51.3548 94.1751C50.5224 93.5033 49.8039 92.7584 49.0853 92.0135L49.1584 92.1275C48.7962 92.44 48.5975 92.0048 48.6998 91.5374C46.5121 89.0019 44.5932 86.1334 43.3373 82.9204C43.1416 83.3672 42.5078 83.1306 42.1251 83.5366C41.7805 82.8736 41.1583 83.0313 40.9071 82.3886C41.2577 81.6818 41.7367 82.1784 42.1106 82.2602C42.391 82.3216 42.8788 82.3303 43.1387 82.4852C42.8145 81.7286 42.6043 80.899 42.2801 80.1425C41.8916 78.7843 42.1254 77.2683 42.9725 76.0824C43.3961 75.4895 43.9861 75.031 44.5557 74.6659C44.4506 74.2511 44.6463 73.8042 45.1341 73.813C45.3006 73.9473 45.2597 74.1343 45.3123 74.3417C45.727 74.2365 46.1418 74.1314 46.6501 74.0467L57.8052 73.647C57.7731 73.3462 57.8344 73.0657 57.5949 72.8174C58.0506 72.5254 58.3222 73.0745 58.293 73.6558L67.5699 73.3349C69.2407 73.3087 70.8209 74.1442 71.6971 75.5112L80.544 89.6899C80.5645 89.5964 80.6784 89.5234 80.6988 89.4299C80.7719 89.5438 80.8653 89.5642 80.9383 89.6782C80.8244 89.7512 80.804 89.8447 80.6901 89.9177C80.6901 89.9177 80.5966 89.8972 80.617 89.8038L82.7871 93.3149C83.6108 94.4745 83.7714 95.9788 83.2777 97.3399ZM58.442 71.6316C58.1003 71.8507 57.6534 71.6549 57.3846 71.9879C57.2386 71.7601 57.2795 71.5731 57.04 71.3248C57.3817 71.1058 57.8286 71.3015 58.0974 70.9685C58.3369 71.2168 58.1821 71.4768 58.442 71.6316ZM63.5507 72.4555C63.6237 72.5695 63.7172 72.5899 63.7902 72.7038C63.6763 72.7768 63.6559 72.8703 63.5419 72.9433C63.4689 72.8294 63.3755 72.809 63.3024 72.695C63.4164 72.622 63.4368 72.5286 63.5507 72.4555ZM82.6735 87.1195C82.7465 87.2334 82.84 87.2539 82.913 87.3678C82.7991 87.4408 82.7786 87.5343 82.6647 87.6073C82.5917 87.4934 82.4982 87.473 82.4252 87.359C82.5187 87.3795 82.6531 87.213 82.6735 87.1195ZM82.7989 90.575C81.7328 91.4191 81.7475 89.5614 81.1954 88.9509C82.1477 88.1798 82.5478 89.9324 82.7989 90.575ZM94.5702 94.5217C94.9762 94.9044 94.3336 95.1555 94.0853 95.3951C93.5449 95.1789 94.208 94.8342 93.875 94.5655C94.1437 94.2325 94.4153 94.7817 94.5702 94.5217ZM95.4288 96.8644C95.5836 96.6044 95.7501 96.7388 95.8845 96.5723C95.9575 96.6862 95.9371 96.7796 96.0101 96.8936C95.8027 96.9461 95.5953 96.9987 95.4288 96.8644ZM88.9181 95.7337C89.0934 95.3802 89.3738 95.4416 89.6337 95.5964C89.4585 95.9498 89.2511 96.0024 88.9181 95.7337ZM94.056 95.9763C94.2634 95.9237 94.1699 95.9033 94.2225 96.1107C94.2663 96.8059 93.5478 96.061 94.056 95.9763ZM88.1499 95.6635C88.2229 95.7774 88.2024 95.8709 88.2755 95.9848C88.0476 96.1309 87.8607 96.09 87.6942 95.9556C87.7351 95.7687 87.9221 95.8095 88.1499 95.6635ZM93.1504 98.3247C93.3169 98.4591 92.9547 98.7716 92.8612 98.7512C92.4874 98.6694 92.9314 97.983 93.1504 98.3247ZM98.7587 96.4176C99.3312 96.9346 99.6292 96.0204 100.222 96.444C100.181 96.6309 100.14 96.8178 100.307 96.9522C100.038 97.2852 99.673 96.7156 99.4042 97.0485C99.4889 97.5568 100.701 96.9405 100.871 97.957C100.529 98.1761 100.094 98.3747 99.6992 98.3863C99.6057 98.3659 99.4597 98.138 99.2727 98.0971C98.7119 97.9744 97.9963 98.1117 97.5698 97.8225C97.1551 97.9277 96.6673 97.9188 96.232 98.1175C95.9925 97.8692 96.3343 97.6501 95.8874 97.4544C96.1357 97.2149 96.2905 96.9549 96.5592 96.622C97.1726 96.9521 97.5845 95.9648 98.2709 96.4088C98.4053 96.2423 98.4257 96.1489 98.3527 96.0349C98.6215 95.702 98.3848 96.3358 98.7587 96.4176ZM96.7521 95.2929C96.6382 95.3659 96.5447 95.3455 96.4308 95.4185C96.3578 95.3046 96.3782 95.2111 96.3052 95.0972C96.4191 95.0242 96.5126 95.0446 96.6265 94.9716C96.6995 95.0855 96.6791 95.179 96.7521 95.2929ZM99.8249 95.5735C99.711 95.6465 99.6175 95.626 99.5036 95.699C99.4306 95.5851 99.451 95.4917 99.378 95.3777C99.4919 95.3047 99.5854 95.3252 99.6993 95.2521C99.7723 95.3661 99.6584 95.4391 99.8249 95.5735ZM99.7695 94.484C99.6555 94.557 99.6351 94.6504 99.5212 94.7235C99.4481 94.6095 99.3547 94.5891 99.2817 94.4752C99.3956 94.4022 99.416 94.3087 99.5299 94.2357C99.603 94.3496 99.6964 94.37 99.7695 94.484ZM96.6236 94.0895C96.1972 93.8003 96.6733 93.4148 96.2468 93.1256C96.6909 92.4392 97.3364 93.0701 97.8972 93.1929C98.1075 94.0224 96.9011 93.2687 96.6236 94.0895ZM98.9458 93.3243C98.6625 92.3808 98.2009 94.0428 98.9458 93.3243ZM100.471 93.0703C100.181 93.4967 99.8688 93.1345 99.5066 93.447C99.3285 92.9183 100.158 92.7081 100.471 93.0703ZM98.2565 91.9982C98.1017 92.2581 97.9352 92.1238 97.8008 92.2903C97.3218 91.7937 97.7249 91.2942 97.2459 90.7976C98.0229 90.3799 98.0579 91.5629 98.2565 91.9982ZM94.7981 91.2415C94.7251 91.1276 94.7456 91.0341 94.6726 90.9202C94.7865 90.8472 94.88 90.8676 94.9939 90.7946C95.0669 90.9085 95.0464 91.002 95.1195 91.1159C95.026 91.0955 94.9325 91.075 94.7981 91.2415ZM98.1661 89.7257C98.0405 89.4044 98.3209 89.4657 98.4553 89.2992C98.5809 89.6205 98.3004 89.5592 98.1661 89.7257ZM104.154 89.6646C104.04 89.7376 103.947 89.7171 103.833 89.7902C103.76 89.6762 103.78 89.5828 103.707 89.4689C103.821 89.3959 103.914 89.4163 104.028 89.3433C104.101 89.4572 104.081 89.5507 104.154 89.6646ZM108.608 90.3454C108.182 90.0562 108.378 89.6093 108.772 89.5976C109.012 89.8459 108.877 90.0124 108.608 90.3454ZM99.0717 87.3773C98.8964 87.7307 98.6569 87.4824 98.4904 87.348C98.6043 87.275 98.6978 87.2955 98.8117 87.2224C98.9052 87.2429 98.9782 87.3568 99.0717 87.3773ZM103.801 86.3551C103.418 86.7611 102.959 86.1711 103.342 85.7651C103.696 85.9404 103.655 86.1273 103.801 86.3551ZM101.75 84.5353C101.327 85.1283 101.157 84.1118 100.918 83.8635C101.581 83.5188 101.116 84.2987 101.75 84.5353ZM100.658 83.7086C100.348 84.2285 99.8488 83.8255 99.7437 83.4107C100.065 83.2851 100.646 83.3143 100.658 83.7086ZM101.967 80.8608C101.572 80.8725 101.222 81.5793 100.795 81.2901C101.417 81.1324 101.166 80.4898 101.788 80.3321C101.955 80.4665 101.821 80.633 101.967 80.8608ZM110.759 81.4132C110.645 81.4862 110.624 81.5797 110.51 81.6527C110.437 81.5388 110.344 81.5183 110.271 81.4044C110.385 81.3314 110.405 81.238 110.519 81.1649C110.592 81.2789 110.665 81.3928 110.759 81.4132ZM108.659 80.2681C108.772 80.1951 108.793 80.1016 108.907 80.0286C108.98 80.1425 109.094 80.0695 109.114 79.9761C109.468 80.1513 108.857 80.7033 108.659 80.2681ZM106.748 80.0461C106.062 79.602 107.067 79.0384 107.075 78.5506C107.575 78.9537 107.265 79.4736 106.748 80.0461ZM102.113 77.9545C102.373 78.1093 101.856 78.6817 101.657 78.2465C101.771 78.1735 101.791 78.08 101.905 78.007C101.978 78.1209 101.999 78.0275 102.113 77.9545ZM105.79 79.0529C105.539 78.4103 106.62 78.8426 105.79 79.0529ZM112.321 80.0901C111.988 79.8214 112.257 79.4884 112.558 79.4563C112.891 79.725 112.622 80.058 112.321 80.0901ZM111.144 78.7552C110.855 79.1816 110.732 79.7425 110.099 79.5058C110.689 79.0473 110.478 78.2177 111.144 78.7552ZM107.782 78.9011C107.283 78.498 107.487 77.5633 108.109 77.4056C108.495 77.8817 108.393 78.349 107.782 78.9011ZM105.271 72.4749C104.73 72.2587 105.3 71.8936 105.06 71.6453C105.496 71.4467 105.633 72.1624 105.271 72.4749ZM102.881 68.6221C102.268 68.292 103.013 67.5735 103.334 67.4479C103.74 67.8306 103.171 68.1956 102.881 68.6221ZM101.634 68.0554C101.789 67.7954 101.956 67.9298 102.09 67.7633C102.163 67.8772 102.142 67.9707 102.215 68.0846C101.988 68.2306 101.78 68.2832 101.634 68.0554ZM102.835 67.0447C102.551 66.1013 101.996 67.7428 102.835 67.0447ZM101.847 66.6329L101.348 66.2297L101.751 65.7303L102.251 66.1334L101.847 66.6329ZM112.033 67.9799C111.749 67.0364 111.215 68.5845 112.033 67.9799ZM102.657 66.516C102.966 65.9961 103.381 65.891 103.723 65.672C104.129 66.0546 103.083 66.8052 102.657 66.516ZM104.009 64.3634C103.136 63.8784 103.279 63.2242 102.914 62.6546C104.094 61.7374 104.742 63.2505 104.009 64.3634ZM102.108 63.6535L101.608 63.2504L102.011 62.751L102.511 63.1541L102.108 63.6535ZM102.204 61.4219C102.651 61.6176 102.289 61.9301 102.549 62.085C102.146 62.5844 101.915 61.8484 102.204 61.4219ZM106.331 63.5982C106.206 63.2769 106.515 62.757 106.784 62.424C107.097 62.7862 106.746 63.4931 106.331 63.5982ZM109.766 60.432C109.372 60.4437 109.013 61.6384 108.513 61.2353C108.823 60.7154 109.267 60.0289 109.766 60.432ZM104.646 59.2138C104.418 59.3598 104.231 59.3189 104.065 59.1845C104.033 58.8837 104.301 58.5507 104.602 58.5186C104.862 58.6734 104.407 58.9655 104.646 59.2138ZM110.292 59.3717C110.324 59.6726 110.015 60.1925 109.62 60.2042C109.401 59.8624 109.556 59.6025 109.731 59.249C109.939 59.1965 110.126 59.2374 110.292 59.3717ZM109.626 58.8343C109.512 58.9073 109.419 58.8869 109.305 58.9599C109.232 58.846 109.252 58.7525 109.179 58.6385C109.293 58.5655 109.387 58.586 109.501 58.513C109.574 58.6269 109.553 58.7204 109.626 58.8343ZM105.575 57.6541C105.213 57.9666 104.383 58.1769 104.299 57.6686C104.661 57.3561 105.49 57.1458 105.575 57.6541ZM97.6827 56.1231C98.5385 57.5836 99.1868 59.0967 99.8352 60.6098C100.189 60.7851 100.501 61.1473 100.513 61.5416C100.399 61.6146 100.285 61.6876 100.192 61.6672C101.062 64.4042 101.611 67.2667 101.652 70.2139C101.695 70.9091 101.625 71.6773 101.669 72.3725C101.71 72.1856 101.844 72.0191 101.792 71.8117C102.32 71.6336 102.189 72.6822 101.92 73.0152C101.754 72.8808 101.681 72.7668 101.701 72.6733C101.622 73.9293 101.543 75.1854 101.257 76.4939C100.708 79.8997 99.5041 83.1624 97.7602 86.2088C97.8537 86.2293 97.9471 86.2498 98.0202 86.3637C97.2111 86.4805 97.7222 87.2779 97.8273 87.6927C97.3921 87.8913 96.8429 88.1629 96.4077 88.3615C95.5401 89.6408 94.5995 90.8063 93.5859 91.8578C93.5859 91.8578 93.6794 91.8782 93.6589 91.9717C93.9803 91.8461 94.3863 92.2287 94.7806 92.2171C95.1749 92.2054 94.7806 92.2171 95.0727 92.6728C95.3647 93.1285 95.9255 93.2512 95.9168 93.739C95.7415 94.0924 95.5546 94.0515 95.3267 94.1975C94.9733 94.0222 94.2548 93.2774 93.7377 93.8499C93.5187 93.5081 93.7874 93.1751 93.6414 92.9473C93.4954 92.7194 93.2354 92.5646 93.0484 92.5237C92.0757 93.3883 90.811 93.7972 89.5754 93.6248C88.5268 93.4933 87.5395 93.0814 86.821 92.3365C86.5815 92.0882 86.269 91.726 86.0499 91.3843L74.9599 73.5806C74.6678 73.1249 74.4896 72.5962 74.405 72.0879C74.3115 72.0675 74.2911 72.161 74.2911 72.161C74.218 72.0471 74.2385 71.9536 74.1655 71.8397C74.2794 71.7667 74.3728 71.7871 74.4868 71.7141C74.4021 71.2059 74.4109 70.7181 74.5131 70.2507C74.6154 69.7834 74.7176 69.316 75.0068 68.8896L76.8121 65.5627L76.7391 65.4488C76.853 65.3757 76.8735 65.2823 76.9874 65.2093L77.0809 65.2297L85.0236 50.415C85.7042 49.0948 86.9778 48.1982 88.3886 48.0171C89.8199 47.7426 91.2949 48.1633 92.3464 49.1769C94.5429 51.2246 96.3771 53.5848 97.8901 56.0706C98.2202 55.4572 98.6758 55.1651 99.0906 55.06C99.3827 55.5157 98.4217 56.7745 97.6827 56.1231ZM73.4877 74.042C73.1138 73.9602 73.5578 73.2738 73.7769 73.6156C73.9434 73.75 73.6746 74.0829 73.4877 74.042ZM72.5181 69.5204C72.9943 69.1349 73.4119 69.9118 72.9358 70.2973C72.8423 70.2769 72.7693 70.163 72.6759 70.1425C72.9884 70.5048 73.0731 71.013 73.0643 71.5008C72.8598 72.4355 72.0419 73.0401 71.0867 72.9291C70.152 72.7246 69.5475 71.9067 69.6585 70.9515C69.7695 69.9964 70.6809 69.4122 71.636 69.5232C72.0099 69.605 72.4568 69.8008 72.6759 70.1425C72.5298 69.9147 72.6642 69.7482 72.5181 69.5204ZM74.0049 70.3354C74.2444 70.5837 74.0691 70.9371 73.7069 71.2496C73.187 70.94 73.6105 70.3471 74.0049 70.3354ZM74.23 66.173C73.9087 66.2986 73.97 66.0182 73.8035 65.8839C74.1453 65.6648 74.0635 66.0387 74.23 66.173ZM76.0235 65.586C76.0351 65.9803 75.5911 66.6668 75.1121 66.1702C74.9865 65.8489 75.5445 65.0894 76.0235 65.586ZM77.4403 60.9009C77.3673 60.787 77.3878 60.6935 77.3147 60.5796C77.4287 60.5066 77.5221 60.527 77.636 60.454C77.7091 60.5679 77.6886 60.6614 77.7616 60.7753C77.6477 60.8483 77.5542 60.8279 77.4403 60.9009ZM78.0129 58.2838C78.2524 58.532 78.5124 58.6869 78.8454 58.9556C78.5562 59.3821 78.2962 59.2272 78.2641 58.9264C78.1297 59.0928 78.0158 59.1659 77.9749 59.3528C77.455 59.0432 77.7237 58.7102 78.0129 58.2838ZM77.5018 57.4863C77.6479 57.7142 77.5135 57.8806 77.6595 58.1085C77.2769 58.5144 77.0257 57.8719 77.5018 57.4863ZM79.4385 56.245C79.3654 56.1311 79.3859 56.0376 79.3129 55.9237C79.4268 55.8507 79.5203 55.8711 79.6342 55.7981C79.7072 55.912 79.6868 56.0055 79.7598 56.1194C79.6663 56.0989 79.4794 56.058 79.4385 56.245ZM81.7082 52.1382C81.8221 52.0652 81.8426 51.9717 81.9565 51.8987C82.2165 52.0536 82.0821 52.2201 82.2486 52.3544C81.9068 52.5735 81.7403 52.4391 81.7082 52.1382ZM80.7794 50.5638C81.0482 50.2309 81.3812 50.4996 81.4133 50.8004C81.1445 51.1334 80.8115 50.8647 80.7794 50.5638ZM82.938 50.5464C83.6508 49.527 84.4306 49.9915 84.2261 50.9262C83.7909 51.1248 83.0431 50.9612 82.938 50.5464ZM81.9245 48.4637C81.5916 48.195 81.8603 47.862 82.1611 47.8298C82.4941 48.0986 82.2254 48.4316 81.9245 48.4637ZM85.2953 47.83C84.9214 47.7482 85.3655 47.0618 85.5845 47.4036C85.7306 47.6314 85.3888 47.8505 85.2953 47.83ZM97.5718 53.9441C97.9047 54.2129 97.8434 54.4932 97.5747 54.8262C97.1687 54.4435 97.084 53.9353 97.5718 53.9441ZM100.294 54.9315C99.2074 55.8691 98.8249 53.1409 100.101 53.1263C100.767 53.6638 99.7216 54.4144 100.294 54.9315ZM103.653 50.7693C103.385 51.1023 103.136 51.3418 102.824 50.9796C102.812 50.5853 103.32 50.5005 103.653 50.7693ZM100.849 53.2899C99.7363 52.5567 101.536 50.5998 102.272 50.3691C103.084 51.1344 101.354 52.3231 100.849 53.2899ZM100.081 50.0857C99.7481 49.8169 100.017 49.4839 100.318 49.4518C100.651 49.7206 100.382 50.0535 100.081 50.0857ZM91.8529 47.4038C92.069 46.8635 92.402 47.1322 92.6298 46.9862C93.0563 47.2754 92.2793 47.693 91.8529 47.4038ZM95.8487 47.4946C95.9217 47.6085 96.0152 47.629 96.0882 47.7429C95.9743 47.8159 95.9538 47.9094 95.8399 47.9824C95.7669 47.8685 95.6734 47.848 95.6004 47.7341C95.7143 47.6611 95.8283 47.5881 95.8487 47.4946ZM98.8309 48.6368C98.5914 48.3885 98.7667 48.0351 99.0676 48.003C99.4005 48.2717 99.1318 48.6047 98.8309 48.6368ZM95.8049 46.7994C95.691 46.8724 95.6705 46.9659 95.5566 47.0389C95.4836 46.925 95.3901 46.9045 95.3171 46.7906C95.4311 46.7176 95.4515 46.6241 95.5654 46.5511C95.6384 46.665 95.7319 46.6855 95.8049 46.7994ZM75.0402 40.9829C75.268 40.8368 75.455 40.8777 75.6215 41.0121C75.4871 41.1786 75.3001 41.1377 75.0402 40.9829ZM57.0327 37.3367C57.4592 37.6259 56.7143 38.3445 56.4134 38.3766C56.1009 38.0144 56.7319 37.3688 57.0327 37.3367ZM65.372 39.0634C65.445 39.1773 65.5384 39.1977 65.6115 39.3116C65.3427 39.6446 65.6027 39.7995 65.2084 39.8111C65.1353 39.6972 65.0419 39.6768 64.9688 39.5628C64.9572 39.1685 65.1032 39.3964 65.372 39.0634ZM55.9578 38.6686C56.0308 38.7825 56.0103 38.876 56.0834 38.99C55.8555 39.136 55.6686 39.0951 55.5021 38.9607C55.6569 38.7008 55.8234 38.8351 55.9578 38.6686ZM54.3074 38.6014C54.3804 38.7153 54.4739 38.7357 54.547 38.8496C54.433 38.9227 54.4126 39.0162 54.2986 39.0892C54.2256 38.9753 54.1322 38.9548 54.0591 38.8409C54.1731 38.7679 54.287 38.6949 54.3074 38.6014ZM52.3446 38.1719C52.2716 38.058 52.1781 38.0376 52.1051 37.9236C52.4556 37.2168 52.9259 38.2012 52.3446 38.1719ZM49.8648 35.1808C50.2387 35.2626 50.6651 35.5517 51.039 35.6335C50.7089 36.2469 50.2942 36.3521 49.9728 36.4777C49.6603 36.1155 49.1609 35.7124 49.8648 35.1808ZM48.4248 35.9431C49.2748 35.6393 49.8297 37.132 50.1013 37.6811C49.003 38.2244 49.0703 36.574 48.4248 35.9431ZM47.8902 37.4911C48.0041 37.4181 48.0245 37.3247 48.1385 37.2517C48.3984 37.4065 48.2641 37.5729 48.4305 37.7073C48.0888 37.9264 47.9223 37.792 47.8902 37.4911ZM49.8852 38.2215C50.1539 37.8885 50.4869 38.1572 50.519 38.4581C50.2502 38.791 49.9173 38.5223 49.8852 38.2215ZM54.6024 39.9392C54.5001 40.4065 55.207 40.7571 55.4056 41.1923C54.836 41.5574 54.284 40.9469 53.7027 40.9177C53.5246 40.389 54.2081 39.9509 54.6024 39.9392ZM56.8982 40.6374C57.0968 41.0726 56.3082 41.0959 56.0687 40.8477C56.2848 40.3073 56.6295 40.9704 56.8982 40.6374ZM51.658 40.8621C51.8333 40.5086 51.6142 40.1669 52.029 40.0618C52.3824 40.237 52.1342 40.4765 51.9998 40.643C52.6132 40.9731 53.3814 41.0432 53.3317 41.718C53.1769 41.9779 52.9169 41.8231 52.7416 42.1766C52.2422 41.7735 52.4584 41.2331 51.658 40.8621ZM56.0335 42.7988C56.2409 42.7463 56.1475 42.7259 56.2 42.9332C56.2643 43.535 55.5253 42.8835 56.0335 42.7988ZM49.254 42.0011C49.368 41.9281 49.4615 41.9486 49.5754 41.8755C49.6484 41.9895 49.6279 42.0829 49.7009 42.1968C49.587 42.2699 49.4936 42.2494 49.3796 42.3224C49.4001 42.229 49.4205 42.1355 49.254 42.0011ZM51.6346 43.2076C52.0377 42.7081 52.4203 42.3022 52.9198 42.7053C52.4115 42.7899 52.0815 43.4033 51.6346 43.2076ZM54.5029 44.4228C54.5613 43.2603 53.4338 44.3848 54.5029 44.4228ZM50.0894 43.5551C50.3581 43.2222 50.6911 43.4909 50.8167 43.8122C50.951 43.6457 51.1789 43.4997 51.2928 43.4266C51.5528 43.5815 51.3366 44.1218 50.9948 44.3409C50.6647 44.9543 50.2354 43.783 50.0894 43.5551ZM54.9819 44.9194C55.1279 45.1473 54.9936 45.3137 55.1396 45.5416C54.643 46.0206 54.4941 44.9106 54.9819 44.9194ZM50.323 45.1733C50.0221 45.2054 49.7534 45.5384 49.5781 45.8919C49.0991 45.3953 49.7301 44.7498 50.323 45.1733ZM70.3492 40.9359C73.016 40.8338 75.6945 41.126 78.3116 41.6987C79.7137 42.0054 80.9521 43.0599 81.5479 44.3656C82.1437 45.6713 82.0969 47.2282 81.4163 48.5484L75.4746 59.5893L74.9488 60.6496C75.1883 60.8979 75.5008 61.2601 75.6264 61.5814C75.1707 61.8734 74.8377 61.6047 74.6187 61.263L73.8241 62.6562C74.0111 62.6971 74.2185 62.6445 74.3937 62.2911C74.8406 62.4868 74.4784 62.7994 74.7384 62.9542C74.5105 63.1002 74.3031 63.1528 74.0227 63.0914C73.754 63.4244 73.4444 63.9443 73.1435 63.9764L71.5135 66.9499C70.6985 68.4366 69.2175 69.3859 67.5467 69.4121L52.4483 69.9284C52.46 70.3227 52.2643 70.7696 51.683 70.7404C51.537 70.5126 51.5048 70.2117 51.4727 69.9108L46.5334 70.1034C45.0496 70.1705 43.7293 69.4899 42.6983 68.3828C41.8542 67.3167 41.4658 65.9584 41.6586 64.6293L41.72 64.3489C42.1903 62.1992 42.9206 60.2042 43.8174 58.3436C43.724 58.3231 43.5166 58.3757 43.4231 58.3552C42.5498 57.8703 42.5995 57.1956 42.7222 56.6348C43.3852 56.2902 44.2148 56.0799 45.0239 55.9631C50.2878 47.1245 59.7023 41.2509 70.3492 40.9359ZM49.1954 46.2979C49.0406 46.5578 48.8128 46.7038 48.658 46.9638C48.0971 46.8411 48.9238 45.7487 49.1954 46.2979Z" fill="white"/>
<circle cx="71.1921" cy="71.2351" r="69.86" stroke="white"/>
</svg>
