<svg width="381" height="65" viewBox="0 0 381 65" fill="none" xmlns="http://www.w3.org/2000/svg">
<path d="M0.563636 1.45454H13.4636L18.5455 35.0727H19.3273L24.4091 1.45454H37.3091V64H27.1455L27.9273 35.0727H27.1455L22.8455 64H15.0273L10.7273 35.0727H9.94545L10.7273 64H0.563636V1.45454ZM40.4562 1.45454H61.5653V11.6182H52.1835V27.2545H60.3926V37.4182H52.1835V53.8364H61.5653V64H40.4562V1.45454ZM64.0558 1.45454H75.0013C86.3376 1.45454 92.9831 8.88182 92.9831 27.2545V38.2C92.9831 56.5727 86.3376 64 75.0013 64H64.0558V1.45454ZM75.3922 10.8364V54.2273H76.5649C79.614 54.2273 81.2558 52.0382 81.2558 48.6764V16.3873C81.2558 13.0255 79.614 10.8364 76.5649 10.8364H75.3922ZM95.6339 1.45454H107.361V64H95.6339V1.45454ZM115.19 1.45454H132.39L138.254 63.2182V64H127.308L125.979 49.1455H121.601L120.272 64H109.326V63.2182L115.19 1.45454ZM121.679 38.9818H125.901L124.181 17.4818H123.399L121.679 38.9818ZM151.148 1.45454H162.719C172.257 1.45454 180.466 7.70909 180.466 21V22.5636C180.466 35.8545 172.257 42.1091 162.875 42.1091V64H151.148V1.45454ZM162.875 10.8364V32.7273H163.657C166.784 32.7273 168.739 30.9291 168.739 26.4727V17.0909C168.739 12.6345 166.784 10.8364 163.657 10.8364H162.875ZM184.477 1.45454H201.677L207.541 63.2182V64H196.595L195.266 49.1455H190.888L189.559 64H178.614V63.2182L184.477 1.45454ZM190.966 38.9818H195.188L193.468 17.4818H192.686L190.966 38.9818ZM209.517 1.45454H221.088C230.939 1.45454 238.444 8.33455 238.444 20.4527C238.444 28.2709 236.099 32.6491 231.799 36.8709L237.662 63.2182V64H226.326L221.869 40.2327H220.697L221.244 64H209.517V1.45454ZM221.244 10.8364V31.9455H221.635C224.371 31.9455 226.717 29.8345 226.717 25.6909V17.0909C226.717 12.9473 224.371 10.8364 221.635 10.8364H221.244ZM238.141 1.45454H265.505V11.6182H257.687V64H245.959V11.6182H238.141V1.45454ZM267.718 1.45454H277.882L284.527 32.7273H285.309L284.136 1.45454H295.082V64H284.918L278.272 32.7273H277.491L278.663 64H267.718V1.45454ZM298.204 1.45454H319.313V11.6182H309.932V27.2545H318.141V37.4182H309.932V53.8364H319.313V64H298.204V1.45454ZM321.804 1.45454H333.375C343.226 1.45454 350.731 8.33455 350.731 20.4527C350.731 28.2709 348.386 32.6491 344.086 36.8709L349.949 63.2182V64H338.613L334.157 40.2327H332.984L333.531 64H321.804V1.45454ZM333.531 10.8364V31.9455H333.922C336.658 31.9455 339.004 29.8345 339.004 25.6909V17.0909C339.004 12.9473 336.658 10.8364 333.922 10.8364H333.531ZM351.711 42.5H362.422C362.813 43.2818 362.891 44.6891 362.891 46.0182V51.8036C362.891 54.2273 363.986 55.7909 365.784 55.7909C367.66 55.7909 368.755 54.2273 368.755 51.4909C368.755 46.4873 365.471 41.8745 362.031 37.34L359.764 34.3691C354.448 27.4109 352.258 22.7982 352.258 15.9182C352.258 6.92727 357.653 0.672726 366.488 0.672726C375.478 0.672726 380.404 6.92727 380.404 16.8564C380.404 18.7327 380.482 20.14 380.873 21.3909V22.1727H370.318C370.006 21.3127 369.849 20.14 369.849 18.6545V13.4164C369.849 10.9145 368.677 9.66364 367.035 9.66364C365.315 9.66364 363.986 10.9145 363.986 14.0418C363.986 18.6545 366.409 21.9382 369.849 26.3164L372.195 29.2873C377.589 36.0891 380.482 41.4836 380.482 49.1455C380.482 58.6836 375.088 64.7818 366.566 64.7818C357.028 64.7818 352.18 58.6055 352.18 47.66C352.18 45.7836 352.102 44.4545 351.711 43.2818V42.5Z" fill="white"/>
</svg>
