<svg width="198" height="205" viewBox="0 0 198 205" fill="none" xmlns="http://www.w3.org/2000/svg">
<path d="M61.7368 58.9388C61.0055 59.4097 60.2851 59.8922 59.5699 60.4013C58.8565 60.9091 58.1642 61.4349 57.4821 61.9673L62.0854 69.6732C60.5886 70.904 59.159 72.1944 57.8472 73.5691L50.5175 68.4405C49.338 69.7376 48.2233 71.0794 47.1841 72.4613L53.6262 78.7123C52.5049 80.2849 51.495 81.9132 50.5795 83.5928L42.1485 80.5296C41.3512 82.0811 40.6285 83.6676 39.9801 85.2811L47.7687 89.6256C47.095 91.428 46.5722 93.28 46.1228 95.146L37.1862 94.3692C36.819 96.0719 36.527 97.7873 36.319 99.52L45.0179 101.709C44.831 103.622 44.7203 105.542 44.7681 107.468L35.985 109.021C36.0649 110.755 36.2301 112.49 36.4781 114.22L45.4454 114.088C45.7605 115.975 46.1797 117.845 46.7279 119.695L38.5942 123.493C39.125 125.14 39.7375 126.771 40.4242 128.383L49.0305 125.939C49.8179 127.668 50.7449 129.354 51.7606 131.009L44.8853 136.779C45.3563 137.511 45.8388 138.231 46.3465 138.945C46.8543 139.658 47.3802 140.35 47.9138 141.034L55.6198 136.431C56.8506 137.928 58.1392 139.359 59.5144 140.667L54.3871 147.999C55.6847 149.175 57.026 150.293 58.4084 151.329L64.6607 144.889C66.2296 146.013 67.8598 147.021 69.5381 147.935L66.4749 156.366C68.0295 157.164 69.6141 157.888 71.2295 158.535L75.574 150.746C77.3764 151.42 79.2271 151.941 81.0944 152.392L80.3158 161.33C82.0167 161.699 83.7357 161.988 85.4653 162.195L87.6574 153.497C89.5721 153.686 91.4888 153.796 93.4125 153.75L94.9672 162.531C96.7023 162.448 98.438 162.285 100.169 162.042L100.033 153.069C101.923 152.755 103.793 152.335 105.642 151.788L109.439 159.922C111.085 159.393 112.718 158.779 114.33 158.089L111.885 149.486C113.614 148.697 115.301 147.768 116.954 146.757L122.727 153.628C123.454 153.159 124.178 152.678 124.891 152.17C125.606 151.661 126.296 151.134 126.981 150.599L122.376 142.898C123.875 141.663 125.302 140.377 126.616 139.001L133.946 144.126C135.124 142.83 136.238 141.492 137.278 140.107L130.837 133.854C131.961 132.285 132.97 130.655 133.882 128.975L142.316 132.042C143.11 130.487 143.833 128.9 144.481 127.287L136.691 122.944C137.367 121.14 137.891 119.29 138.339 117.422L147.275 118.199C147.645 116.5 147.935 114.781 148.144 113.05L139.444 110.859C139.629 108.947 139.743 107.024 139.698 105.103L148.48 103.548C148.397 101.813 148.233 100.077 147.987 98.3451L139.016 98.4802C138.701 96.5934 138.28 94.7241 137.735 92.8743L145.869 89.0741C145.339 87.4312 144.726 85.7953 144.037 84.1853L135.431 86.6293C134.643 84.9028 133.717 83.2141 132.702 81.5636L139.576 75.7884C139.107 75.0589 138.623 74.3367 138.115 73.6233C137.607 72.9099 137.083 72.2195 136.548 71.5337L128.843 76.1419C127.611 74.6401 126.322 73.2124 124.947 71.9007L130.075 64.5691C128.779 63.3914 127.438 62.2786 126.051 61.2401L119.802 67.6809C118.23 66.5565 116.602 65.5466 114.923 64.6329L117.987 56.2019C116.434 55.4028 114.847 54.6801 113.235 54.0335L108.892 61.8239C107.088 61.1484 105.234 60.627 103.367 60.1757L104.147 51.2397C102.443 50.8707 100.727 50.5817 98.9963 50.3724L96.8041 59.0708C94.8939 58.8844 92.9728 58.7719 91.0473 58.8197L89.4944 50.0366C87.7593 50.1196 86.0237 50.283 84.2949 50.5297L84.4286 59.4989C82.5418 59.8139 80.6725 60.235 78.8214 60.7782L75.0225 52.6458C73.376 53.1784 71.7437 53.7891 70.1337 54.4776L72.5777 63.0839C70.8475 63.8745 69.1625 64.7983 67.5071 65.814L61.7368 58.9388ZM98.7449 101.65C101.305 105.246 100.464 110.237 96.8664 112.798C93.272 115.357 88.2809 114.517 85.7211 110.92C83.1613 107.324 84.0016 102.333 87.596 99.7745C91.194 97.2135 96.1851 98.0537 98.7449 101.65Z" fill="#272727"/>
<path d="M61.6026 60.1643C60.8713 60.6353 60.1509 61.1177 59.4356 61.6268C58.7223 62.1346 58.03 62.6605 57.3479 63.1928L61.9511 70.8988C60.4543 72.1296 59.0247 73.42 57.7148 74.7934L50.3832 69.6661C49.2037 70.9632 48.0891 72.305 47.0511 73.6888L53.4919 79.9379C52.3707 81.5105 51.3589 83.1401 50.4471 84.8171L42.0143 81.7552C41.217 83.3066 40.4942 84.8931 39.8459 86.5067L47.6363 90.8498C46.9607 92.6536 46.4393 94.5075 45.9899 96.3734L37.052 95.5948C36.6848 97.2975 36.3959 99.0134 36.1866 100.744L44.885 102.936C44.6968 104.848 44.5843 106.769 44.6338 108.693L35.8507 110.246C35.9337 111.981 36.0953 113.718 36.342 115.447L45.313 115.312C45.6263 117.2 46.0473 119.069 46.5924 120.919L38.46 124.718C38.9908 126.366 39.6033 127.997 40.2912 129.61L48.8962 127.164C49.6842 128.891 50.6106 130.579 51.6251 132.233L44.7511 138.005C45.2239 138.735 45.7045 139.457 46.2123 140.17C46.7214 140.885 47.2478 141.575 47.7796 142.26L55.4843 137.655C56.7164 139.153 58.0068 140.583 59.3814 141.895L54.2528 149.224C55.5518 150.403 56.8905 151.517 58.2755 152.557L64.5265 146.114C66.0972 147.237 67.7268 148.249 69.4057 149.159L66.342 157.593C67.8934 158.391 69.4817 159.112 71.0939 159.759L75.4397 151.972C77.2417 152.649 79.0942 153.168 80.9602 153.618L80.1846 162.556C81.8842 162.923 83.6014 163.214 85.3311 163.421L87.5232 154.723C89.4379 154.911 91.3558 155.023 93.2814 154.976L94.8343 163.759C96.568 163.674 98.3037 163.511 100.035 163.267L99.9006 154.293C101.787 153.981 103.658 153.559 105.508 153.014L109.305 161.148C110.951 160.618 112.584 160.004 114.195 159.315L111.753 150.71C113.479 149.922 115.167 148.994 116.82 147.983L122.592 154.853C123.32 154.385 124.045 153.902 124.757 153.395C125.472 152.886 126.161 152.36 126.847 151.825L122.241 144.123C123.741 142.888 125.168 141.602 126.481 140.226L133.812 145.352C134.989 144.056 136.104 142.717 137.143 141.332L130.701 135.081C131.824 133.51 132.835 131.881 133.748 130.201L142.181 133.268C142.978 131.711 143.699 130.126 144.349 128.514L136.558 124.171C137.234 122.367 137.756 120.515 138.206 118.646L147.141 119.424C147.513 117.724 147.8 116.006 148.011 114.277L139.309 112.084C139.498 110.173 139.61 108.252 139.564 106.328L148.344 104.772C148.262 103.038 148.099 101.303 147.854 99.5726L138.882 99.7058C138.568 97.8208 138.146 95.9497 137.601 94.0999L145.736 90.3015C145.205 88.6537 144.593 87.0227 143.903 85.4109L135.298 87.8567C134.509 86.1283 133.582 84.4397 132.568 82.7861L139.442 77.014C138.972 76.2845 138.49 75.5641 137.981 74.8489C137.473 74.1355 136.948 73.4451 136.414 72.7593L128.709 77.3644C127.479 75.8644 126.186 74.4362 124.813 73.1262L129.942 65.7965C128.644 64.617 127.306 63.5029 125.919 62.4644L119.667 68.9046C118.096 67.7821 116.468 66.7722 114.789 65.8585L117.852 57.4276C116.301 56.6302 114.715 55.9075 113.101 55.2591L108.758 63.0495C106.954 62.374 105.1 61.8525 103.234 61.4032L104.013 52.4652C102.31 52.0981 100.596 51.8079 98.8621 51.598L96.673 60.2969C94.7597 60.11 92.8386 59.9975 90.913 60.0452L89.3601 51.2621C87.6251 51.3452 85.8894 51.5086 84.1606 51.7553L84.2943 60.7245C82.4075 61.0395 80.5383 61.4606 78.6853 62.0051L74.8896 53.8732C73.2417 54.404 71.6094 55.0147 69.9995 55.7032L72.4435 64.3095C70.7132 65.1001 69.0282 66.0239 67.3728 67.0396L61.6026 60.1643ZM98.6089 102.877C101.169 106.473 100.33 111.463 96.7322 114.024C93.1378 116.582 88.1466 115.742 85.5869 112.146C83.0271 108.55 83.8687 103.56 87.463 101.002C91.061 98.4409 96.0491 99.2806 98.6089 102.877Z" fill="#D9D9D9"/>
<path d="M59.9649 130.382C72.5971 148.129 97.2241 152.275 114.969 139.644C132.716 127.012 136.862 102.385 124.23 84.6379C111.597 66.8911 86.9718 62.7468 69.225 75.3791C51.4788 88.0082 47.3326 112.635 59.9649 130.382ZM98.6083 102.875C101.168 106.472 100.33 111.461 96.7316 114.022C93.1372 116.581 88.1461 115.741 85.5863 112.144C83.0265 108.548 83.8681 103.559 87.4625 101C91.0605 98.4394 96.0485 99.2792 98.6083 102.875Z" fill="#8B8B8B"/>
<path d="M61.8692 129.027C73.7528 145.722 96.9207 149.623 113.614 137.741C130.309 125.857 134.209 102.689 122.326 85.9943C110.443 69.3011 87.2743 65.3988 70.5793 77.2824C53.8848 89.1628 49.9869 112.334 61.8692 129.027ZM98.6085 102.876C101.168 106.473 100.33 111.462 96.7318 114.023C93.1374 116.582 88.1462 115.742 85.5865 112.145C83.0267 108.549 83.8683 103.56 87.4626 101.001C91.0607 98.4404 96.0487 99.2801 98.6085 102.876Z" fill="#D9D9D9"/>
<path d="M77.2482 118.079C83.0852 126.279 94.4672 128.195 102.666 122.36C110.866 116.523 112.78 105.142 106.943 96.9418C101.108 88.7434 89.7275 86.8258 81.5272 92.6628C73.3288 98.4985 71.4113 109.879 77.2482 118.079ZM98.6077 102.875C101.167 106.471 100.329 111.461 96.731 114.022C93.1366 116.581 88.1455 115.74 85.5857 112.144C83.0259 108.548 83.8675 103.559 87.4618 101C91.0599 98.4392 96.0479 99.279 98.6077 102.875Z" fill="#8B8B8B"/>
<path d="M79.0335 116.813C84.17 124.029 94.1867 125.715 101.401 120.58C108.617 115.443 110.307 105.427 105.169 98.2093C100.034 90.995 90.017 89.3086 82.799 94.4464C75.5847 99.5815 73.897 109.596 79.0335 116.813ZM98.6095 102.878C101.169 106.475 100.331 111.464 96.7328 114.025C93.1384 116.584 88.1473 115.744 85.5875 112.147C83.0277 108.551 83.8693 103.562 87.4637 101.003C91.0617 98.4424 96.0497 99.2822 98.6095 102.878Z" fill="#D9D9D9"/>
<path d="M60.3482 33.3593C59.9151 33.7034 59.7636 34.3927 60.0111 34.8836L62.713 40.294C61.6356 41.3281 60.6934 42.4591 59.9071 43.6775L54.0898 42.0445C53.5576 41.8969 52.9195 42.1775 52.6736 42.6722L52.1044 43.9207C51.8914 44.4306 52.0943 45.0991 52.5566 45.404L57.5972 48.7336C57.1882 50.1491 56.9418 51.6033 56.867 53.0703L51.0105 54.5685C50.4752 54.707 50.065 55.269 50.0993 55.8206L50.2284 57.1867C50.3 57.7365 50.8079 58.21 51.361 58.2435L57.393 58.6102C57.7389 60.0176 58.2558 61.3943 58.9382 62.7247L54.6155 66.9508C54.2186 67.338 54.1366 68.0358 54.4344 68.5046C54.4344 68.5046 54.4961 68.6067 54.8255 69.0695C55.1549 69.5323 55.2313 69.624 55.2313 69.624C55.5753 70.0571 56.2628 70.2099 56.7599 69.9635L62.1672 67.2611C63.1996 68.3397 64.3323 69.2806 65.5502 70.0701L63.919 75.8861C63.7701 76.4164 64.0507 77.0545 64.5467 77.3022L65.7953 77.8715C66.3052 78.0845 66.9705 77.881 67.2767 77.4205L70.6099 72.3774C72.0205 72.7871 73.4752 73.0304 74.9467 73.1075L76.4436 78.9623C76.5802 79.4988 77.1441 79.9077 77.6957 79.8734L79.0617 79.7444C79.6097 79.674 80.0845 79.1679 80.1199 78.6136L80.4804 72.5805C81.889 72.2365 83.2657 71.7196 84.5974 71.039L88.8236 75.3617C89.2076 75.758 89.9073 75.8388 90.3742 75.5422C90.3742 75.5422 90.475 75.4787 90.9396 75.148C91.4042 74.8173 91.4973 74.7428 91.4973 74.7428C91.9303 74.3987 92.0831 73.7112 91.8344 73.2185L89.1338 67.81C90.2092 66.7771 91.1521 65.643 91.9384 64.4246L97.7569 66.0594C98.2891 66.207 98.9259 65.9246 99.1718 65.4299L99.7411 64.1814C99.9541 63.6715 99.7529 63.0017 99.2901 62.7L94.2483 59.3685C94.6585 57.9548 94.9037 56.4988 94.9784 55.0318L100.835 53.5336C101.368 53.3964 101.779 52.8343 101.746 52.2815L101.617 50.9154C101.545 50.3656 101.037 49.8921 100.484 49.8586L94.455 49.4955C94.1079 48.0863 93.591 46.7097 92.9085 45.3792L97.2326 41.1549C97.6281 40.7659 97.7083 40.0694 97.4123 39.5993C97.4123 39.5993 97.3488 39.4985 97.0194 39.0357C96.69 38.5729 96.6155 38.4799 96.6155 38.4799C96.2696 38.0481 95.5839 37.894 95.0881 38.1422L89.6795 40.8429C88.6472 39.7642 87.5144 38.8233 86.2979 38.0356L87.9264 32.216C88.0753 31.6857 87.7947 31.0476 87.2987 30.7998L86.0502 30.2306C85.5384 30.0189 84.8731 30.2224 84.5688 30.6815L81.2355 35.7247C79.8249 35.315 78.3702 35.0717 76.8988 34.9946L75.4032 29.1417C75.2683 28.6038 74.7013 28.1944 74.1498 28.2287L72.7837 28.3578C72.2357 28.4281 71.7622 28.936 71.7269 29.4903L71.3651 35.5216C69.9564 35.8656 68.5792 36.3857 67.2493 37.065L63.0219 32.7404C62.6391 32.346 61.9382 32.2634 61.4713 32.5599C61.4713 32.5599 61.3704 32.6234 60.9058 32.9541C60.4412 33.2848 60.3482 33.3593 60.3482 33.3593ZM69.3698 46.8661C68.7916 47.3934 68.2919 47.9806 67.8675 48.6079C67.8395 48.6499 67.8078 48.6945 67.7798 48.7365C67.6608 48.9177 67.5537 49.1041 67.4479 49.2924C67.4178 49.3469 67.3846 49.4009 67.354 49.4585C67.2514 49.6473 67.1558 49.8421 67.0683 50.0367C67.0473 50.0847 67.0269 50.1295 67.0059 50.1775C66.505 51.3361 66.2346 52.5786 66.2046 53.8374C66.204 53.8598 66.2035 53.8822 66.2022 53.8997C66.2017 54.1508 66.205 54.3993 66.2189 54.6512C66.2189 54.6512 66.2192 54.6593 66.2218 54.6629C66.3016 55.9676 66.6472 57.2622 67.2679 58.4712C67.2679 58.4712 67.2679 58.4712 67.2705 58.4748L62.2805 62.0268C58.381 55.3715 59.8771 46.8296 65.8322 41.8962L69.3698 46.8661ZM73.988 51.3369C75.488 50.2692 77.5671 50.6193 78.6335 52.1174C79.7011 53.6173 79.3511 55.6965 77.8511 56.7641C76.3512 57.8318 74.2721 57.4817 73.2044 55.9818C72.1381 54.4837 72.4881 52.4046 73.988 51.3369ZM63.9184 64.3279L68.9085 60.776L68.9098 60.7778C69.852 61.7607 70.9621 62.5111 72.1655 63.0132C72.1681 63.0168 72.1744 63.0179 72.177 63.0216C72.4123 63.1159 72.6442 63.2016 72.8816 63.2835C72.8985 63.2879 72.9199 63.2948 72.94 63.2997C74.1392 63.6836 75.4017 63.8349 76.6604 63.741C76.7127 63.7369 76.7617 63.7323 76.8139 63.7282C77.0264 63.7092 77.2418 63.6827 77.4538 63.6475C77.5183 63.6375 77.5801 63.6237 77.6428 63.6149C77.8553 63.5767 78.0653 63.5347 78.2755 63.4816C78.3256 63.4707 78.3781 63.4554 78.4243 63.439C79.156 63.2434 79.8744 62.9635 80.562 62.5898L84.0983 67.5579C77.4864 71.5725 68.9282 70.1929 63.9184 64.3279ZM82.8215 60.8933C82.9998 60.7141 83.171 60.5288 83.3316 60.3401C83.3436 60.326 83.3575 60.3106 83.3664 60.296C84.1857 59.3214 84.7915 58.2095 85.1698 57.0335C85.1743 57.0165 85.1801 57.0014 85.1827 56.9858C85.5563 55.7993 85.7043 54.5475 85.61 53.3C85.61 53.3 85.6111 53.2937 85.6085 53.2901C85.5135 52.0376 85.1694 50.7916 84.5705 49.6249L84.571 49.6218L89.561 46.0698C93.379 52.5875 92.0329 60.9179 86.3857 65.8967L82.8233 60.892L82.8215 60.8933ZM87.9252 43.7755L82.9351 47.3274C82.9325 47.3238 82.9307 47.3251 82.9307 47.3251C82.0245 46.3772 80.961 45.6459 79.8074 45.1442C79.8048 45.1405 79.803 45.1419 79.7986 45.1395C78.6525 44.6407 77.4213 44.3706 76.1761 44.3364C76.1604 44.3338 76.1455 44.3361 76.1281 44.3348C74.893 44.3071 73.644 44.5155 72.4536 44.9687C72.4364 44.9755 72.416 44.9817 72.4019 44.989C72.1697 45.0771 71.9373 45.1764 71.7108 45.288L68.1484 40.2833C74.7055 36.575 83.017 38.0339 87.9252 43.7755Z" fill="black"/>
<path d="M69.2417 47.6612C65.9956 50.6083 65.1444 55.3867 67.1374 59.2707L60.4462 64.0335L62.0842 66.3346L68.7753 61.5718C71.7921 64.7297 76.5845 65.4882 80.4365 63.3885L85.3152 70.2425L87.6145 68.6058L82.6915 61.6897C85.6429 58.7235 86.3593 54.1623 84.4423 50.4199L91.5268 45.3772L89.8888 43.0761L82.8044 48.1188C79.8991 45.0827 75.3543 44.2692 71.5826 46.083L66.6597 39.1669L64.3604 40.8035L69.2417 47.6612ZM78.5035 52.9138C79.5711 54.4137 79.2211 56.4928 77.7212 57.5605C76.2249 58.6255 74.1439 58.2768 73.0763 56.7769C72.0099 55.2788 72.3618 53.1983 73.8581 52.1333C75.3567 51.0638 77.4358 51.4138 78.5035 52.9138Z" fill="#8B8B8B"/>
<path d="M60.2162 34.1525C59.7845 34.4984 59.6354 35.1833 59.8786 35.6799L62.581 41.0872C61.5037 42.1213 60.5596 43.2536 59.7733 44.472L53.9561 42.839C53.4257 42.6901 52.787 42.9738 52.5411 43.4685L51.9706 44.7152C51.7589 45.2269 51.9637 45.8942 52.4215 46.1967L57.4647 49.5299C57.0531 50.9418 56.8098 52.3965 56.7346 53.8666L50.878 55.3648C50.3432 55.5002 49.9344 56.0641 49.9669 56.617L50.0977 57.9817C50.1663 58.531 50.6755 59.0063 51.2285 59.0399L57.2598 59.4016C57.6038 60.8103 58.1238 62.1874 58.8044 63.5192L54.4804 67.7435C54.0854 68.1294 54.0047 68.829 54.2981 69.2954C54.2981 69.2954 54.3647 69.3968 54.6941 69.8596C55.0248 70.3242 55.0975 70.4185 55.0975 70.4185C55.4434 70.8503 56.1309 71.0031 56.6249 70.7562L62.0335 68.0556C63.0676 69.1329 64.1973 70.0733 65.417 70.8615L63.7839 76.6787C63.6364 77.2109 63.9169 77.849 64.4135 78.0936L65.6602 78.6642C66.1706 78.8741 66.8404 78.6729 67.1416 78.2132L70.4749 73.1701C71.8873 73.5785 73.3415 73.8249 74.8116 73.9002L76.3085 79.7549C76.447 80.2902 77.0091 80.7004 77.5606 80.6661L78.928 80.5389C79.4746 80.4667 79.9513 79.9593 79.9848 79.4062L80.3466 73.375C81.754 73.0291 83.1324 72.5109 84.4642 71.8303L88.6885 76.1543C89.0762 76.548 89.7753 76.6319 90.2422 76.3354C90.2422 76.3354 90.3431 76.2719 90.8059 75.9425C91.2705 75.6118 91.3635 75.5373 91.3635 75.5373C91.7966 75.1932 91.948 74.5039 91.7012 74.0099L89.0005 68.6013C90.0779 67.5672 91.017 66.4357 91.8064 65.2178L97.6237 66.8508C98.1559 66.9984 98.7927 66.716 99.0417 66.2218L99.6078 64.9728C99.819 64.4642 99.6192 63.7961 99.1569 63.4913L94.115 60.1599C94.5235 58.7475 94.7686 57.2915 94.8451 55.8232L100.702 54.325C101.238 54.1883 101.644 53.6239 101.611 53.0742L101.484 51.7068C101.412 51.1601 100.904 50.6835 100.351 50.6499L94.32 50.2882C93.9728 48.879 93.4572 47.5042 92.7766 46.1725L97.1011 41.945C97.4943 41.5604 97.5751 40.8608 97.2804 40.3926C97.2804 40.3926 97.2169 40.2917 96.8862 39.8271C96.5568 39.3643 96.4809 39.2694 96.4809 39.2694C96.1363 38.8395 95.4501 38.6886 94.9567 38.9323L89.5476 41.636C88.5134 40.5587 87.3793 39.616 86.1628 38.8283L87.7958 33.0111C87.9447 32.4807 87.6609 31.8421 87.168 31.5949L85.9177 31.027C85.4078 30.8139 84.7411 31.0156 84.4381 31.4766L81.1049 36.5198C79.6911 36.1095 78.2351 35.8643 76.7681 35.7896L75.2699 29.933C75.1346 29.3983 74.5688 28.9907 74.0178 29.0219L72.6549 29.1515C72.1051 29.2231 71.6303 29.7292 71.5949 30.2835L71.2331 36.3148C69.8226 36.6601 68.4492 37.1776 67.1174 37.8582L62.8912 33.5355C62.5053 33.1405 61.8057 33.0597 61.3375 33.3544C61.3375 33.3544 61.2367 33.4179 60.7721 33.7486C60.3093 34.078 60.2162 34.1525 60.2162 34.1525ZM88.6694 45.6758C93.733 52.7895 92.0696 62.6604 84.9559 67.724C77.844 72.7862 67.9726 71.1259 62.909 64.0122C57.8454 56.8985 59.5089 47.0276 66.6208 41.9653C73.7326 36.9031 83.6059 38.5621 88.6694 45.6758Z" fill="#D9D9D9"/>
<path d="M62.1703 64.5348C67.5229 72.0546 77.9579 73.8098 85.4759 68.4585C92.9957 63.1059 94.754 52.6714 89.4014 45.1516C84.0514 37.6355 73.6137 35.8766 66.0939 41.2292C58.5747 46.5787 56.819 57.0169 62.1703 64.5348ZM88.6679 45.6737C93.7314 52.7874 92.068 62.6583 84.9543 67.7219C77.8424 72.7842 67.971 71.1238 62.9074 64.0101C57.8439 56.8964 59.5073 47.0255 66.6192 41.9633C73.7311 36.901 83.6043 38.56 88.6679 45.6737Z" fill="#8B8B8B"/>
<path d="M67.867 60.4875C70.984 64.8666 77.0568 65.8906 81.434 62.7748C85.8131 59.6578 86.8358 53.5833 83.7187 49.2042C80.603 44.8269 74.5297 43.8061 70.1507 46.9231C65.7734 50.0389 64.7512 56.1103 67.867 60.4875ZM78.5055 52.915C79.5732 54.4149 79.2232 56.494 77.7232 57.5617C76.227 58.6267 74.146 58.278 73.0783 56.7781C72.012 55.28 72.3639 53.1995 73.8601 52.1345C75.3588 51.065 77.4379 51.415 78.5055 52.915Z" fill="#8B8B8B"/>
<path d="M68.5998 59.9617C71.4278 63.9347 76.9388 64.8625 80.9081 62.0371C84.8811 59.2091 85.8089 53.6982 82.9809 49.7252C80.1555 45.7558 74.6446 44.828 70.6716 47.656C66.7022 50.4814 65.7744 55.9924 68.5998 59.9617ZM78.503 52.9125C79.5707 54.4125 79.2207 56.4916 77.7207 57.5592C76.2245 58.6243 74.1435 58.2756 73.0759 56.7756C72.0095 55.2775 72.3614 53.1971 73.8576 52.132C75.3563 51.0626 77.4354 51.4126 78.503 52.9125Z" fill="#D9D9D9"/>
<path d="M130.046 93.5834L134.532 96.5169C134.141 99.077 134.378 101.733 135.266 104.243L131.416 107.967C131.928 109.028 132.527 110.059 133.234 111.052C133.939 112.042 134.719 112.948 135.553 113.779L140.333 111.36C142.411 113.025 144.844 114.113 147.392 114.584L148.694 119.781C151.061 119.962 153.46 119.748 155.791 119.111L156.088 113.749C157.281 113.283 158.443 112.682 159.535 111.904C160.627 111.127 161.574 110.227 162.406 109.252L167.569 110.728C168.933 108.734 169.925 106.534 170.527 104.24L166.043 101.308C166.432 98.7465 166.198 96.094 165.308 93.5824L169.157 89.8592C168.646 88.7977 168.046 87.7644 167.341 86.7748C166.634 85.7816 165.856 84.8777 165.02 84.0479L160.242 86.4651C158.162 84.8011 155.729 83.7105 153.182 83.2415L151.879 78.0424C149.516 77.8619 147.113 78.0756 144.783 78.712L144.485 84.0747C143.291 84.5417 142.13 85.1417 141.038 85.919C139.946 86.6963 138.998 87.5976 138.167 88.5719L133.003 87.097C131.64 89.0894 130.651 91.2896 130.046 93.5834ZM155.821 94.975C157.996 98.0297 157.28 102.271 154.225 104.445C151.171 106.619 146.928 105.905 144.755 102.852C142.578 99.7938 143.295 95.5546 146.349 93.3803C149.404 91.2059 153.644 91.9166 155.821 94.975Z" fill="black"/>
<path d="M129.797 94.249L134.283 97.1794C133.895 99.7431 134.128 102.397 135.019 104.907L131.169 108.632C131.679 109.69 132.281 110.725 132.986 111.715C133.691 112.706 134.471 113.612 135.304 114.441L140.084 112.023C142.163 113.69 144.595 114.775 147.145 115.248L148.444 120.447C150.813 120.626 153.213 120.412 155.546 119.776L155.842 114.415C157.035 113.946 158.195 113.346 159.287 112.569C160.379 111.791 161.326 110.891 162.16 109.918L167.323 111.394C168.688 109.397 169.677 107.199 170.279 104.904L165.795 101.973C166.183 99.4089 165.951 96.7551 165.059 94.2449L168.91 90.5203C168.399 89.4619 167.798 88.4286 167.093 87.4372C166.388 86.4476 165.607 85.5401 164.774 84.7108L159.995 87.1293C157.914 85.4654 155.483 84.3766 152.934 83.9039L151.632 78.7067C149.267 78.5243 146.867 78.7417 144.532 79.3757L144.236 84.7371C143.043 85.206 141.884 85.8078 140.792 86.5851C139.7 87.3624 138.752 88.2606 137.918 89.2343L132.754 87.7595C131.392 89.7568 130.401 91.9534 129.797 94.249ZM155.572 95.6374C157.748 98.6939 157.034 102.934 153.978 105.109C150.921 107.285 146.68 106.569 144.506 103.515C142.331 100.46 143.044 96.2184 146.1 94.0427C149.155 91.8683 153.398 92.5826 155.572 95.6374Z" fill="#D9D9D9"/>
<path d="M140.279 106.522C144.113 111.909 151.592 113.17 156.981 109.334C162.368 105.499 163.627 98.0188 159.793 92.6319C155.958 87.2449 148.478 85.9855 143.091 89.82C137.702 93.6557 136.444 101.135 140.279 106.522ZM155.571 95.6369C157.747 98.6935 157.033 102.933 153.976 105.109C150.92 107.285 146.679 106.569 144.504 103.514C142.33 100.459 143.042 96.218 146.099 94.0423C149.154 91.8679 153.397 92.5822 155.571 95.6369Z" fill="#8B8B8B"/>
<path d="M141.432 105.705C144.814 110.457 151.412 111.568 156.164 108.185C160.916 104.803 162.027 98.2053 158.644 93.453C155.262 88.7008 148.666 87.5919 143.913 90.9746C139.163 94.3559 138.049 100.953 141.432 105.705ZM155.573 95.6391C157.749 98.6957 157.035 102.935 153.979 105.111C150.922 107.287 146.681 106.571 144.507 103.516C142.332 100.462 143.045 96.2202 146.101 94.0445C149.156 91.8701 153.399 92.5844 155.573 95.6391Z" fill="#D9D9D9"/>
<path d="M130.439 113.817C130.11 114.029 129.78 114.247 129.46 114.475C129.14 114.703 128.824 114.945 128.518 115.184L130.599 118.673C129.921 119.23 129.274 119.808 128.682 120.436L125.365 118.115C124.835 118.702 124.33 119.309 123.86 119.934L126.772 122.763C126.262 123.471 125.806 124.209 125.392 124.967L121.581 123.581C121.219 124.285 120.892 125.003 120.599 125.73L124.123 127.695C123.816 128.511 123.58 129.352 123.377 130.193L119.335 129.843C119.167 130.613 119.038 131.388 118.943 132.172L122.877 133.162C122.794 134.028 122.743 134.897 122.762 135.768L118.791 136.47C118.831 137.254 118.906 138.041 119.016 138.823L123.07 138.76C123.212 139.615 123.405 140.458 123.649 141.296L119.971 143.013C120.211 143.757 120.492 144.497 120.802 145.227L124.693 144.122C125.054 144.904 125.473 145.667 125.927 146.413L122.819 149.028C123.032 149.358 123.249 149.686 123.478 150.008C123.707 150.33 123.947 150.644 124.187 150.95L127.674 148.868C128.233 149.548 128.815 150.192 129.435 150.784L127.118 154.1C127.705 154.631 128.311 155.137 128.935 155.607L131.763 152.696C132.476 153.202 133.212 153.663 133.97 154.074L132.583 157.886C133.289 158.246 134.004 158.57 134.732 158.864L136.696 155.344C137.512 155.646 138.35 155.883 139.195 156.087L138.843 160.13C139.614 160.295 140.39 160.429 141.173 160.522L142.164 156.587C143.027 156.672 143.896 156.72 144.768 156.698L145.47 160.671C146.256 160.636 147.041 160.559 147.823 160.449L147.761 156.392C148.615 156.25 149.459 156.06 150.297 155.813L152.017 159.492C152.761 159.251 153.5 158.973 154.227 158.663L153.122 154.772C153.906 154.413 154.669 153.994 155.414 153.535L158.03 156.645C158.359 156.433 158.687 156.213 159.007 155.985C159.327 155.757 159.645 155.518 159.951 155.278L157.867 151.789C158.55 151.231 159.194 150.649 159.786 150.029L163.102 152.345C163.635 151.762 164.138 151.156 164.607 150.53L161.695 147.7C162.201 146.99 162.66 146.253 163.071 145.494L166.885 146.88C167.247 146.176 167.574 145.459 167.865 144.73L164.344 142.764C164.648 141.949 164.885 141.113 165.091 140.267L169.132 140.621C169.3 139.85 169.43 139.072 169.524 138.291L165.589 137.3C165.673 136.435 165.721 135.566 165.705 134.695L169.673 133.993C169.636 133.209 169.564 132.423 169.452 131.642L165.397 131.704C165.256 130.851 165.063 130.007 164.82 129.166L168.495 127.448C168.255 126.704 167.977 125.965 167.666 125.238L163.774 126.341C163.418 125.561 162.999 124.799 162.542 124.049L165.651 121.436C165.439 121.107 165.221 120.778 164.993 120.457C164.763 120.134 164.524 119.821 164.283 119.514L160.795 121.594C160.239 120.918 159.657 120.274 159.032 119.679L161.35 116.365C160.765 115.83 160.157 115.324 159.531 114.854L156.706 117.766C155.992 117.263 155.257 116.803 154.497 116.39L155.884 112.58C155.182 112.218 154.462 111.892 153.732 111.598L151.771 115.119C150.952 114.817 150.116 114.58 149.27 114.375L149.624 110.334C148.854 110.165 148.077 110.035 147.294 109.941L146.304 113.874C145.438 113.792 144.567 113.741 143.699 113.76L142.994 109.789C142.21 109.826 141.424 109.903 140.643 110.013L140.702 114.069C139.85 114.212 139.004 114.401 138.17 114.65L136.45 110.972C135.706 111.212 134.969 111.489 134.24 111.798L135.346 115.693C134.564 116.046 133.803 116.469 133.052 116.927L130.439 113.817ZM141.289 137.33C140.131 135.704 140.511 133.447 142.138 132.289C143.764 131.132 146.021 131.515 147.177 133.139C148.335 134.765 147.953 137.021 146.329 138.177C144.704 139.337 142.446 138.957 141.289 137.33ZM136.604 140.665C137.563 142.011 137.247 143.884 135.899 144.843C134.551 145.803 132.679 145.488 131.72 144.141C130.76 142.791 131.075 140.919 132.423 139.959C133.771 139 135.643 139.315 136.604 140.665ZM142.426 147.826C142.267 146.178 143.478 144.715 145.126 144.56C146.774 144.401 148.235 145.609 148.39 147.257C148.549 148.905 147.341 150.366 145.694 150.524C144.046 150.683 142.583 149.475 142.426 147.826ZM154.235 143.097C152.728 142.409 152.067 140.633 152.754 139.127C153.443 137.622 155.22 136.958 156.727 137.647C158.231 138.334 158.891 140.11 158.205 141.616C157.52 143.12 155.742 143.785 154.235 143.097ZM151.867 129.801C150.906 128.451 151.223 126.577 152.57 125.619C153.918 124.659 155.79 124.974 156.751 126.324C157.709 127.671 157.394 129.543 156.046 130.503C154.698 131.462 152.827 131.149 151.867 129.801ZM146.045 122.64C146.205 124.29 144.993 125.75 143.347 125.908C141.7 126.064 140.235 124.854 140.081 123.209C139.923 121.563 141.13 120.098 142.779 119.941C144.425 119.786 145.889 120.992 146.045 122.64ZM134.234 127.368C135.741 128.057 136.402 129.834 135.716 131.34C135.026 132.845 133.25 133.509 131.745 132.819C130.239 132.129 129.577 130.355 130.265 128.848C130.951 127.34 132.731 126.682 134.234 127.368Z" fill="black"/>
<path d="M130.302 114.19C129.973 114.402 129.645 114.619 129.323 114.848C129.001 115.077 128.687 115.317 128.381 115.557L130.463 119.044C129.782 119.601 129.138 120.183 128.545 120.806L125.23 118.487C124.698 119.072 124.195 119.681 123.724 120.305L126.634 123.131C126.126 123.843 125.669 124.582 125.258 125.337L121.444 123.951C121.082 124.655 120.755 125.373 120.464 126.101L123.987 128.066C123.684 128.88 123.448 129.72 123.243 130.563L119.202 130.213C119.033 130.983 118.903 131.76 118.808 132.541L122.743 133.532C122.659 134.397 122.61 135.264 122.63 136.137L118.659 136.839C118.698 137.624 118.771 138.413 118.881 139.191L122.937 139.132C123.079 139.985 123.27 140.827 123.515 141.667L119.838 143.385C120.077 144.127 120.357 144.865 120.669 145.597L124.559 144.492C124.917 145.274 125.336 146.037 125.793 146.787L122.683 149.399C122.897 149.73 123.112 150.056 123.343 150.38C123.572 150.702 123.809 151.012 124.052 151.322L127.539 149.24C128.097 149.92 128.679 150.563 129.301 151.154L126.985 154.471C127.57 155.002 128.174 155.506 128.802 155.977L131.629 153.066C132.343 153.573 133.077 154.031 133.837 154.444L132.451 158.255C133.153 158.618 133.871 158.942 134.6 159.233L136.564 155.713C137.38 156.015 138.217 156.254 139.062 156.457L138.71 160.5C139.478 160.666 140.255 160.797 141.039 160.892L142.03 156.957C142.894 157.039 143.761 157.092 144.632 157.07L145.335 161.042C146.119 161.005 146.906 160.93 147.688 160.82L147.627 156.762C148.478 156.622 149.323 156.431 150.162 156.185L151.88 159.861C152.624 159.621 153.364 159.343 154.092 159.034L152.986 155.142C153.769 154.786 154.531 154.367 155.28 153.908L157.894 157.019C158.223 156.808 158.551 156.588 158.871 156.36C159.195 156.129 159.509 155.892 159.815 155.652L157.731 152.164C158.412 151.607 159.054 151.026 159.644 150.402L162.961 152.721C163.495 152.134 163.998 151.528 164.469 150.901L161.556 148.074C162.064 147.363 162.523 146.625 162.934 145.867L166.746 147.254C167.108 146.55 167.434 145.833 167.728 145.103L164.204 143.138C164.509 142.323 164.745 141.485 164.952 140.641L168.993 140.995C169.16 140.223 169.29 139.446 169.385 138.665L165.45 137.674C165.534 136.809 165.584 135.939 165.566 135.069L169.537 134.365C169.499 133.582 169.426 132.796 169.315 132.015L165.26 132.076C165.116 131.223 164.928 130.378 164.677 129.542L168.356 127.822C168.114 127.077 167.836 126.341 167.529 125.611L163.635 126.715C163.279 125.936 162.86 125.173 162.403 124.423L165.512 121.81C165.298 121.478 165.082 121.152 164.854 120.832C164.622 120.506 164.385 120.196 164.144 119.888L160.657 121.97C160.098 121.29 159.516 120.646 158.893 120.053L161.213 116.738C160.623 116.204 160.018 115.698 159.393 115.23L156.565 118.142C155.857 117.631 155.119 117.175 154.363 116.763L155.747 112.95C155.046 112.589 154.327 112.263 153.599 111.969L151.634 115.492C150.816 115.187 149.978 114.951 149.133 114.748L149.485 110.705C148.716 110.538 147.94 110.407 147.157 110.314L146.167 114.246C145.301 114.165 144.431 114.112 143.561 114.133L142.859 110.16C142.073 110.199 141.286 110.274 140.504 110.384L140.567 114.44C139.715 114.584 138.868 114.773 138.03 115.019L136.314 111.343C135.569 111.585 134.83 111.86 134.101 112.172L135.205 116.065C134.426 116.422 133.665 116.84 132.916 117.298L130.302 114.19ZM145.554 150.896C143.906 151.055 142.442 149.846 142.285 148.201C142.13 146.551 143.339 145.089 144.987 144.931C146.631 144.774 148.096 145.984 148.251 147.631C148.411 149.276 147.201 150.74 145.554 150.896ZM156.59 138.019C158.093 138.707 158.754 140.483 158.069 141.988C157.38 143.493 155.603 144.156 154.097 143.47C152.592 142.78 151.931 141.002 152.617 139.5C153.304 137.991 155.083 137.331 156.59 138.019ZM131.583 144.514C130.622 143.164 130.938 141.292 132.286 140.332C133.634 139.373 135.506 139.688 136.467 141.038C137.425 142.384 137.11 144.256 135.762 145.216C134.412 146.177 132.541 145.86 131.583 144.514ZM156.612 126.699C157.57 128.045 157.255 129.917 155.907 130.877C154.559 131.836 152.686 131.521 151.728 130.175C150.767 128.825 151.082 126.953 152.43 125.993C153.779 125.033 155.651 125.349 156.612 126.699ZM147.043 133.509C148.201 135.136 147.818 137.393 146.193 138.549C144.565 139.708 142.312 139.325 141.155 137.701C139.997 136.073 140.375 133.816 142.001 132.659C143.625 131.503 145.885 131.881 147.043 133.509ZM142.638 120.313C144.288 120.156 145.75 121.367 145.907 123.011C146.062 124.658 144.854 126.125 143.207 126.28C141.559 126.436 140.097 125.225 139.939 123.579C139.784 121.932 140.989 120.47 142.638 120.313ZM134.095 127.739C135.602 128.428 136.264 130.205 135.578 131.708C134.889 133.215 133.11 133.875 131.606 133.19C130.099 132.502 129.44 130.725 130.127 129.219C130.813 127.713 132.591 127.051 134.095 127.739Z" fill="#D9D9D9"/>
<path d="M129.563 145.954C135.277 153.982 146.415 155.854 154.442 150.141C162.468 144.427 164.347 133.287 158.634 125.261C152.919 117.232 141.777 115.358 133.75 121.071C125.724 126.784 123.848 137.925 129.563 145.954ZM131.605 133.192C130.098 132.504 129.439 130.727 130.126 129.221C130.814 127.714 132.592 127.052 134.094 127.741C135.601 128.43 136.263 130.207 135.577 131.71C134.891 133.217 133.11 133.879 131.605 133.192ZM131.584 144.515C130.623 143.165 130.938 141.293 132.286 140.333C133.634 139.373 135.507 139.689 136.468 141.039C137.426 142.385 137.111 144.257 135.763 145.217C134.413 146.178 132.542 145.861 131.584 144.515ZM145.555 150.897C143.907 151.056 142.442 149.846 142.286 148.202C142.131 146.551 143.34 145.09 144.988 144.931C146.632 144.775 148.096 145.984 148.252 147.632C148.411 149.277 147.202 150.741 145.555 150.897ZM156.59 138.02C158.094 138.708 158.755 140.484 158.07 141.988C157.38 143.493 155.604 144.157 154.098 143.471C152.593 142.781 151.931 141.003 152.617 139.501C153.304 137.992 155.083 137.332 156.59 138.02ZM156.613 126.699C157.571 128.046 157.256 129.918 155.908 130.878C154.559 131.837 152.687 131.522 151.729 130.176C150.768 128.826 151.083 126.953 152.431 125.994C153.779 125.034 155.652 125.349 156.613 126.699ZM147.044 133.51C148.202 135.136 147.818 137.393 146.194 138.55C144.566 139.708 142.312 139.326 141.156 137.701C139.997 136.073 140.375 133.817 142.002 132.66C143.626 131.503 145.885 131.882 147.044 133.51ZM142.639 120.314C144.288 120.157 145.751 121.367 145.907 123.012C146.063 124.659 144.855 126.125 143.207 126.281C141.56 126.437 140.097 125.226 139.94 123.58C139.784 121.933 140.99 120.471 142.639 120.314Z" fill="#8B8B8B"/>
<path d="M130.424 145.339C135.799 152.89 146.283 154.652 153.832 149.278C161.384 143.902 163.149 133.422 157.774 125.871C152.398 118.318 141.916 116.552 134.364 121.928C126.813 127.303 125.048 137.786 130.424 145.339ZM131.605 133.191C130.098 132.502 129.439 130.725 130.126 129.219C130.814 127.712 132.592 127.051 134.094 127.74C135.601 128.428 136.263 130.206 135.577 131.708C134.891 133.216 133.11 133.877 131.605 133.191ZM131.584 144.513C130.623 143.163 130.938 141.291 132.286 140.331C133.634 139.372 135.507 139.687 136.468 141.037C137.426 142.383 137.111 144.256 135.763 145.215C134.413 146.176 132.542 145.86 131.584 144.513ZM145.555 150.895C143.907 151.054 142.442 149.845 142.286 148.201C142.131 146.55 143.34 145.089 144.988 144.93C146.632 144.774 148.096 145.983 148.252 147.63C148.411 149.275 147.202 150.74 145.555 150.895ZM156.59 138.019C158.094 138.707 158.755 140.482 158.07 141.987C157.38 143.492 155.604 144.156 154.098 143.469C152.593 142.779 151.931 141.002 152.617 139.499C153.304 137.99 155.083 137.33 156.59 138.019ZM156.612 126.698C157.571 128.044 157.256 129.917 155.907 130.876C154.559 131.836 152.687 131.521 151.729 130.174C150.768 128.824 151.083 126.952 152.431 125.992C153.779 125.033 155.652 125.348 156.612 126.698ZM147.044 133.509C148.202 135.135 147.818 137.392 146.194 138.548C144.566 139.707 142.312 139.324 141.156 137.7C139.997 136.072 140.375 133.816 142.001 132.658C143.626 131.502 145.885 131.881 147.044 133.509ZM142.639 120.312C144.288 120.155 145.751 121.366 145.907 123.01C146.063 124.658 144.855 126.124 143.207 126.28C141.56 126.435 140.097 125.225 139.94 123.579C139.784 121.931 140.99 120.469 142.639 120.312Z" fill="#D9D9D9"/>
<path d="M137.381 140.386C140.02 144.094 145.168 144.961 148.876 142.321C152.585 139.681 153.452 134.533 150.813 130.825C148.172 127.116 143.024 126.249 139.315 128.89C135.607 131.529 134.74 136.677 137.381 140.386ZM147.043 133.509C148.2 135.135 147.817 137.392 146.193 138.548C144.565 139.707 142.311 139.324 141.155 137.7C139.996 136.072 140.374 133.816 142 132.658C143.624 131.502 145.884 131.881 147.043 133.509Z" fill="#8B8B8B"/>
<path d="M138.19 139.814C140.512 143.076 145.039 143.841 148.304 141.517C151.568 139.194 152.332 134.662 150.011 131.4C147.687 128.135 143.154 127.374 139.891 129.697C136.626 132.021 135.866 136.549 138.19 139.814ZM147.046 133.511C148.203 135.137 147.82 137.394 146.196 138.55C144.568 139.709 142.314 139.327 141.157 137.702C139.999 136.074 140.377 133.818 142.003 132.66C143.627 131.504 145.887 131.883 147.046 133.511Z" fill="#D9D9D9"/>
</svg>
