<svg width="167" height="171" viewBox="0 0 167 171" fill="none" xmlns="http://www.w3.org/2000/svg">
<path d="M166.436 114.511C166.47 113.774 166.497 113.033 166.497 112.289C166.497 111.546 166.47 110.808 166.436 110.071L158.819 109.46C158.707 107.813 158.517 106.19 158.212 104.6L165.384 102.049C165.067 100.595 164.689 99.159 164.239 97.7564L156.73 99.1378C156.195 97.5841 155.564 96.0789 154.85 94.6189L161.135 90.2844C160.448 88.9635 159.705 87.6819 158.91 86.4365L152.054 89.695C151.139 88.3378 150.111 87.0592 149.041 85.829L153.992 80.0164C152.991 78.9222 151.943 77.8763 150.845 76.8758L145.036 81.8239C143.803 80.7509 142.527 79.7232 141.17 78.8073L144.428 71.9489C143.18 71.1509 141.898 70.4073 140.58 69.7272L136.246 76.0113C134.783 75.298 133.281 74.6663 131.73 74.1312L133.105 66.6229C131.706 66.1726 130.267 65.7947 128.813 65.4773L126.262 72.6501C124.675 72.3448 123.049 72.1544 121.402 72.0396L120.791 64.4224C120.053 64.3892 119.316 64.368 118.572 64.368C117.823 64.368 117.085 64.3892 116.348 64.4224L115.74 72.0396C114.093 72.1544 112.467 72.3448 110.88 72.6501L108.325 65.4773C106.875 65.7947 105.439 66.1726 104.033 66.6199L105.415 74.1312C103.858 74.6663 102.356 75.298 100.893 76.0113L96.5582 69.7242C95.2403 70.4073 93.9617 71.1509 92.7164 71.9489L95.9688 78.8073C94.6116 79.7232 93.336 80.7509 92.1028 81.8239L86.2872 76.8698C85.193 77.8703 84.1441 78.9161 83.1496 80.0103L88.0977 85.8229C87.0247 87.0532 86.003 88.3318 85.0811 89.6889L78.2257 86.4305C77.4277 87.6758 76.6841 88.9574 76.001 90.2784L82.2882 94.6129C81.5748 96.0728 80.9431 97.5781 80.4081 99.1317L72.8967 97.7504C72.4524 99.1559 72.0715 100.589 71.7511 102.043L78.9239 104.594C78.6156 106.184 78.4282 107.807 78.3164 109.454L70.6993 110.065C70.666 110.802 70.6448 111.54 70.6448 112.283C70.6448 113.027 70.666 113.771 70.6993 114.505L78.3164 115.116C78.4282 116.763 78.6186 118.392 78.9239 119.976L71.7511 122.53C72.0685 123.984 72.4524 125.42 72.8967 126.822L80.4081 125.444C80.9431 126.995 81.5748 128.497 82.2882 129.96L76.001 134.294C76.6872 135.615 77.4307 136.897 78.2257 138.139L85.0811 134.884C86.003 136.244 87.0247 137.517 88.0977 138.75L83.1496 144.562C84.1441 145.657 85.193 146.709 86.2872 147.706L92.0998 142.755C93.333 143.828 94.6086 144.853 95.9657 145.775L92.7133 152.627C93.9557 153.428 95.2403 154.172 96.5552 154.852L100.89 148.571C102.353 149.281 103.855 149.913 105.412 150.451L104.03 157.959C105.436 158.406 106.869 158.784 108.322 159.102L110.877 151.932C112.463 152.237 114.09 152.424 115.737 152.542L116.345 160.156C117.082 160.187 117.82 160.214 118.569 160.214C119.313 160.214 120.05 160.19 120.788 160.156L121.399 152.542C123.046 152.427 124.672 152.237 126.259 151.932L128.81 159.102C130.264 158.784 131.703 158.406 133.102 157.959L131.727 150.451C133.278 149.913 134.78 149.281 136.243 148.571L140.577 154.852C141.898 154.169 143.177 153.425 144.425 152.627L141.167 145.775C142.524 144.853 143.8 143.828 145.033 142.755L150.842 147.706C151.94 146.709 152.988 145.66 153.989 144.562L149.038 138.75C150.111 137.517 151.136 136.241 152.051 134.884L158.907 138.139C159.705 136.897 160.448 135.615 161.132 134.294L154.847 129.96C155.561 128.497 156.192 126.995 156.728 125.444L164.236 126.822C164.683 125.42 165.061 123.984 165.381 122.53L158.209 119.976C158.517 118.392 158.704 116.763 158.816 115.116L166.436 114.511ZM118.569 105.488C122.323 105.488 125.37 108.532 125.37 112.289C125.37 116.047 122.323 119.09 118.569 119.09C114.815 119.09 111.768 116.047 111.768 112.289C111.768 108.532 114.815 105.488 118.569 105.488ZM118.566 94.6673C115.453 94.6673 112.932 92.1403 112.932 89.03C112.932 85.9166 115.453 83.3927 118.566 83.3927C121.68 83.3927 124.204 85.9166 124.204 89.03C124.207 92.1433 121.683 94.6673 118.566 94.6673ZM101.246 95.7796C103.943 97.3363 104.865 100.785 103.311 103.481C101.751 106.178 98.3053 107.103 95.606 105.543C92.9128 103.989 91.9879 100.54 93.5446 97.8441C95.1013 95.1479 98.5501 94.2229 101.246 95.7796ZM95.6121 119.039C98.3053 117.479 101.751 118.407 103.311 121.101C104.868 123.8 103.943 127.246 101.246 128.805C98.5501 130.362 95.1043 129.437 93.5446 126.741C91.9879 124.042 92.9128 120.593 95.6121 119.039ZM118.566 129.912C121.68 129.912 124.204 132.439 124.204 135.549C124.204 138.662 121.68 141.186 118.566 141.186C115.453 141.186 112.932 138.665 112.932 135.549C112.932 132.436 115.453 129.912 118.566 129.912ZM135.892 128.799C133.193 127.243 132.274 123.797 133.828 121.101C135.384 118.404 138.83 117.479 141.53 119.036C144.229 120.59 145.148 124.039 143.591 126.735C142.037 129.431 138.585 130.359 135.892 128.799ZM141.53 105.543C138.833 107.103 135.384 106.178 133.828 103.478C132.271 100.782 133.193 97.3363 135.892 95.7766C138.591 94.2199 142.037 95.1449 143.594 97.8411C145.148 100.54 144.229 103.986 141.53 105.543Z" fill="black"/>
<path d="M166.019 113.891C166.055 113.157 166.076 112.416 166.076 111.67C166.076 110.926 166.055 110.186 166.019 109.448L158.402 108.84C158.29 107.19 158.099 105.567 157.794 103.98L164.967 101.426C164.65 99.9719 164.272 98.5362 163.821 97.1337L156.313 98.512C155.775 96.9583 155.143 95.4561 154.43 93.9961L160.717 89.6616C160.034 88.3407 159.29 87.0591 158.492 85.8138L151.637 89.0722C150.718 87.715 149.693 86.4394 148.62 85.2032L153.572 79.3936C152.571 78.2994 151.525 77.2505 150.428 76.2531L144.618 81.1981C143.385 80.1281 142.11 79.1004 140.752 78.1815L144.008 71.3291C142.765 70.5311 141.481 69.7876 140.163 69.1044L135.828 75.3855C134.365 74.6752 132.866 74.0435 131.31 73.5054L132.688 65.9971C131.288 65.5528 129.853 65.175 128.396 64.8546L125.845 72.0243C124.258 71.7221 122.631 71.5316 120.984 71.4138L120.374 63.7996C119.636 63.7664 118.898 63.7422 118.152 63.7422C117.405 63.7422 116.668 63.7664 115.933 63.7996L115.323 71.4138C113.675 71.5316 112.046 71.7221 110.462 72.0243L107.908 64.8546C106.457 65.1719 105.021 65.5498 103.616 65.9971L104.994 73.5054C103.444 74.0435 101.938 74.6752 100.475 75.3855L96.1408 69.1014C94.8229 69.7845 93.5413 70.5311 92.299 71.3291L95.5514 78.1815C94.1942 79.1004 92.9186 80.1251 91.6854 81.1981L85.8758 76.2531C84.7816 77.2505 83.7327 78.2994 82.7322 79.3936L87.6833 85.2032C86.6103 86.4394 85.5856 87.712 84.6667 89.0722L77.8113 85.8138C77.0103 87.0591 76.2697 88.3407 75.5866 89.6616L81.8738 93.9961C81.1604 95.4561 80.5287 96.9583 79.9906 98.512L72.4823 97.1337C72.035 98.5362 71.6571 99.9719 71.3398 101.426L78.5096 103.98C78.2012 105.567 78.0138 107.193 77.902 108.84L70.2848 109.448C70.2486 110.186 70.2305 110.926 70.2305 111.67C70.2305 112.416 70.2516 113.157 70.2848 113.891L77.902 114.505C78.0138 116.152 78.2043 117.778 78.5096 119.362L71.3398 121.917C71.6571 123.373 72.035 124.803 72.4823 126.209L79.9906 124.827C80.5287 126.381 81.1604 127.886 81.8738 129.346L75.5866 133.681C76.2728 134.999 77.0133 136.283 77.8113 137.526L84.6667 134.27C85.5856 135.627 86.6103 136.903 87.6833 138.136L82.7322 143.946C83.7327 145.043 84.7816 146.089 85.8758 147.089L91.6854 142.138C92.9186 143.211 94.1942 144.239 95.5514 145.155L92.299 152.01C93.5383 152.808 94.8259 153.555 96.1408 154.235L100.475 147.954C101.938 148.664 103.444 149.296 104.994 149.831L103.616 157.342C105.021 157.79 106.454 158.164 107.908 158.485L110.462 151.315C112.046 151.623 113.675 151.811 115.323 151.923L115.933 159.54C116.668 159.573 117.405 159.594 118.152 159.594C118.898 159.594 119.636 159.573 120.374 159.54L120.984 151.923C122.631 151.811 124.258 151.62 125.845 151.315L128.396 158.485C129.853 158.167 131.288 157.79 132.688 157.342L131.31 149.831C132.866 149.299 134.365 148.664 135.828 147.954L140.163 154.235C141.484 153.552 142.765 152.808 144.008 152.01L140.752 145.155C142.11 144.239 143.385 143.211 144.618 142.138L150.428 147.089C151.525 146.089 152.571 145.043 153.572 143.946L148.62 138.136C149.693 136.903 150.718 135.627 151.637 134.27L158.492 137.526C159.293 136.283 160.037 134.999 160.717 133.681L154.43 129.346C155.143 127.886 155.775 126.381 156.313 124.827L163.821 126.209C164.269 124.803 164.647 123.373 164.967 121.917L157.794 119.362C158.103 117.778 158.29 116.152 158.402 114.505L166.019 113.891ZM93.1272 97.2243C94.6839 94.5281 98.1327 93.6032 100.829 95.1568C103.525 96.7165 104.444 100.165 102.893 102.862C101.334 105.555 97.8879 106.477 95.1886 104.923C92.4954 103.369 91.5675 99.9206 93.1272 97.2243ZM100.826 128.183C98.1297 129.739 94.6838 128.814 93.1241 126.121C91.5644 123.425 92.4924 119.976 95.1886 118.419C97.8849 116.863 101.331 117.788 102.89 120.484C104.45 123.18 103.522 126.629 100.826 128.183ZM118.149 82.776C121.262 82.776 123.789 85.2999 123.789 88.4133C123.789 91.5266 121.262 94.0505 118.149 94.0505C115.036 94.0505 112.515 91.5266 112.515 88.4133C112.515 85.2999 115.036 82.776 118.149 82.776ZM118.149 140.569C115.036 140.569 112.515 138.042 112.515 134.929C112.515 131.819 115.036 129.292 118.149 129.292C121.262 129.292 123.789 131.816 123.789 134.929C123.789 138.042 121.262 140.569 118.149 140.569ZM118.149 118.471C114.395 118.471 111.351 115.43 111.351 111.67C111.351 107.916 114.395 104.872 118.149 104.872C121.903 104.872 124.95 107.916 124.95 111.67C124.95 115.43 121.903 118.471 118.149 118.471ZM143.171 126.121C141.614 128.817 138.168 129.742 135.472 128.186C132.776 126.629 131.854 123.18 133.404 120.484C134.964 117.788 138.41 116.866 141.109 118.419C143.808 119.976 144.73 123.425 143.171 126.121ZM141.112 104.926C138.416 106.486 134.967 105.561 133.413 102.865C131.854 100.168 132.779 96.7195 135.475 95.1629C138.174 93.6062 141.62 94.5281 143.177 97.2274C144.73 99.9236 143.808 103.369 141.112 104.926Z" fill="#D9D9D9"/>
<path d="M118.152 78.1113C99.6169 78.1113 84.5942 93.137 84.5942 111.672C84.5942 130.21 99.62 145.236 118.152 145.236C136.687 145.236 151.716 130.21 151.716 111.672C151.713 93.137 136.687 78.1113 118.152 78.1113ZM135.475 95.1591C138.174 93.6025 141.62 94.5244 143.177 97.2236C144.733 99.9198 143.811 103.369 141.112 104.925C138.416 106.485 134.967 105.56 133.413 102.864C131.857 100.168 132.782 96.7188 135.475 95.1591ZM118.152 82.7752C121.265 82.7752 123.792 85.2992 123.792 88.4125C123.792 91.5259 121.265 94.0498 118.152 94.0498C115.039 94.0498 112.518 91.5259 112.518 88.4125C112.518 85.2992 115.039 82.7752 118.152 82.7752ZM93.1303 97.2236C94.687 94.5274 98.1358 93.6025 100.832 95.1561C103.528 96.7158 104.447 100.165 102.897 102.861C101.337 105.554 97.891 106.476 95.1917 104.922C92.4985 103.369 91.5706 99.9198 93.1303 97.2236ZM100.829 128.182C98.1328 129.738 94.6869 128.814 93.1272 126.12C91.5675 123.424 92.4955 119.975 95.1917 118.419C97.8879 116.862 101.334 117.787 102.893 120.483C104.453 123.179 103.525 126.628 100.829 128.182ZM118.152 140.569C115.039 140.569 112.518 138.042 112.518 134.928C112.518 131.818 115.039 129.291 118.152 129.291C121.265 129.291 123.792 131.815 123.792 134.928C123.792 138.042 121.265 140.569 118.152 140.569ZM118.152 118.47C114.398 118.47 111.354 115.429 111.354 111.669C111.354 107.915 114.398 104.871 118.152 104.871C121.906 104.871 124.953 107.915 124.953 111.669C124.953 115.429 121.906 118.47 118.152 118.47ZM143.174 126.12C141.617 128.817 138.171 129.742 135.475 128.185C132.779 126.628 131.857 123.179 133.407 120.483C134.967 117.787 138.413 116.865 141.112 118.419C143.811 119.975 144.733 123.424 143.174 126.12Z" fill="#8B8B8B"/>
<path d="M118.147 80.0989C100.712 80.0989 86.5784 94.2389 86.5784 111.671C86.5784 129.108 100.712 143.245 118.147 143.245C135.585 143.245 149.722 129.108 149.722 111.671C149.722 94.2389 135.582 80.0989 118.147 80.0989ZM135.47 95.1608C138.169 93.6042 141.615 94.5261 143.172 97.2253C144.729 99.9216 143.807 103.37 141.107 104.927C138.411 106.487 134.962 105.562 133.409 102.866C131.852 100.169 132.777 96.7205 135.47 95.1608ZM118.147 82.777C121.261 82.777 123.787 85.3009 123.787 88.4142C123.787 91.5276 121.261 94.0515 118.147 94.0515C115.034 94.0515 112.513 91.5276 112.513 88.4142C112.513 85.3009 115.034 82.777 118.147 82.777ZM93.1255 97.2253C94.6822 94.5291 98.131 93.6042 100.827 95.1578C103.523 96.7175 104.442 100.166 102.892 102.863C101.332 105.556 97.8862 106.478 95.1869 104.924C92.4937 103.37 91.5658 99.9216 93.1255 97.2253ZM100.824 128.184C98.128 129.74 94.6822 128.815 93.1225 126.122C91.5628 123.426 92.4907 119.977 95.1869 118.42C97.8832 116.864 101.329 117.789 102.889 120.485C104.448 123.181 103.52 126.63 100.824 128.184ZM118.147 140.57C115.034 140.57 112.513 138.043 112.513 134.93C112.513 131.82 115.034 129.293 118.147 129.293C121.261 129.293 123.787 131.817 123.787 134.93C123.787 138.043 121.261 140.57 118.147 140.57ZM118.147 118.472C114.393 118.472 111.349 115.431 111.349 111.671C111.349 107.917 114.393 104.873 118.147 104.873C121.901 104.873 124.948 107.917 124.948 111.671C124.948 115.431 121.901 118.472 118.147 118.472ZM143.169 126.122C141.612 128.818 138.166 129.743 135.47 128.187C132.774 126.63 131.852 123.181 133.403 120.485C134.962 117.789 138.408 116.867 141.107 118.42C143.807 119.977 144.729 123.426 143.169 126.122Z" fill="#D9D9D9"/>
<path d="M118.147 96.1622C109.584 96.1622 102.641 103.105 102.641 111.668C102.641 120.235 109.584 127.178 118.147 127.178C126.71 127.178 133.653 120.235 133.653 111.668C133.653 103.105 126.71 96.1622 118.147 96.1622ZM118.147 118.469C114.393 118.469 111.349 115.429 111.349 111.668C111.349 107.914 114.393 104.87 118.147 104.87C121.901 104.87 124.948 107.914 124.948 111.668C124.948 115.429 121.901 118.469 118.147 118.469Z" fill="#8B8B8B"/>
<path d="M118.149 98.025C110.613 98.025 104.501 104.134 104.501 111.672C104.501 119.208 110.61 125.323 118.149 125.323C125.684 125.323 131.796 119.211 131.796 111.672C131.793 104.134 125.684 98.025 118.149 98.025ZM118.149 118.47C114.395 118.47 111.351 115.43 111.351 111.669C111.351 107.915 114.395 104.871 118.149 104.871C121.903 104.871 124.95 107.915 124.95 111.669C124.95 115.43 121.903 118.47 118.149 118.47Z" fill="#D9D9D9"/>
<path d="M71.0757 35.5491C71.0364 34.8055 70.4016 34.1012 69.6671 33.9894L61.6238 32.7289C61.3336 30.74 60.8258 28.8236 60.1064 27.01L66.4359 21.9047C67.0132 21.4392 67.2036 20.5203 66.853 19.8614L65.928 18.2624C65.5351 17.6337 64.6465 17.3344 63.9512 17.6004L56.3613 20.5294C55.1311 18.9788 53.7255 17.5732 52.1749 16.343L55.1039 8.75309C55.3729 8.0609 55.0737 7.16921 54.4419 6.77626L52.8429 5.85133C52.184 5.5007 51.2681 5.68507 50.7996 6.26542L45.6913 12.5949C43.8777 11.8755 41.9674 11.3677 39.9754 11.0745L38.7119 3.03419C38.6001 2.29968 37.8958 1.66492 37.1522 1.62562C37.1522 1.62562 36.992 1.61656 36.2243 1.61656C35.4595 1.61656 35.2993 1.62562 35.2993 1.62562C34.5558 1.66492 33.8515 2.29968 33.7366 3.03419L32.4792 11.0745C30.4872 11.3677 28.5709 11.8755 26.7573 12.5949L21.652 6.26542C21.1865 5.68507 20.2646 5.5007 19.6087 5.85133L18.0097 6.77626C17.3779 7.16921 17.0787 8.05787 17.3477 8.75309L20.2767 16.343C18.723 17.5732 17.3175 18.9788 16.0903 20.5294L8.50034 17.6004C7.80513 17.3344 6.91647 17.6307 6.5205 18.2624L5.59858 19.8614C5.24795 20.5173 5.43536 21.4362 6.01269 21.9047L12.3452 27.01C11.6228 28.8266 11.1149 30.74 10.8248 32.7289L2.78145 33.9894C2.04694 34.1042 1.41217 34.8055 1.37288 35.5491C1.37288 35.5491 1.36382 35.7093 1.36382 36.477C1.36382 37.2418 1.37288 37.402 1.37288 37.402C1.41217 38.1455 2.04694 38.8468 2.78145 38.9617L10.8248 40.2221C11.1149 42.211 11.6228 44.1274 12.3452 45.941L6.01269 51.0493C5.43536 51.5178 5.24795 52.4367 5.59858 53.0896L6.5205 54.6886C6.91344 55.3204 7.80513 55.6196 8.50034 55.3506L16.0903 52.4216C17.3175 53.9753 18.723 55.3778 20.2767 56.608L17.3477 64.1979C17.0787 64.8901 17.3779 65.7818 18.0097 66.1748L19.6087 67.0997C20.2646 67.4503 21.1835 67.2629 21.652 66.6826L26.7573 60.3531C28.5709 61.0725 30.4842 61.5803 32.4792 61.8705L33.7366 69.9108C33.8515 70.6483 34.5558 71.2801 35.2993 71.3224C35.2993 71.3224 35.4595 71.3314 36.2243 71.3314C36.992 71.3314 37.1522 71.3224 37.1522 71.3224C37.8958 71.2801 38.6001 70.6483 38.7119 69.9108L39.9754 61.8705C41.9643 61.5803 43.8777 61.0725 45.6913 60.3531L50.7996 66.6826C51.2651 67.2599 52.184 67.4473 52.8429 67.0997L54.4419 66.1748C55.0737 65.7818 55.3729 64.8932 55.1039 64.1979L52.1749 56.608C53.7255 55.3778 55.1311 53.9722 56.3613 52.4216L63.9512 55.3506C64.6465 55.6196 65.5351 55.3204 65.928 54.6886L66.853 53.0896C67.2036 52.4337 67.0163 51.5148 66.4359 51.0493L60.1064 45.941C60.8258 44.1274 61.3336 42.2141 61.6238 40.2221L69.6671 38.9617C70.4016 38.8468 71.0364 38.1425 71.0757 37.402C71.0757 37.402 71.0877 37.2418 71.0877 36.477C71.0877 35.7093 71.0757 35.5491 71.0757 35.5491ZM49.2187 34.8992C49.0948 33.8533 48.8409 32.8468 48.4812 31.8916C48.457 31.8251 48.4329 31.7586 48.4117 31.6952C48.3059 31.4261 48.188 31.1601 48.0641 30.8972C48.0278 30.8216 47.9915 30.74 47.9522 30.6644C47.8253 30.4045 47.6862 30.1475 47.5412 29.8997C47.5079 29.8423 47.4716 29.7818 47.4354 29.7244C46.5558 28.2675 45.4041 27.001 44.047 25.9853C44.0258 25.9672 44.0016 25.9521 43.9804 25.9339C43.7084 25.7344 43.4303 25.544 43.1432 25.3657C43.1401 25.3627 43.1341 25.3596 43.1311 25.3536C41.6379 24.4256 39.9482 23.7939 38.1376 23.5279C38.1376 23.5279 38.1346 23.5279 38.1316 23.5279V15.2851C48.4752 16.204 56.6757 24.5133 57.4374 34.8962L49.2187 34.8992ZM40.7129 36.477C40.7129 38.9526 38.7059 40.9627 36.2273 40.9627C33.7487 40.9627 31.7417 38.9526 31.7417 36.477C31.7417 33.9984 33.7487 31.9914 36.2273 31.9914C38.7059 31.9914 40.7129 33.9954 40.7129 36.477ZM34.326 15.2881V23.5309C32.5124 23.7939 30.8197 24.4287 29.3326 25.3566C29.3265 25.3596 29.3205 25.3627 29.3145 25.3687C29.0243 25.547 28.7462 25.7344 28.4772 25.937C28.456 25.9551 28.4318 25.9702 28.4137 25.9884C27.0565 27.001 25.9049 28.2705 25.0253 29.7274C24.989 29.7848 24.9558 29.8453 24.9195 29.9027C24.7714 30.1536 24.6354 30.4075 24.5054 30.6675C24.4691 30.743 24.4328 30.8246 24.3936 30.9002C24.2696 31.1632 24.1517 31.4261 24.0459 31.6982C24.0217 31.7617 23.9976 31.8282 23.9764 31.8947C23.6198 32.8498 23.3658 33.8564 23.2389 34.9022H15.0293C15.785 24.5163 23.9825 16.207 34.326 15.2881ZM23.3326 38.7017C23.393 39.0372 23.4626 39.3667 23.5442 39.6931C23.5502 39.7173 23.5563 39.7415 23.5623 39.7657C23.9946 41.4251 24.7381 42.9546 25.7356 44.2906C25.7477 44.3057 25.7598 44.3239 25.7749 44.342C26.7845 45.6811 28.0419 46.8176 29.4837 47.6881C29.4867 47.6911 29.4928 47.6911 29.4958 47.6942C30.9437 48.5677 32.5789 49.1662 34.326 49.4201L34.3291 57.6629C24.2031 56.7652 16.1175 48.7853 15.0656 38.7017H23.3326ZM38.1255 57.6629V49.4201C38.1286 49.4201 38.1316 49.4201 38.1316 49.4201C39.8787 49.1662 41.5079 48.5677 42.9618 47.6942C42.9648 47.6911 42.9679 47.6911 42.9739 47.6881C44.4127 46.8176 45.6701 45.6841 46.6797 44.342C46.6918 44.3239 46.7039 44.3088 46.716 44.2906C47.7134 42.9546 48.457 41.4251 48.8893 39.7657C48.8953 39.7415 48.9044 39.7143 48.9074 39.6931C48.992 39.3667 49.0646 39.0372 49.119 38.7017H57.389C56.3462 48.7853 48.2515 56.7652 38.1255 57.6629Z" fill="black"/>
<path d="M48.4547 34.1343C47.7564 28.2734 43.1831 23.6154 37.3645 22.763V11.7091H33.565V22.763C27.7433 23.6124 23.1731 28.2703 22.4658 34.1343H11.1398V37.9368H22.5685C23.5207 43.4895 27.961 47.8361 33.565 48.6522V60.359H37.3645V48.6522C42.9655 47.8361 47.4028 43.4895 48.3579 37.9368H59.7897V34.1343H48.4547ZM35.4662 40.1948C32.9907 40.1948 30.9806 38.1877 30.9806 35.7091C30.9806 33.2305 32.9907 31.2235 35.4662 31.2235C37.9418 31.2235 39.9489 33.2336 39.9489 35.7091C39.9489 38.1877 37.9418 40.1948 35.4662 40.1948Z" fill="#D9D9D9"/>
<path d="M70.3161 34.7852C70.2737 34.0416 69.636 33.3403 68.9045 33.2255L60.8642 31.965C60.568 29.9761 60.0632 28.0597 59.3408 26.2461L65.6733 21.1378C66.2536 20.6723 66.438 19.7534 66.0904 19.0975L65.1654 17.4985C64.7725 16.8668 63.8808 16.5675 63.1886 16.8366L55.5987 19.7655C54.3685 18.2119 52.9629 16.8093 51.4123 15.5791L54.3413 7.98617C54.6073 7.29397 54.308 6.40229 53.6793 6.00934L52.0803 5.0844C51.4244 4.73378 50.5055 4.92118 50.037 5.49851L44.9317 11.828C43.1181 11.1086 41.2017 10.6008 39.2128 10.3106L37.9523 2.2703C37.8375 1.53579 37.1332 0.901032 36.3926 0.858714C36.3926 0.858714 36.2294 0.84964 35.4647 0.84964C34.6999 0.84964 34.5397 0.858714 34.5397 0.858714C33.7962 0.901032 33.0919 1.53579 32.977 2.2703L31.7196 10.3106C29.7307 10.6008 27.8143 11.1116 26.0007 11.828L20.8954 5.49851C20.4299 4.92118 19.508 4.73378 18.8521 5.0844L17.2531 6.00934C16.6244 6.40229 16.3251 7.29095 16.5911 7.98617L19.5201 15.5791C17.9694 16.8093 16.5669 18.2119 15.3337 19.7655L7.74376 16.8366C7.04855 16.5675 6.15989 16.8668 5.76694 17.4985L4.842 19.0975C4.49137 19.7534 4.67878 20.6723 5.25913 21.1378L11.5886 26.2461C10.8692 28.0597 10.3614 29.9761 10.0712 31.965L2.03092 33.2255C1.29339 33.3403 0.658616 34.0446 0.622344 34.7852C0.622344 34.7852 0.613281 34.9454 0.613281 35.7131C0.613281 36.4779 0.622344 36.6381 0.622344 36.6381C0.661639 37.3816 1.29641 38.0859 2.03092 38.2008L10.0712 39.4612C10.3614 41.4471 10.8692 43.3635 11.5886 45.1801L5.25913 50.2854C4.67878 50.7539 4.49137 51.6728 4.842 52.3288L5.76694 53.9277C6.15989 54.5595 7.04855 54.8557 7.74376 54.5897L15.3337 51.6607C16.5669 53.2144 17.9694 54.6169 19.5201 55.8471L16.5911 63.4371C16.3251 64.1323 16.6244 65.021 17.2531 65.4139L18.8521 66.3388C19.508 66.6895 20.4299 66.5021 20.8954 65.9217L26.0007 59.5922C27.8173 60.3116 29.7307 60.8194 31.7196 61.1126L32.977 69.1529C33.0949 69.8874 33.7962 70.5222 34.5397 70.5615C34.5397 70.5615 34.6999 70.5706 35.4647 70.5706C36.2294 70.5706 36.3926 70.5615 36.3926 70.5615C37.1332 70.5222 37.8375 69.8874 37.9523 69.1529L39.2128 61.1126C41.2017 60.8194 43.1181 60.3116 44.9317 59.5922L50.037 65.9217C50.5025 66.5021 51.4244 66.6864 52.0803 66.3388L53.6793 65.4139C54.308 65.021 54.6073 64.1323 54.3413 63.4371L51.4123 55.8471C52.9629 54.6169 54.3654 53.2144 55.5987 51.6607L63.1886 54.5897C63.8838 54.8557 64.7725 54.5595 65.1654 53.9277L66.0904 52.3288C66.438 51.6728 66.2566 50.7539 65.6733 50.2854L59.3408 45.1801C60.0632 43.3635 60.568 41.4502 60.8642 39.4612L68.9045 38.2008C69.636 38.0859 70.2737 37.3816 70.3161 36.6381C70.3161 36.6381 70.3221 36.4779 70.3221 35.7131C70.3221 34.9454 70.3161 34.7852 70.3161 34.7852ZM35.4647 56.9927C23.7095 56.9927 14.182 47.4653 14.182 35.7101C14.182 23.9549 23.7095 14.4245 35.4647 14.4245C47.2198 14.4245 56.7503 23.9549 56.7503 35.7101C56.7503 47.4653 47.2168 56.9927 35.4647 56.9927Z" fill="#D9D9D9"/>
<path d="M35.4674 13.2086C23.0442 13.2086 12.9696 23.2832 12.9696 35.7094C12.9696 48.1356 23.0442 58.2071 35.4674 58.2071C47.8905 58.2071 57.9651 48.1326 57.9651 35.7094C57.9651 23.2832 47.8905 13.2086 35.4674 13.2086ZM35.4674 56.992C23.7122 56.992 14.1847 47.4646 14.1847 35.7094C14.1847 23.9542 23.7122 14.4237 35.4674 14.4237C47.2225 14.4237 56.753 23.9542 56.753 35.7094C56.753 47.4646 47.2195 56.992 35.4674 56.992Z" fill="#8B8B8B"/>
<path d="M35.4665 22.6138C28.2303 22.6138 22.3693 28.4778 22.3693 35.7111C22.3693 42.9443 28.2303 48.8083 35.4665 48.8083C42.7028 48.8083 48.5638 42.9443 48.5638 35.7111C48.5638 28.4778 42.6998 22.6138 35.4665 22.6138ZM35.4665 40.1967C32.991 40.1967 30.9809 38.1897 30.9809 35.7111C30.9809 33.2325 32.991 31.2254 35.4665 31.2254C37.9421 31.2254 39.9492 33.2355 39.9492 35.7111C39.9492 38.1897 37.9421 40.1967 35.4665 40.1967Z" fill="#8B8B8B"/>
<path d="M35.466 23.83C28.9038 23.83 23.5839 29.1499 23.5839 35.7121C23.5839 42.2713 28.9038 47.5912 35.466 47.5912C42.0282 47.5912 47.3481 42.2713 47.3481 35.7121C47.3451 29.1469 42.0252 23.83 35.466 23.83ZM35.466 40.1948C32.9904 40.1948 30.9804 38.1877 30.9804 35.7091C30.9804 33.2305 32.9904 31.2235 35.466 31.2235C37.9416 31.2235 39.9486 33.2335 39.9486 35.7091C39.9486 38.1877 37.9416 40.1948 35.466 40.1948Z" fill="#D9D9D9"/>
<path d="M104.141 139.791C104.162 139.299 104.177 138.8 104.177 138.301C104.177 137.802 104.162 137.304 104.141 136.808L99.0299 136.4C98.9513 135.294 98.8243 134.199 98.6188 133.135L103.431 131.422C103.219 130.445 102.968 129.481 102.666 128.538L97.6213 129.463C97.2646 128.42 96.8384 127.41 96.3608 126.428L100.577 123.52C100.121 122.635 99.6193 121.773 99.0843 120.939L94.4807 123.127C93.8641 122.214 93.1749 121.359 92.4555 120.531L95.7805 116.632C95.1064 115.894 94.4052 115.193 93.6737 114.522L89.7684 117.844C88.9432 117.127 88.0848 116.435 87.1749 115.819L89.3603 111.221C88.5291 110.683 87.6646 110.184 86.779 109.728L83.8712 113.941C82.8918 113.461 81.8822 113.038 80.8364 112.678L81.7643 107.636C80.8243 107.337 79.8601 107.083 78.8838 106.868L77.1699 111.683C76.1029 111.478 75.0117 111.351 73.9084 111.272L73.4943 106.161C73.0016 106.14 72.509 106.125 72.0042 106.125C71.5054 106.125 71.0097 106.14 70.514 106.161L70.1029 111.272C68.9966 111.348 67.9054 111.475 66.8414 111.683L65.1276 106.868C64.1512 107.083 63.187 107.337 62.247 107.636L63.1719 112.678C62.1291 113.038 61.1195 113.461 60.1402 113.941L57.2293 109.722C56.3437 110.181 55.4853 110.68 54.648 111.218L56.8334 115.816C55.9205 116.432 55.0651 117.124 54.2399 117.841L50.3376 114.519C49.6031 115.19 48.8958 115.891 48.2308 116.629L51.5528 120.528C50.8334 121.356 50.1442 122.214 49.5276 123.124L44.9271 120.936C44.389 121.77 43.8933 122.632 43.4339 123.517L47.6535 126.425C47.1729 127.407 46.7497 128.417 46.39 129.46L41.3482 128.535C41.046 129.478 40.7921 130.439 40.5805 131.419L45.3956 133.132C45.19 134.196 45.0631 135.288 44.9845 136.397L39.8732 136.805C39.849 137.298 39.8369 137.796 39.8369 138.298C39.8369 138.8 39.849 139.296 39.8732 139.788L44.9845 140.199C45.0601 141.306 45.187 142.397 45.3956 143.464L40.5805 145.175C40.7921 146.151 41.046 147.115 41.3482 148.058L46.39 147.133C46.7497 148.176 47.1729 149.186 47.6535 150.165L43.4339 153.076C43.8933 153.962 44.389 154.823 44.9271 155.657L49.5276 153.469C50.1442 154.382 50.8334 155.237 51.5528 156.065L48.2308 159.968C48.8989 160.705 49.6031 161.406 50.3376 162.077L54.2399 158.756C55.0651 159.475 55.9235 160.164 56.8334 160.781L54.648 165.381C55.4792 165.919 56.3437 166.418 57.2293 166.877L60.1402 162.658C61.1195 163.135 62.1291 163.562 63.1719 163.921L62.247 168.963C63.19 169.262 64.1512 169.519 65.1276 169.731L66.8414 164.916C67.9054 165.121 68.9966 165.248 70.1029 165.324L70.514 170.435C71.0097 170.459 71.5054 170.474 72.0042 170.474C72.509 170.474 73.0016 170.459 73.4943 170.435L73.9084 165.324C75.0117 165.248 76.1059 165.121 77.1699 164.916L78.8838 169.731C79.8601 169.519 80.8243 169.262 81.7643 168.963L80.8364 163.921C81.8822 163.562 82.8918 163.135 83.8712 162.658L86.782 166.877C87.6676 166.421 88.5291 165.922 89.3634 165.384L87.1779 160.784C88.0908 160.167 88.9462 159.478 89.7714 158.759L93.6767 162.081C94.4082 161.409 95.1125 160.708 95.7835 159.971L92.4586 156.068C93.178 155.24 93.8671 154.382 94.4838 153.472L99.0873 155.66C99.6223 154.826 100.124 153.962 100.58 153.079L96.3638 150.168C96.8414 149.189 97.2676 148.179 97.6243 147.136L102.669 148.061C102.971 147.118 103.222 146.157 103.434 145.178L98.6218 143.467C98.8243 142.4 98.9513 141.309 99.0329 140.202L104.141 139.791ZM82.9371 120.168C82.4898 119.896 82.0273 119.636 81.5558 119.397C82.0303 119.636 82.4868 119.896 82.9371 120.168ZM76.511 138.301C76.511 140.789 74.4918 142.808 72.0011 142.808C69.5135 142.808 67.4943 140.789 67.4943 138.301C67.4943 135.813 69.5135 133.794 72.0011 133.794C74.4918 133.794 76.511 135.813 76.511 138.301ZM73.9145 127.033C72.8626 128.085 71.1427 128.085 70.0878 127.033L62.4525 119.394C65.3241 117.943 68.5613 117.103 72.0011 117.103C75.4409 117.103 78.6812 117.94 81.5497 119.394L73.9145 127.033ZM62.4465 119.4C61.9749 119.639 61.5125 119.896 61.0651 120.171C61.5155 119.896 61.9749 119.639 62.4465 119.4ZM53.0973 128.753L60.7326 136.388C61.7875 137.44 61.7875 139.163 60.7326 140.215L53.0973 147.85C51.6434 144.978 50.8031 141.741 50.8031 138.301C50.8031 134.861 51.6434 131.624 53.0973 128.753ZM59.5508 155.428C57.7644 154.128 56.1956 152.559 54.8898 150.773C56.1956 152.556 57.7644 154.128 59.5508 155.428ZM54.8354 150.7C54.5331 150.283 54.255 149.86 53.983 149.422C54.255 149.86 54.5361 150.286 54.8354 150.7ZM53.85 149.204C53.5931 148.778 53.3482 148.345 53.1215 147.898C53.3482 148.345 53.5931 148.781 53.85 149.204ZM60.9109 156.34C60.4606 156.062 60.0193 155.772 59.587 155.458C60.0193 155.769 60.4636 156.062 60.9109 156.34ZM62.4525 157.205L70.0878 149.57C71.1427 148.515 72.8626 148.515 73.9145 149.57L81.5497 157.208C78.6812 158.662 75.4409 159.499 72.0011 159.499C67.99 159.499 64.254 158.363 61.053 156.425C61.5094 156.7 61.9749 156.963 62.4525 157.205ZM84.4666 155.419C86.244 154.122 87.8067 152.556 89.1064 150.782C87.8097 152.559 86.244 154.122 84.4666 155.419ZM81.5528 157.205C82.0273 156.966 82.4898 156.706 82.9402 156.431C82.4898 156.706 82.0304 156.966 81.5528 157.205ZM90.9079 147.85L83.2696 140.215C82.2177 139.163 82.2177 137.44 83.2696 136.388L90.9079 128.753C92.3588 131.624 93.1991 134.861 93.1991 138.301C93.1991 141.741 92.3618 144.978 90.9079 147.85ZM90.8838 147.901C90.6601 148.345 90.4122 148.778 90.1583 149.204C90.4122 148.778 90.6571 148.342 90.8838 147.901ZM90.0193 149.431C89.7502 149.863 89.4691 150.286 89.1729 150.697C89.4691 150.286 89.7502 149.86 90.0193 149.431ZM89.1729 125.902C89.4722 126.316 89.7503 126.739 90.0223 127.175C89.7503 126.742 89.4691 126.316 89.1729 125.902ZM90.1553 127.398C90.4122 127.825 90.6601 128.257 90.8838 128.701C90.6571 128.257 90.4122 127.825 90.1553 127.398Z" fill="black"/>
<path d="M82.5165 135.707L90.1579 128.069C88.1115 124.045 84.8289 120.754 80.7966 118.713L73.1614 126.352C72.1095 127.404 70.3865 127.404 69.3347 126.352L61.6994 118.713C57.6702 120.757 54.3876 124.045 52.3412 128.069L59.9795 135.707C61.0344 136.759 61.0344 138.482 59.9795 139.534L52.3412 147.172C54.3876 151.195 57.6702 154.484 61.6994 156.524L69.3347 148.889C70.3865 147.837 72.1095 147.837 73.1614 148.889L80.7966 156.527C84.8289 154.487 88.1115 151.198 90.1579 147.175L82.5165 139.537C81.4616 138.479 81.4616 136.756 82.5165 135.707ZM71.248 142.184C68.7271 142.184 66.6838 140.141 66.6838 137.62C66.6838 135.099 68.7271 133.056 71.248 133.056C73.7689 133.056 75.8153 135.099 75.8153 137.62C75.8153 140.141 73.7689 142.184 71.248 142.184Z" fill="#D9D9D9"/>
<path d="M103.389 139.109C103.413 138.616 103.425 138.117 103.425 137.619C103.425 137.12 103.413 136.621 103.389 136.128L98.2777 135.717C98.2021 134.611 98.0751 133.517 97.8696 132.453L102.682 130.739C102.47 129.763 102.216 128.798 101.914 127.855L96.8721 128.783C96.5124 127.74 96.0893 126.731 95.6117 125.749L99.8313 122.841C99.3719 121.955 98.8731 121.094 98.3381 120.259L93.7376 122.448C93.121 121.535 92.4288 120.68 91.7124 119.851L95.0343 115.952C94.3663 115.215 93.662 114.513 92.9275 113.842L89.0253 117.164C88.2001 116.445 87.3416 115.756 86.4288 115.139L88.6172 110.538C87.783 110 86.9215 109.502 86.0359 109.045L83.125 113.265C82.1427 112.784 81.133 112.361 80.0902 112.001L81.0152 106.96C80.0751 106.66 79.1139 106.406 78.1346 106.192L76.4237 111.007C75.3598 110.801 74.2686 110.674 73.1623 110.596L72.7512 105.485C72.2555 105.463 71.7598 105.448 71.258 105.448C70.7562 105.448 70.2605 105.463 69.7709 105.485L69.3567 110.596C68.2535 110.674 67.1593 110.798 66.0953 111.007L64.3814 106.192C63.4051 106.406 62.4409 106.66 61.5008 106.96L62.4288 112.001C61.3829 112.361 60.3734 112.784 59.394 113.265L56.4832 109.045C55.5976 109.505 54.7361 110.003 53.9048 110.541L56.0902 115.142C55.1774 115.759 54.322 116.448 53.4938 117.167L49.5915 113.845C48.86 114.516 48.1527 115.218 47.4847 115.955L50.8096 119.854C50.0902 120.683 49.4011 121.541 48.7844 122.451L44.1839 120.262C43.6459 121.097 43.1472 121.961 42.6907 122.844L46.9104 125.752C46.4328 126.734 46.0066 127.743 45.6499 128.786L40.6051 127.858C40.3058 128.801 40.0519 129.763 39.8373 130.742L44.6555 132.456C44.4499 133.52 44.323 134.611 44.2444 135.72L39.133 136.131C39.1089 136.624 39.0938 137.123 39.0938 137.622C39.0938 138.123 39.1089 138.619 39.133 139.112L44.2444 139.523C44.32 140.629 44.4469 141.723 44.6555 142.787L39.8373 144.498C40.0519 145.474 40.3058 146.439 40.6051 147.382L45.6499 146.454C46.0066 147.497 46.4328 148.506 46.9104 149.486L42.6907 152.393C43.1472 153.279 43.6459 154.14 44.1839 154.975L48.7844 152.786C49.4011 153.699 50.0902 154.555 50.8096 155.383L47.4847 159.285C48.1557 160.02 48.86 160.724 49.5915 161.392L53.4938 158.07C54.322 158.789 55.1804 159.479 56.0902 160.095L53.9048 164.696C54.7361 165.231 55.6006 165.729 56.4832 166.189L59.394 161.969C60.3734 162.45 61.3829 162.873 62.4288 163.233L61.5008 168.274C62.4439 168.574 63.4051 168.831 64.3814 169.042L66.0953 164.227C67.1623 164.433 68.2535 164.56 69.3567 164.638L69.7709 169.747C70.2605 169.771 70.7562 169.786 71.258 169.786C71.7598 169.786 72.2555 169.771 72.7512 169.747L73.1623 164.638C74.2686 164.563 75.3628 164.433 76.4237 164.227L78.1346 169.042C79.1139 168.831 80.0781 168.574 81.0152 168.274L80.0902 163.233C81.133 162.873 82.1427 162.45 83.125 161.969L86.0359 166.189C86.9215 165.732 87.7799 165.234 88.6172 164.696L86.4288 160.095C87.3446 159.479 88.2001 158.789 89.0253 158.07L92.9275 161.392C93.662 160.721 94.3693 160.02 95.0343 159.285L91.7124 155.383C92.4288 154.555 93.121 153.696 93.7376 152.786L98.3381 154.975C98.8731 154.14 99.3719 153.276 99.8313 152.393L95.6117 149.486C96.0893 148.503 96.5124 147.494 96.8721 146.454L101.914 147.382C102.216 146.436 102.47 145.474 102.682 144.498L97.8696 142.787C98.0721 141.723 98.1991 140.629 98.2777 139.523L103.389 139.109ZM71.249 160.15C58.8076 160.15 48.721 150.063 48.721 137.619C48.721 125.174 58.8076 115.088 71.249 115.088C83.6933 115.088 93.7799 125.174 93.7799 137.619C93.7799 150.063 83.6933 160.15 71.249 160.15Z" fill="#D9D9D9"/>
<path d="M71.2497 115.089C58.8084 115.089 48.7217 125.175 48.7217 137.62C48.7217 150.064 58.8084 160.151 71.2497 160.151C83.6941 160.151 93.7807 150.064 93.7807 137.62C93.7807 125.175 83.6941 115.089 71.2497 115.089ZM71.2497 158.818C59.5429 158.818 50.0547 149.326 50.0547 137.62C50.0547 125.913 59.5429 116.422 71.2497 116.422C82.9565 116.422 92.4507 125.913 92.4507 137.62C92.4507 149.326 82.9565 158.818 71.2497 158.818Z" fill="#8B8B8B"/>
<path d="M65.4534 137.618C65.4534 140.822 68.0499 143.415 71.2509 143.415C74.4519 143.415 77.0484 140.822 77.0484 137.618C77.0484 134.417 74.4519 131.82 71.2509 131.82C68.0529 131.82 65.4534 134.417 65.4534 137.618ZM75.7607 137.618C75.7607 140.109 73.7416 142.125 71.2509 142.125C68.7632 142.125 66.744 140.109 66.744 137.618C66.744 135.13 68.7632 133.111 71.2509 133.111C73.7416 133.111 75.7607 135.13 75.7607 137.618Z" fill="#8B8B8B"/>
<path d="M161.534 52.4647C161.556 52.0657 161.568 51.6636 161.568 51.2586C161.568 50.8566 161.556 50.4546 161.534 50.0556L157.405 49.7261C157.345 48.8344 157.239 47.9518 157.076 47.0903L160.966 45.706C160.794 44.917 160.588 44.1402 160.347 43.3785L156.272 44.1281C155.982 43.2848 155.64 42.4687 155.25 41.6767L158.66 39.3281C158.291 38.6118 157.886 37.9165 157.454 37.2425L153.736 39.0077C153.237 38.2732 152.681 37.578 152.101 36.913L154.785 33.7604C154.244 33.1679 153.675 32.5966 153.08 32.0586L149.93 34.7427C149.256 34.1624 148.567 33.6062 147.833 33.1075L149.601 29.3896C148.921 28.9573 148.226 28.5553 147.512 28.1835L145.164 31.5901C144.372 31.2032 143.559 30.8616 142.712 30.5714L143.462 26.4969C142.7 26.2551 141.92 26.0495 141.131 25.8772L139.747 29.7674C138.886 29.6012 138.006 29.4984 137.111 29.4379L136.782 25.309C136.38 25.2908 135.981 25.2787 135.576 25.2787C135.174 25.2787 134.772 25.2908 134.373 25.309L134.043 29.4379C133.152 29.5014 132.269 29.6012 131.41 29.7674L130.023 25.8772C129.234 26.0495 128.457 26.2551 127.696 26.4969L128.445 30.5714C127.602 30.8616 126.786 31.2032 125.994 31.5901L123.645 28.1835C122.929 28.5553 122.231 28.9573 121.56 29.3896L123.325 33.1075C122.587 33.6062 121.895 34.1624 121.23 34.7427L118.077 32.0586C117.485 32.5997 116.914 33.1679 116.373 33.7604L119.057 36.913C118.476 37.581 117.92 38.2732 117.422 39.0077L113.704 37.2425C113.268 37.9165 112.869 38.6118 112.498 39.3281L115.904 41.6767C115.52 42.4687 115.179 43.2848 114.886 44.1281L110.814 43.3785C110.572 44.1402 110.367 44.917 110.194 45.706L114.082 47.0903C113.912 47.9518 113.813 48.8344 113.752 49.7261L109.623 50.0556C109.605 50.4576 109.593 50.8566 109.593 51.2586C109.593 51.6636 109.605 52.0657 109.623 52.4647L113.752 52.7971C113.816 53.6888 113.915 54.5715 114.082 55.4329L110.194 56.8143C110.367 57.6032 110.572 58.383 110.814 59.1448L114.886 58.3951C115.179 59.2354 115.52 60.0516 115.904 60.8465L112.498 63.1951C112.869 63.9115 113.271 64.6067 113.704 65.2808L117.422 63.5155C117.92 64.2531 118.476 64.9453 119.057 65.6133L116.364 68.7659C116.905 69.3584 117.473 69.9266 118.068 70.4677L121.221 67.7836C121.889 68.3639 122.578 68.9201 123.316 69.4188L121.551 73.1337C122.225 73.5689 122.92 73.9679 123.636 74.3397L125.985 70.9302C126.78 71.3171 127.593 71.6586 128.436 71.9518L127.687 76.0264C128.448 76.2682 129.225 76.4707 130.014 76.646L131.401 72.7558C132.26 72.9221 133.143 73.0249 134.034 73.0853L134.364 77.2143C134.766 77.2324 135.168 77.2445 135.567 77.2445C135.975 77.2445 136.374 77.2324 136.773 77.2143L137.102 73.0853C137.997 73.0218 138.876 72.9221 139.738 72.7558L141.122 76.646C141.911 76.4707 142.691 76.2682 143.453 76.0234L142.703 71.9518C143.547 71.6586 144.363 71.3201 145.155 70.9302L147.503 74.3397C148.217 73.9679 148.915 73.5659 149.592 73.1337L147.824 69.4188C148.558 68.9201 149.25 68.3639 149.921 67.7836L153.071 70.4677C153.663 69.9266 154.235 69.3584 154.776 68.7659L152.092 65.6133C152.672 64.9453 153.228 64.2531 153.727 63.5155L157.445 65.2808C157.877 64.6037 158.282 63.9115 158.651 63.1951L155.241 60.8465C155.631 60.0546 155.973 59.2385 156.263 58.3951L160.337 59.1448C160.579 58.383 160.785 57.6062 160.957 56.8143L157.067 55.4329C157.233 54.5715 157.339 53.6888 157.396 52.7971L161.534 52.4647ZM135.573 54.9493C133.535 54.9493 131.888 53.2959 131.888 51.2586C131.888 49.2244 133.535 47.5709 135.573 47.5709C137.61 47.5709 139.263 49.2213 139.263 51.2586C139.26 53.2959 137.61 54.9493 135.573 54.9493Z" fill="black"/>
<path d="M161.113 52.0874C161.131 51.6884 161.143 51.2864 161.143 50.8813C161.143 50.4763 161.131 50.0773 161.113 49.6783L156.981 49.3489C156.92 48.4541 156.814 47.5745 156.651 46.7131L160.541 45.3287C160.369 44.5398 160.163 43.763 159.922 43.0013L155.847 43.7509C155.557 42.9075 155.215 42.0914 154.825 41.2995L158.235 38.9478C157.866 38.2345 157.461 37.5363 157.026 36.8652L153.311 38.6305C152.812 37.8929 152.256 37.2007 151.679 36.5327L154.36 33.3801C153.819 32.7876 153.251 32.2194 152.655 31.6783L149.502 34.3625C148.831 33.7821 148.142 33.2229 147.408 32.7242L149.173 29.0093C148.496 28.5771 147.804 28.172 147.087 27.8033L144.739 31.2098C143.947 30.8229 143.134 30.4813 142.287 30.1912L143.037 26.1166C142.275 25.8748 141.495 25.6693 140.706 25.497L139.322 29.3871C138.461 29.2209 137.581 29.1181 136.686 29.0577L136.357 24.9287C135.958 24.9106 135.556 24.8985 135.151 24.8985C134.749 24.8985 134.347 24.9106 133.948 24.9287L133.618 29.0577C132.727 29.1211 131.844 29.2209 130.983 29.3871L129.598 25.497C128.809 25.6693 128.032 25.8748 127.271 26.1166L128.02 30.1912C127.177 30.4813 126.361 30.8229 125.566 31.2098L123.217 27.8033C122.501 28.1751 121.803 28.5771 121.132 29.0093L122.897 32.7242C122.159 33.2229 121.467 33.7791 120.802 34.3625L117.65 31.6783C117.057 32.2194 116.486 32.7876 115.945 33.3801L118.632 36.5327C118.052 37.2007 117.492 37.8929 116.997 38.6305L113.282 36.8652C112.847 37.5393 112.448 38.2345 112.073 38.9478L115.479 41.2995C115.095 42.0914 114.754 42.9075 114.461 43.7509L110.389 43.0013C110.147 43.763 109.942 44.5398 109.769 45.3287L113.657 46.7131C113.487 47.5745 113.388 48.4541 113.324 49.3489L109.198 49.6783C109.18 50.0773 109.168 50.4793 109.168 50.8813C109.168 51.2834 109.18 51.6884 109.198 52.0874L113.324 52.4169C113.388 53.3116 113.49 54.1912 113.657 55.0526L109.769 56.437C109.942 57.2259 110.147 58.0058 110.389 58.7645L114.461 58.0179C114.754 58.8582 115.095 59.6743 115.479 60.4693L112.073 62.8179C112.445 63.5343 112.847 64.2295 113.282 64.9035L116.997 63.1383C117.492 63.8758 118.052 64.568 118.632 65.236L115.945 68.3887C116.489 68.9811 117.057 69.5494 117.65 70.0904L120.802 67.4063C121.47 67.9897 122.159 68.5428 122.897 69.0446L121.132 72.7594C121.806 73.1947 122.501 73.5937 123.217 73.9655L125.566 70.5559C126.361 70.9428 127.174 71.2844 128.02 71.5746L127.271 75.6491C128.032 75.8909 128.809 76.0965 129.598 76.2688L130.983 72.3786C131.844 72.5448 132.727 72.6476 133.618 72.7081L133.948 76.837C134.35 76.8552 134.752 76.8673 135.151 76.8673C135.559 76.8673 135.961 76.8552 136.357 76.837L136.686 72.7081C137.581 72.6446 138.461 72.5418 139.322 72.3786L140.706 76.2688C141.495 76.0965 142.275 75.8909 143.037 75.6491L142.287 71.5746C143.131 71.2844 143.947 70.9428 144.739 70.5559L147.087 73.9655C147.804 73.5937 148.499 73.1917 149.173 72.7594L147.408 69.0446C148.142 68.5458 148.834 67.9897 149.502 67.4063L152.655 70.0904C153.248 69.5494 153.819 68.9811 154.36 68.3887L151.679 65.236C152.256 64.568 152.812 63.8758 153.311 63.1383L157.026 64.9035C157.461 64.2264 157.863 63.5312 158.235 62.8179L154.825 60.4693C155.215 59.6743 155.557 58.8612 155.847 58.0179L159.922 58.7645C160.163 58.0058 160.369 57.2259 160.541 56.437L156.651 55.0526C156.817 54.1912 156.923 53.3116 156.981 52.4169L161.113 52.0874ZM135.148 54.569C133.111 54.569 131.463 52.9186 131.463 50.8813C131.463 48.8441 133.111 47.1937 135.148 47.1937C137.185 47.1937 138.838 48.8441 138.838 50.8813C138.838 52.9186 137.185 54.569 135.148 54.569Z" fill="#D9D9D9"/>
<path d="M135.148 32.6818C125.1 32.6818 116.948 40.8309 116.948 50.8813C116.948 60.9347 125.1 69.0808 135.148 69.0808C145.201 69.0808 153.347 60.9317 153.347 50.8813C153.35 40.8309 145.201 32.6818 135.148 32.6818ZM135.148 54.569C133.11 54.569 131.463 52.9186 131.463 50.8813C131.463 48.844 133.11 47.1937 135.148 47.1937C137.185 47.1937 138.838 48.844 138.838 50.8813C138.838 52.9186 137.185 54.569 135.148 54.569Z" fill="#8B8B8B"/>
<path d="M135.15 33.7572C125.698 33.7572 118.03 41.4257 118.03 50.8806C118.03 60.3385 125.698 68.004 135.15 68.004C144.608 68.004 152.276 60.3385 152.276 50.8806C152.276 41.4257 144.608 33.7572 135.15 33.7572ZM135.15 54.5683C133.113 54.5683 131.465 52.9179 131.465 50.8806C131.465 48.8433 133.113 47.1929 135.15 47.1929C137.187 47.1929 138.841 48.8433 138.841 50.8806C138.841 52.9179 137.187 54.5683 135.15 54.5683Z" fill="#D9D9D9"/>
<path d="M135.15 42.4737C130.507 42.4737 126.744 46.2399 126.744 50.8827C126.744 55.5286 130.507 59.2918 135.15 59.2918C139.796 59.2918 143.562 55.5256 143.562 50.8827C143.562 46.2399 139.796 42.4737 135.15 42.4737ZM135.15 54.5704C133.113 54.5704 131.466 52.92 131.466 50.8827C131.466 48.8455 133.113 47.1951 135.15 47.1951C137.188 47.1951 138.841 48.8455 138.841 50.8827C138.841 52.92 137.188 54.5704 135.15 54.5704Z" fill="#8B8B8B"/>
<path d="M135.148 43.4835C131.061 43.4835 127.752 46.7963 127.752 50.883C127.752 54.9726 131.064 58.2855 135.148 58.2855C139.241 58.2855 142.551 54.9726 142.551 50.883C142.551 46.7963 139.241 43.4835 135.148 43.4835ZM135.148 54.5706C133.111 54.5706 131.463 52.9202 131.463 50.883C131.463 48.8457 133.111 47.1953 135.148 47.1953C137.185 47.1953 138.839 48.8457 138.839 50.883C138.839 52.9202 137.185 54.5706 135.148 54.5706Z" fill="#D9D9D9"/>
</svg>
