<svg width="204" height="224" viewBox="0 0 204 224" fill="none" xmlns="http://www.w3.org/2000/svg">
<circle cx="26.6523" cy="26.7852" r="9.5" fill="#D9D9D9" stroke="#444444"/>
<path d="M16.6523 27.2852H36.6523" stroke="#444444"/>
<path d="M26.6523 37.2852L26.6523 17.2852" stroke="#444444"/>
<circle cx="26.6523" cy="26.7852" r="23" stroke="white" stroke-width="6"/>
<path fill-rule="evenodd" clip-rule="evenodd" d="M203.652 19.7852C146.749 52.4679 112.855 57.3093 51.6523 21.2852C50.8998 35.8396 48.7154 42.07 40.1523 47.4721C36.9539 49.4899 33.0051 51.1828 28.1523 52.7852L23.6523 205.285V223.785C114.152 193.789 185.152 114.285 203.652 19.7852ZM40.1523 47.4721C49.3288 56.6485 58.0557 64.6852 65.9437 71.9495C112.12 114.474 129.552 130.527 40.1523 193.789V47.4721ZM171.652 62.2852C171.652 67.5319 167.399 71.7852 162.152 71.7852C156.906 71.7852 152.652 67.5319 152.652 62.2852C152.652 57.0385 156.906 52.7852 162.152 52.7852C167.399 52.7852 171.652 57.0385 171.652 62.2852ZM120.152 150.785C125.399 150.785 129.652 146.532 129.652 141.285C129.652 136.038 125.399 131.785 120.152 131.785C114.906 131.785 110.652 136.038 110.652 141.285C110.652 146.532 114.906 150.785 120.152 150.785ZM144.652 70.2852C144.652 74.4273 141.294 77.7852 137.152 77.7852C133.01 77.7852 129.652 74.4273 129.652 70.2852C129.652 66.1431 133.01 62.7852 137.152 62.7852C141.294 62.7852 144.652 66.1431 144.652 70.2852ZM152.152 88.7852C155.19 88.7852 157.652 86.3228 157.652 83.2852C157.652 80.2476 155.19 77.7852 152.152 77.7852C149.115 77.7852 146.652 80.2476 146.652 83.2852C146.652 86.3228 149.115 88.7852 152.152 88.7852ZM124.652 122.285C124.652 125.323 122.19 127.785 119.152 127.785C116.115 127.785 113.652 125.323 113.652 122.285C113.652 119.248 116.115 116.785 119.152 116.785C122.19 116.785 124.652 119.248 124.652 122.285ZM113.152 160.785C115.085 160.785 116.652 159.218 116.652 157.285C116.652 155.352 115.085 153.785 113.152 153.785C111.219 153.785 109.652 155.352 109.652 157.285C109.652 159.218 111.219 160.785 113.152 160.785Z" fill="#D9D9D9"/>
</svg>
