<svg width="79" height="70" viewBox="0 0 79 70" fill="none" xmlns="http://www.w3.org/2000/svg">
<g clip-path="url(#clip0_803_143)">
<g clip-path="url(#clip1_803_143)">
<path d="M27.2968 24.0183C34.8845 24.0089 42.4745 23.9948 50.0622 23.9948C50.2776 23.9948 50.4907 24.1005 50.7061 24.1592V33.8582C50.1131 33.8582 49.6985 33.8582 49.2839 33.8582C42.229 33.8582 35.174 33.8535 28.1191 33.8676C27.679 33.8676 27.2389 34.0226 26.7989 34.1049C26.6483 33.7408 26.375 33.3814 26.3704 33.0149C26.3333 30.3582 26.3495 27.6991 26.3495 25.0424C26.3495 24.5163 26.3194 23.9713 27.0907 24.0277C27.1602 24.0277 27.2274 24.023 27.2968 24.0206V24.0183Z" fill="#893A17"/>
<path d="M53.9774 33.875C53.8824 33.5955 53.7064 33.3159 53.7041 33.0341C53.6809 30.3327 53.6925 27.6314 53.6856 24.93C53.6856 24.4109 53.7435 23.967 54.4175 24.0186C54.4869 24.0186 54.5541 24.0139 54.6236 24.0116C62.2113 24.0022 69.7989 23.9904 77.3866 23.9881C77.602 23.9881 77.8151 24.0938 78.0305 24.1525C78.0235 26.6965 78.0351 29.2404 78.0004 31.7821C77.9911 32.4586 77.8429 33.1327 77.7479 33.8727H53.9751L53.9774 33.875Z" fill="#893A17"/>
<path d="M41.447 57.648C41.3034 57.3849 41.0371 57.1241 41.0348 56.8587C41.0046 53.899 41.0162 50.9392 41.0162 47.8973C41.3891 47.8151 41.674 47.6976 41.9612 47.6976C49.8106 47.7023 57.66 47.7164 65.5094 47.7305C65.5233 47.8245 65.5349 47.9184 65.5488 48.0147C65.4723 51.0825 65.3982 54.1527 65.3195 57.3449C64.7312 57.3449 64.3143 57.3449 63.8997 57.3449C56.9165 57.3449 49.9334 57.3402 42.9502 57.3543C42.5078 57.3543 42.0654 57.4976 41.6254 57.5751C41.5628 57.5892 41.5049 57.6127 41.4517 57.648H41.447Z" fill="#893A17"/>
<path d="M53.9007 45.6596C53.8336 45.4787 53.7085 45.2978 53.7085 45.1169C53.7015 42.223 53.7085 39.329 53.7201 36.4327C53.7201 36.3247 53.7965 36.219 53.8845 35.9864C54.2505 35.9629 54.6581 35.9159 55.0657 35.9159C62.394 35.9112 69.7223 35.9112 77.0528 35.923C77.4605 35.923 77.8681 36.0451 78.2758 36.1085C78.1901 36.5173 78.0349 36.9236 78.0303 37.3324C78.0048 39.5216 78.0303 41.7132 78.0071 43.9025C78.0025 44.3817 77.8728 44.8609 77.7662 45.5679H54.6442C54.4983 45.5726 54.3524 45.5773 54.2065 45.5797L54.1416 45.6361C54.0605 45.6431 53.9818 45.6502 53.9007 45.6572V45.6596Z" fill="#893A17"/>
<path d="M26.3931 45.3757V36.0737C26.7683 36.0126 27.0601 35.9234 27.3519 35.9234C35.0184 35.9163 42.6871 35.921 50.3535 35.9234C50.5458 35.9234 50.738 35.9539 50.9302 35.9703C50.9187 36.0385 50.914 36.1066 50.9117 36.1771C50.8376 36.5858 50.7056 36.9969 50.7009 37.4056C50.6801 39.7898 50.694 42.174 50.6894 44.5583C50.6894 44.8519 50.643 45.1432 50.6291 45.3123C48.9476 45.4086 47.3796 45.5707 45.8093 45.5777C39.6437 45.6012 33.4781 45.5754 27.3126 45.566C27.1481 45.5871 26.9814 45.6059 26.8169 45.6271C26.6779 45.5425 26.5367 45.4603 26.3977 45.3757H26.3931Z" fill="#893A17"/>
<path d="M13.8833 57.3603L13.8694 47.9385C14.02 47.8657 14.1705 47.7905 14.3211 47.7177C22.3372 47.7271 30.3534 47.7388 38.3696 47.7482C38.3626 47.8187 38.3835 47.8798 38.4367 47.9267C38.4136 47.9925 38.3974 48.0606 38.3858 48.1311C37.7373 48.0536 37.9805 48.5586 37.9781 48.8335C37.9619 51.2177 37.9712 53.6019 37.9642 55.9861C37.9642 56.3996 37.9295 56.8153 37.9063 57.3439C37.3759 57.3439 36.9614 57.3439 36.5468 57.3439C29.5706 57.3439 22.5966 57.3392 15.6204 57.3533C15.1757 57.3533 14.731 57.4848 14.2863 57.5553C14.152 57.4918 14.0177 57.4284 13.8833 57.365V57.3603Z" fill="#893A17"/>
<path d="M41.4164 69.3782C41.2798 69.0258 41.0273 68.6735 41.0227 68.3188C40.9949 65.5446 41.0111 62.7681 41.0227 59.994C41.0227 59.8836 41.0829 59.7732 41.1524 59.5359C41.4789 59.4983 41.8472 59.4208 42.2132 59.4208C49.6897 59.4138 57.1662 59.4138 64.6427 59.4208C64.9368 59.4208 65.2333 59.5242 65.5274 59.5782C65.5274 62.7493 65.5274 65.9205 65.5274 69.0916H65.5297C65.1522 69.0188 64.7724 68.9483 64.3948 68.8779C57.3816 68.8708 50.3683 68.8591 43.3527 68.8614C43.1002 68.8614 42.8501 68.9836 42.5976 69.0493C42.4448 69.0493 42.2919 69.0493 42.1391 69.047C42.058 69.0517 41.9792 69.054 41.8982 69.0587L41.7059 69.296L41.655 69.3406C41.5739 69.3524 41.4952 69.3641 41.4141 69.3758L41.4164 69.3782Z" fill="#893A17"/>
<path d="M23.0571 46.0509C22.6378 46.0814 22.2209 46.1355 21.8017 46.1355C14.9251 46.1472 8.04616 46.1519 1.16954 46.159C0.917082 46.1402 0.666939 46.1214 0.41448 46.1026C0.277828 45.8841 0.0230536 45.6657 0.0207374 45.4449C-0.0047401 42.3325 0.00220832 39.22 0.00220832 36.0442C0.340363 35.9902 0.595139 35.915 0.85223 35.915C8.20598 35.9103 15.5574 35.915 22.9111 35.9174C23.1404 35.9174 23.372 35.9526 23.6013 35.969C23.5921 36.0372 23.5851 36.1029 23.5805 36.171C23.5064 36.5821 23.372 36.9908 23.3697 37.4019C23.3489 39.6687 23.3628 41.9378 23.3558 44.2046C23.3558 44.5757 23.3141 44.9445 23.2794 45.5059H0.657674C0.657674 45.6187 0.657674 45.7338 0.657674 45.8465C1.01899 45.8465 1.37799 45.8465 1.73931 45.8465C8.44917 45.8465 15.1567 45.8442 21.8666 45.8559C22.2626 45.8559 22.661 45.9804 23.0571 46.0486V46.0509Z" fill="#893A17"/>
<path d="M68.6427 69.2959V59.7026H78.433C78.4701 60.0503 78.5279 60.3533 78.5279 60.654C78.5349 63.3483 78.5372 66.0426 78.5279 68.7345C78.5279 69.0399 78.4376 69.3453 78.3867 69.6506C75.2738 69.6389 72.1609 69.6271 69.048 69.6154C68.9137 69.5073 68.777 69.4016 68.6427 69.2936V69.2959Z" fill="white"/>
<path d="M11.191 48.2488V57.8585H1.36597V47.9082C4.56456 47.8706 7.7423 47.833 10.92 47.7978C11.0104 47.9481 11.1007 48.0985 11.1933 48.2488H11.191Z" fill="white"/>
<path d="M78.4426 12.6375V22.5549H68.8376V12.6375H78.4426Z" fill="white"/>
<path d="M69.0046 0.759308H78.4289V10.8341H68.7637V0.970717C68.8447 0.900248 68.9235 0.829778 69.0046 0.759308Z" fill="white"/>
<path d="M13.9054 34.0858C13.9332 31.1942 13.9633 28.3026 13.9911 25.4134C13.9934 25.1479 13.9911 24.8801 13.9911 24.5254C14.3385 24.4738 14.628 24.3962 14.9152 24.3939C17.5371 24.3845 20.1589 24.3986 22.7808 24.3821C23.4247 24.3774 23.8254 24.5489 23.8231 25.2842C23.8115 28.1006 23.8138 30.9147 23.8022 33.7311C23.8022 33.8768 23.7212 34.0224 23.6192 34.3654H14.0953C14.0304 34.2714 13.9679 34.1774 13.903 34.0835L13.9054 34.0858Z" fill="white"/>
<path d="M68.804 57.571V47.9847H78.4322V57.9562H69.2649C69.112 57.827 68.9569 57.7002 68.804 57.571Z" fill="white"/>
<path d="M53.9814 33.8752H77.7542C77.8468 33.1352 77.9974 32.4611 78.0067 31.7846C78.0414 29.2406 78.0298 26.6966 78.0368 24.155C78.192 24.1809 78.3448 24.2067 78.5 24.2302C78.5741 24.3101 78.6482 24.3899 78.7247 24.4674V34.406C70.6992 34.406 62.7943 34.406 54.8893 34.406C54.8036 34.4037 54.7156 34.399 54.6299 34.3966C54.4145 34.2228 54.1991 34.049 53.9814 33.8752Z" fill="#414141"/>
<path d="M26.7964 34.1007C27.2365 34.0185 27.6765 33.8658 28.1166 33.8634C35.1716 33.8493 42.2265 33.854 49.2815 33.854C49.6961 33.854 50.1107 33.854 50.7036 33.854V24.155C50.8634 24.1785 51.0232 24.202 51.183 24.2278C51.2525 24.303 51.3197 24.3782 51.3892 24.4534V34.4037C43.2966 34.4037 35.3082 34.4037 27.3198 34.4037C27.2365 34.3943 27.1508 34.3825 27.0674 34.3732C26.9771 34.2815 26.8867 34.1923 26.7964 34.1007Z" fill="#414141"/>
<path d="M14.2885 57.5533C14.7332 57.4829 15.1779 57.3513 15.6226 57.3513C22.5988 57.3396 29.5727 57.3419 36.549 57.3419C36.9635 57.3419 37.3781 57.3419 37.9085 57.3419C37.9317 56.8134 37.9641 56.4 37.9664 55.9842C37.9711 53.6 37.9618 51.2157 37.9803 48.8315C37.9803 48.5567 37.7395 48.0517 38.388 48.1292C38.4899 48.1174 38.5941 48.1057 38.696 48.0916C38.7215 48.2772 38.747 48.4627 38.7724 48.6483C38.7724 48.7329 38.7724 48.8174 38.7701 48.902C38.7701 51.4812 38.7701 54.0604 38.7701 56.6396C38.7701 56.797 38.7701 56.9567 38.7724 57.1141C38.4876 57.3513 38.2027 57.7953 37.9155 57.7953C30.0406 57.8094 22.1634 57.7788 14.2885 57.7577C14.3348 57.6872 14.3325 57.6168 14.2862 57.5486L14.2885 57.5533Z" fill="#414141"/>
<path d="M41.6147 57.5718C42.057 57.4943 42.4994 57.351 42.9395 57.351C49.9226 57.3369 56.9058 57.3416 63.889 57.3416C64.3035 57.3416 64.7204 57.3416 65.3087 57.3416C65.3875 54.1494 65.4616 51.0816 65.538 48.0114C65.7002 48.0302 65.8623 48.0514 66.0244 48.0702C66.0592 48.1923 66.0916 48.3121 66.1263 48.4343C66.0893 51.0323 66.0661 53.6326 66.0059 56.2306C65.9943 56.7591 65.8438 57.2829 65.7581 57.8091C57.9017 57.8138 50.0454 57.8208 42.1891 57.8208C41.9991 57.8208 41.8092 57.7739 41.6193 57.7504C41.6656 57.6869 41.6633 57.6259 41.6123 57.5671L41.6147 57.5718Z" fill="#414141"/>
<path d="M27.3115 45.569C33.477 45.576 39.6426 45.6042 45.8082 45.5807C47.3785 45.576 48.9488 45.4116 50.628 45.3153C50.6419 45.1462 50.6883 44.8549 50.6883 44.5613C50.6929 42.177 50.6813 39.7928 50.6998 37.4086C50.7022 36.9975 50.8365 36.5888 50.9106 36.1801C51.0658 36.2035 51.221 36.2294 51.3762 36.2529C51.3993 39.2525 51.4387 42.2545 51.4178 45.2542C51.4178 45.5196 51.038 45.7827 50.8342 46.0458C50.4729 45.9824 50.1139 45.8673 49.7525 45.865C47.7537 45.8462 45.7572 45.8603 43.7584 45.8556C38.1881 45.8438 32.6154 45.8297 27.0451 45.8156L27.3092 45.569H27.3115Z" fill="#414141"/>
<path d="M23.0528 46.0576C22.6567 45.9894 22.2584 45.865 21.8623 45.865C15.1524 45.8532 8.4449 45.8556 1.73504 45.8556C1.37372 45.8556 1.01472 45.8556 0.653404 45.8556C0.653404 45.7428 0.653404 45.6277 0.653404 45.515H23.2751C23.3099 44.9535 23.3492 44.5848 23.3515 44.2136C23.3585 41.9445 23.3446 39.6777 23.3654 37.4109C23.3701 36.9999 23.5044 36.5911 23.5762 36.1801C23.7314 36.2082 23.8866 36.2364 24.0418 36.2646V45.9425C23.6874 45.9824 23.3701 46.02 23.0505 46.0576H23.0528Z" fill="#414141"/>
<path d="M54.6415 45.5727H77.7636C77.8701 44.8656 77.9998 44.3864 78.0044 43.9072C78.0276 41.718 78.0021 39.5264 78.0276 37.3371C78.0322 36.9284 78.1874 36.5197 78.2731 36.1133C78.3727 36.1391 78.4746 36.1626 78.5742 36.1884C78.6275 36.2636 78.6807 36.3388 78.734 36.414C78.7456 39.3009 78.7572 42.1878 78.7757 45.0747C78.778 45.5891 78.7178 46.026 78.0739 46.0425C77.6246 45.9791 77.1776 45.864 76.7282 45.864C69.7173 45.8522 62.7063 45.8616 55.6931 45.8452C55.26 45.8452 54.8268 45.6854 54.3914 45.6009C54.4748 45.5915 54.5582 45.5844 54.6415 45.575V45.5727Z" fill="#414141"/>
<path d="M65.7544 69.6329C61.0086 69.6165 56.2629 69.5953 51.5148 69.5883C48.2351 69.5836 44.9555 69.6024 41.6735 69.6094L41.6689 69.5507C41.6828 69.4802 41.6781 69.4098 41.6527 69.3416L41.7036 69.297C49.4442 69.3111 57.187 69.3252 64.9275 69.3276C65.1267 69.3276 65.3259 69.1725 65.5251 69.0903H65.5228C65.678 69.1279 65.8332 69.1655 65.9883 69.2031C65.9096 69.3463 65.8331 69.4873 65.7544 69.6306V69.6329Z" fill="#5C509C"/>
<path d="M27.0456 45.8148C32.6159 45.8289 38.1886 45.8429 43.7589 45.8547C45.7577 45.8594 47.7542 45.8453 49.7531 45.8641C50.1144 45.8664 50.4734 45.9815 50.8347 46.045C50.5336 46.0778 50.2302 46.1413 49.9291 46.1413C42.6078 46.146 35.2865 46.1483 27.9675 46.1413C27.5853 46.1413 27.2055 46.0731 26.8233 46.0356C26.8534 45.9698 26.8742 45.9017 26.8905 45.8312C26.9437 45.8312 26.997 45.8242 27.048 45.8148H27.0456Z" fill="#5C509C"/>
<path d="M54.3928 45.5952C54.8259 45.6797 55.2591 45.8371 55.6945 45.8395C62.7054 45.8559 69.7164 45.8465 76.7297 45.8583C77.179 45.8583 77.626 45.9757 78.0753 46.0368C77.7349 46.0697 77.3944 46.1308 77.0539 46.1331C69.8021 46.1401 62.5503 46.1425 55.2984 46.1378C54.9163 46.1378 54.5341 46.0673 54.1543 46.0274C54.1496 45.8982 54.1473 45.7667 54.1427 45.6375L54.2075 45.5811C54.2701 45.5928 54.3326 45.5975 54.3951 45.5952H54.3928Z" fill="#5C509C"/>
<path d="M65.9891 69.2086C65.8339 69.1711 65.6787 69.1335 65.5235 69.0959C65.5235 65.9247 65.5235 62.7536 65.5235 59.5825C65.6532 59.6106 65.7829 59.6388 65.9126 59.667C65.9474 59.7046 65.9844 59.7422 66.0192 59.7798C66.0562 59.9137 66.091 60.0476 66.128 60.1815C66.1211 63.1506 66.1141 66.1197 66.1072 69.0888C66.0748 69.1382 66.0354 69.1781 65.9868 69.211L65.9891 69.2086Z" fill="#414141"/>
<path d="M11.1849 48.2488C11.0946 48.0985 11.0043 47.9481 10.9116 47.7978C11.002 47.9481 11.0923 48.0985 11.1849 48.2488Z" fill="#8F77C9"/>
<path d="M26.8887 45.8298C26.8748 45.9003 26.8517 45.9684 26.8215 46.0342C26.6779 45.8133 26.5367 45.5949 26.3931 45.3741C26.532 45.4586 26.6733 45.5409 26.8123 45.6254C26.8262 45.6982 26.8517 45.764 26.8864 45.8274L26.8887 45.8298Z" fill="#8F77C9"/>
<path d="M69.048 69.6191C68.9553 69.6755 68.8627 69.7342 68.7724 69.7906C68.7284 69.6261 68.6867 69.4617 68.6427 69.2973C68.777 69.4053 68.9137 69.511 69.048 69.6191Z" fill="#414141"/>
<path d="M14.2859 57.5493C14.3345 57.6175 14.3345 57.6879 14.2882 57.7584C14.1539 57.6245 14.0172 57.493 13.8829 57.3591C14.0172 57.4225 14.1515 57.4859 14.2859 57.5493Z" fill="#8F77C9"/>
<path d="M54.1415 45.6412C54.1462 45.7704 54.1485 45.9019 54.1531 46.0311C54.0697 45.909 53.984 45.7845 53.9007 45.6623C53.9817 45.6553 54.0605 45.6482 54.1415 45.6412Z" fill="#8F77C9"/>
<path d="M38.7711 57.1191C38.7711 56.9617 38.7711 56.802 38.7688 56.6446C38.7688 56.802 38.7688 56.9617 38.7711 57.1191Z" fill="#C2C1C3"/>
<path d="M54.6226 24.015C54.5537 24.015 54.4872 24.0196 54.4183 24.022C54.4849 23.9614 54.5537 23.9591 54.6226 24.015Z" fill="#8F77C9"/>
<path d="M27.2898 24.015C27.2209 24.015 27.1543 24.0196 27.0855 24.022C27.152 23.9614 27.2209 23.9591 27.2898 24.015Z" fill="#8F77C9"/>
<path d="M41.6165 57.5727C41.667 57.6309 41.6693 57.6915 41.6233 57.7543C41.5637 57.7171 41.504 57.6821 41.4443 57.6449C41.4971 57.61 41.5545 57.5867 41.6165 57.5727Z" fill="#8F77C9"/>
<path d="M66.0171 59.778C65.9833 59.7418 65.9472 59.7055 65.9134 59.6693C65.9878 59.6693 66.0216 59.7032 66.0171 59.778Z" fill="#C2C1C3"/>
<path d="M41.6539 69.344C41.6768 69.4115 41.6814 69.4814 41.6699 69.5512C41.585 69.493 41.5 69.4372 41.4174 69.3789C41.4977 69.3673 41.5758 69.3557 41.6562 69.344H41.6539Z" fill="#C2C1C3"/>
<path d="M78.7202 24.4703C78.6468 24.3912 78.5733 24.312 78.4975 24.2352C78.571 24.3143 78.6445 24.3935 78.7202 24.4703Z" fill="#C2C1C3"/>
<path d="M54.3908 45.6002C54.3283 45.6049 54.2657 45.6002 54.2032 45.5861C54.3491 45.5814 54.495 45.5768 54.6409 45.5744C54.5576 45.5838 54.4742 45.5908 54.3908 45.6002Z" fill="#4F3689"/>
<path d="M26.8907 45.8308C26.8536 45.7674 26.8281 45.6993 26.8166 45.6288C26.981 45.6077 27.1478 45.5889 27.3122 45.5677L27.0482 45.8144C26.9972 45.8238 26.9439 45.8308 26.8907 45.8308Z" fill="#4F3689"/>
<path d="M65.5279 69.0904C65.3287 69.1726 65.1295 69.3277 64.9304 69.3277C57.1898 69.3277 49.447 69.3112 41.7064 69.2971L41.8987 69.0599C41.9797 69.0552 42.0585 69.0528 42.1396 69.0481C42.2924 69.0481 42.4453 69.0481 42.5981 69.0505C49.6508 69.0622 56.7034 69.0763 63.7584 69.0763C63.9715 69.0763 64.1822 68.9471 64.3953 68.8766C64.7729 68.9471 65.1527 69.0176 65.5302 69.0881L65.5279 69.0904Z" fill="#414141"/>
<path d="M64.391 68.8841C64.1779 68.9522 63.9671 69.0837 63.754 69.0837C56.7014 69.0837 49.6487 69.0696 42.5938 69.0579C42.8462 68.9921 43.0964 68.87 43.3488 68.87C50.3621 68.87 57.3754 68.877 64.391 68.8864V68.8841Z" fill="#4F3689"/>
</g>
</g>
<defs>
<clipPath id="clip0_803_143">
<rect width="79" height="70" fill="white"/>
</clipPath>
<clipPath id="clip1_803_143">
<rect width="92.1667" height="88.1482" fill="white" transform="translate(-13.1672 0.00241089)"/>
</clipPath>
</defs>
</svg>
