<svg width="44" height="44" viewBox="0 0 44 44" fill="none" xmlns="http://www.w3.org/2000/svg">
<path d="M0.00850232 29.0106C0.149864 23.7582 2.31264 19.1421 4.45428 14.4977C4.87836 13.5857 4.89254 12.2567 4.58862 11.2812C3.82526 8.81405 5.2106 7.29418 6.70197 5.86622C10.3703 2.33872 15.1413 1.31369 19.8981 0.380569C25.0437 -0.630318 30.0196 0.309876 33.6668 3.95755C36.7767 7.06797 39.2011 10.9772 41.3922 14.844C42.721 17.1839 43.2016 20.0681 43.767 22.7685C44.7566 27.4766 42.4171 31.2091 39.604 34.5598C32.7833 42.6964 23.3897 44.1385 13.558 43.9901C9.72002 43.9335 6.36271 42.1451 3.61322 39.5224C1.18886 37.2179 -0.0763218 33.0541 0.00142732 29.0176L0.00850232 29.0106ZM23.001 4.67154C19.9263 5.92985 16.6256 6.4671 14.4557 8.32628C8.46898 13.4585 5.16821 20.3297 4.15747 28.1411C3.33051 34.5245 7.46536 39.5012 13.8054 40.1727C21.0856 40.9433 27.8568 39.07 33.688 34.9628C38.4236 31.6262 40.9752 26.7414 39.6817 20.5205C38.5862 15.2399 35.8296 10.8641 32.1895 7.11746C29.7581 4.61498 26.5987 3.10219 22.7112 3.39909C22.8738 4.09894 23.001 4.69275 23.001 4.67154Z" fill="#443415"/>
<path d="M25.8074 12.9986C25.0903 13.8949 22.1475 19.2032 21.9981 20.7717C21.1019 19.1285 17.6063 14.3879 16.1722 13.6708C14.7381 12.9538 13.0352 16.1357 13.0352 17.4801L19.0852 22.8232C17.8901 23.4954 13.9315 28.3253 13.9315 28.6838C13.9315 29.132 16.3963 31.5968 17.5166 31.5968C18.4129 31.5968 21.3259 26.3684 21.9981 24.8746C22.4463 26.0696 27.0622 30.78 27.6 30.9593C28.2722 31.1833 31.1852 30.0283 30.9611 28.9079C30.7819 28.0116 25.5833 22.9326 24.2389 21.9616C25.1352 20.8412 29.4374 16.3396 29.6166 15.0847C29.8407 13.5162 26.7037 11.8782 25.8074 12.9986Z" fill="#443415"/>
</svg>
