<svg width="22" height="22" viewBox="0 0 22 22" fill="none" xmlns="http://www.w3.org/2000/svg">
<g clip-path="url(#clip0_2165_5926)">
<path d="M20.1667 6.41659H13.75V4.58325H20.1667V6.41659ZM21.7488 15.5833C21.3437 16.7722 19.8889 18.3333 17.0729 18.3333C14.2551 18.3333 11.9726 16.7483 11.9726 13.1312C11.9726 9.547 14.1038 7.7045 16.9831 7.7045C19.8083 7.7045 21.5334 9.338 21.9102 11.7617C21.9817 12.2255 22.0101 12.8507 21.9973 13.7233H14.6392C14.7583 16.6668 17.8319 16.7593 18.8448 15.5833H21.7488ZM14.7033 11.9166H19.2546C19.1583 10.4985 18.2133 9.8825 16.984 9.8825C15.6402 9.8825 14.8968 10.5865 14.7033 11.9166ZM5.92717 18.3223H0V4.6025H6.37358C11.3933 4.67675 11.4886 9.59284 8.86692 10.933C12.0395 12.088 12.1458 18.3223 5.92717 18.3223ZM2.75 10.0833H6.03533C8.33433 10.0833 8.69917 7.33325 5.74933 7.33325H2.75V10.0833ZM5.85842 12.8333H2.75V15.5979H5.81258C8.613 15.5979 8.44158 12.8333 5.85842 12.8333Z" fill="#F5F5F5"/>
</g>
<defs>
<clipPath id="clip0_2165_5926">
<rect width="22" height="22" fill="white"/>
</clipPath>
</defs>
</svg>
