<svg width="39" height="38" viewBox="0 0 39 38" fill="none" xmlns="http://www.w3.org/2000/svg">
<path d="M19.5011 0C8.7419 0 0.0274658 8.54415 0.0274658 19.0931C0.0274658 27.5418 5.60178 34.6778 13.3425 37.2076C14.3162 37.3747 14.6813 36.8019 14.6813 36.3007C14.6813 35.8473 14.657 34.3437 14.657 32.7446C9.76427 33.6277 8.49848 31.5752 8.10901 30.5012C7.88993 29.9523 6.94059 28.2578 6.11296 27.8043C5.43139 27.4463 4.45771 26.5632 6.08862 26.5394C7.62217 26.5155 8.71756 27.9236 9.08269 28.4964C10.8353 31.3843 13.6346 30.5728 14.7544 30.0716C14.9248 28.8306 15.4359 27.9952 15.9958 27.5179C11.6629 27.0406 7.13533 25.3938 7.13533 18.0907C7.13533 16.0143 7.88993 14.2959 9.13137 12.9594C8.93664 12.4821 8.25506 10.5251 9.32611 7.89976C9.32611 7.89976 10.957 7.39857 14.6813 9.8568C16.2392 9.42721 17.8945 9.21241 19.5497 9.21241C21.205 9.21241 22.8603 9.42721 24.4181 9.8568C28.1425 7.3747 29.7734 7.89976 29.7734 7.89976C30.8444 10.5251 30.1629 12.4821 29.9681 12.9594C31.2096 14.2959 31.9642 15.9905 31.9642 18.0907C31.9642 25.4177 27.4122 27.0406 23.0793 27.5179C23.7853 28.1146 24.3938 29.2601 24.3938 31.0501C24.3938 33.6038 24.3695 35.6563 24.3695 36.3007C24.3695 36.8019 24.7346 37.3986 25.7083 37.2076C29.5743 35.9284 32.9338 33.4925 35.3137 30.2429C37.6936 26.9933 38.974 23.0937 38.9747 19.0931C38.9747 8.54415 30.2602 0 19.5011 0Z" fill="#FFECD4"/>
</svg>
