<svg width="39" height="39" viewBox="0 0 39 39" fill="none" xmlns="http://www.w3.org/2000/svg">
<path d="M11.2947 0.376221H27.6525C33.8841 0.376221 38.9472 5.39728 38.9472 11.577V27.7989C38.9472 30.7696 37.7572 33.6186 35.6391 35.7191C33.5209 37.8197 30.648 38.9998 27.6525 38.9998H11.2947C5.06314 38.9998 0 33.9787 0 27.7989V11.577C0 8.6064 1.18997 5.75743 3.30814 3.65687C5.4263 1.5563 8.29915 0.376221 11.2947 0.376221ZM10.9052 4.23857C9.04592 4.23857 7.26277 4.97104 5.94805 6.27484C4.63332 7.57864 3.89472 9.34696 3.89472 11.1908V28.1852C3.89472 32.0282 7.02997 35.1374 10.9052 35.1374H28.042C29.9013 35.1374 31.6844 34.4049 32.9991 33.1011C34.3139 31.7974 35.0525 30.029 35.0525 28.1852V11.1908C35.0525 7.34777 31.9172 4.23857 28.042 4.23857H10.9052ZM29.6972 7.13534C30.3428 7.13534 30.962 7.38967 31.4185 7.84238C31.875 8.29508 32.1314 8.90909 32.1314 9.54931C32.1314 10.1895 31.875 10.8035 31.4185 11.2562C30.962 11.709 30.3428 11.9633 29.6972 11.9633C29.0516 11.9633 28.4325 11.709 27.976 11.2562C27.5195 10.8035 27.263 10.1895 27.263 9.54931C27.263 8.90909 27.5195 8.29508 27.976 7.84238C28.4325 7.38967 29.0516 7.13534 29.6972 7.13534ZM19.4736 10.0321C22.056 10.0321 24.5325 11.0494 26.3586 12.8602C28.1846 14.6711 29.2104 17.1271 29.2104 19.688C29.2104 22.2489 28.1846 24.7049 26.3586 26.5157C24.5325 28.3266 22.056 29.3439 19.4736 29.3439C16.8912 29.3439 14.4146 28.3266 12.5886 26.5157C10.7626 24.7049 9.7368 22.2489 9.7368 19.688C9.7368 17.1271 10.7626 14.6711 12.5886 12.8602C14.4146 11.0494 16.8912 10.0321 19.4736 10.0321ZM19.4736 13.8945C17.9242 13.8945 16.4382 14.5048 15.3426 15.5913C14.247 16.6778 13.6315 18.1515 13.6315 19.688C13.6315 21.2245 14.247 22.6981 15.3426 23.7846C16.4382 24.8711 17.9242 25.4815 19.4736 25.4815C21.023 25.4815 22.509 24.8711 23.6046 23.7846C24.7002 22.6981 25.3157 21.2245 25.3157 19.688C25.3157 18.1515 24.7002 16.6778 23.6046 15.5913C22.509 14.5048 21.023 13.8945 19.4736 13.8945Z" fill="#FFECD4"/>
</svg>
