<svg width="39" height="39" viewBox="0 0 39 39" fill="none" xmlns="http://www.w3.org/2000/svg">
<path d="M30.8842 0.375977H8.16502C3.68447 0.375977 0.0510254 3.97923 0.0510254 8.42255V30.9529C0.0510254 35.3963 3.68447 38.9995 8.16502 38.9995H30.8842C35.3664 38.9995 38.9982 35.3963 38.9982 30.9529V8.42255C38.9982 3.97923 35.3664 0.375977 30.8842 0.375977ZM13.0334 30.9529H8.16502V13.2505H13.0334V30.9529ZM10.5992 11.2099C9.0316 11.2099 7.75932 9.93852 7.75932 8.37105C7.75932 6.80358 9.0316 5.53222 10.5992 5.53222C12.1668 5.53222 13.4391 6.80358 13.4391 8.37105C13.4391 9.93852 12.1685 11.2099 10.5992 11.2099ZM32.507 30.9529H27.6386V21.9343C27.6386 16.5142 21.1474 16.9246 21.1474 21.9343V30.9529H16.279V13.2505H21.1474V16.0909C23.4129 11.9292 32.507 11.6219 32.507 20.0756V30.9529Z" fill="#FFECD4"/>
</svg>
