<?xml version="1.0" encoding="UTF-8"?>
<svg id="Layer_1" xmlns="http://www.w3.org/2000/svg" version="1.1" xmlns:xlink="http://www.w3.org/1999/xlink" viewBox="0 0 2050.2 485.8">
  <!-- Generator: Adobe Illustrator 29.3.1, SVG Export Plug-In . SVG Version: 2.1.0 Build 151)  -->
  <defs>
    <style>
      .st0 {
        fill: #c5c8cf;
      }

      .st1 {
        fill: #29a9e1;
      }
    </style>
  </defs>
  <g>
    <path class="st0" d="M501.3,68.9c0-21.4-9.2-42.6-26.3-55.8-15.8-12.3-37-16.6-56.2-10.1-10.2,3.5-19.2,9.7-26.5,17.6-1.5,1.6-381.1,411.5-383,413.6-2.7,3-5.2,6-6.8,9.7-3.6,8.1-3.3,17.5.6,25.4,4.5,9,13.6,15.2,23.6,16.2,9.3.9,18.5-2.7,24.8-9.5-5.2,5.6,380.5-410.2,386.3-416.2,1.4-1.4,3.8-.9,4,1.4.1,2,.1,362.5,0,364.6-.1,1.9-2.2,3.1-3.7,1.6-.2-.1-133.5-144.1-134.5-145.3-3.1-3.6-7-6.5-11.5-8.4-8.1-3.3-17.5-2.9-25.3,1.2-8,4.2-13.7,12-15.3,20.9-1.6,8.8.9,17.9,6.7,24.7.6.7,134.3,144.9,137.2,147.7,14.2,13.7,34.2,20.1,53.7,16.1,19.1-3.9,35.9-17.3,44.5-34.7h0c5.1-10.2,7.6-21.6,7.6-33,.1-.9.1-347.5.1-347.7h0Z"/>
    <path class="st1" d="M171.3,214.9c-7.7-.5-15.2-4-20.6-10.4L7,49C-3.5,36.5-2,17.7,10.4,7,16.5,1.8,24-.5,31.4,0c7.7.5,15.2,4,20.6,10.4l143.7,155.4c10.5,12.5,9,31.3-3.4,41.9-6.1,5.4-13.7,7.7-21,7.2h0Z"/>
  </g>
  <g>
    <path class="st1" d="M743.9,113.7h59.8l81.1,245.7h-47.4l-19.6-60.8h-93.8l-19.2,60.8h-43l82.1-245.7h0ZM734.6,265.2h72.5l-36.1-114-36.4,114Z"/>
    <path class="st1" d="M898.1,179.7h41.6v33.7c11.3-22.7,28.2-36.1,58.4-36.4v38.8c-36.4.3-58.4,12-58.4,50.2v93.5h-41.6v-179.8h0Z"/>
    <path class="st1" d="M1004.3,271.8v-2.8c0-57,40.5-93.1,90.7-93.1s77.3,17.9,82.1,67.3h-40.1c-3.4-24.1-19.2-34-41.2-34s-48.8,22-48.8,59.1v2.8c0,39.2,19.2,59.8,49.8,59.8s40.9-13.1,43.3-38.5h38.1c-3.1,41.2-34.4,70.4-83.2,70.4s-90.7-33.6-90.7-91h0Z"/>
    <path class="st1" d="M1188.2,271.4v-2.8c0-55.7,38.1-92.8,89.3-92.8s84.9,26.5,84.9,90.7v12h-131.6c1.4,34,18.6,53.3,49.5,53.3s38.1-10,41.2-27.5h40.2c-5.8,37.8-36.4,58.4-82.5,58.4-52.9.1-91.1-34.6-91-91.3h0ZM1321.1,250.8c-2.1-30.9-17.9-44.7-43.6-44.7s-41.9,16.8-46,44.7h89.6Z"/>
    <path class="st1" d="M1373.7,303.4h39.2c2.1,18.2,11.3,28.9,35.7,28.9s32.3-7.9,32.3-23-12-20.3-38.5-24.7c-47.4-7.6-64.9-21-64.9-54.6s33.7-53.9,67.3-53.9,66,13.7,70.4,54.3h-38.5c-3.4-16.5-12.7-24.1-31.9-24.1s-28.5,8.6-28.5,21.3,8.6,18.2,37.1,23c42.3,6.5,67.3,16.8,67.3,55s-25.8,57.4-71.8,57.4-73.5-21.5-75.2-59.6h0Z"/>
    <path class="st1" d="M1533.1,126.4c0-13.7,11-24.1,24.7-24.1s24.7,10.3,24.7,24.1-11,23.7-24.7,23.7-24.7-10.3-24.7-23.7ZM1537.6,179.7h41.6v179.7h-41.6v-179.7h0Z"/>
    <path class="st1" d="M1600.4,294.8v-115.1h41.6v110.3c0,27.1,11.3,39.5,35.4,39.5s41.9-14.4,41.9-43v-106.8h41.6v179.7h-41.6v-28.2c-8.9,17.5-27.8,31.6-57,31.6s-61.9-20.2-61.9-68h0Z"/>
    <path class="st1" d="M1782.6,179.7h41.6v27.5c8.6-16.8,28.2-31.3,54.6-31.3s41.9,10,50.8,32.3c13.7-22.3,38.5-32.3,60.8-32.3,33,0,59.8,20.3,59.8,69.8v113.7h-41.6v-111c0-26.5-11.3-37.8-31.9-37.8s-39.5,13.7-39.5,41.2v107.5h-41.6v-111c0-26.5-11.7-37.8-31.9-37.8s-39.5,13.7-39.5,41.2v107.5h-41.6v-179.5h0Z"/>
  </g>
</svg>