<svg width="1920" height="1080" viewBox="0 0 1920 1080" fill="none" xmlns="http://www.w3.org/2000/svg">
<g clip-path="url(#clip0_17_48)">
<path d="M-42 0H830L767 51.5L709.5 106.5L666.5 166.5L632.5 224.5L593.5 308L569 385.5L556 463.5L551 533L556 616.5L568.5 692L590 769L621 838.5L660 906.5L706 968.5L764.5 1028L829 1080H-42V0Z" fill="url(#paint0_linear_17_48)" fill-opacity="0.6"/>
<g filter="url(#filter0_d_17_48)">
<mask id="path-2-inside-1_17_48" fill="white">
<path d="M1202.91 -115C1033.46 -115 870.947 -46.044 751.127 76.6986C631.308 199.441 563.994 365.916 563.994 539.5C563.994 713.084 631.308 879.559 751.127 1002.3C870.947 1125.04 1033.46 1194 1202.91 1194L1202.91 539.5L1202.91 -115Z"/>
</mask>
<path d="M1202.91 -115C1033.46 -115 870.947 -46.044 751.127 76.6986C631.308 199.441 563.994 365.916 563.994 539.5C563.994 713.084 631.308 879.559 751.127 1002.3C870.947 1125.04 1033.46 1194 1202.91 1194L1202.91 539.5L1202.91 -115Z" stroke="url(#paint1_linear_17_48)" stroke-width="2" shape-rendering="crispEdges" mask="url(#path-2-inside-1_17_48)"/>
</g>
</g>
<defs>
<filter id="filter0_d_17_48" x="499.694" y="-161.3" width="767.512" height="1437.6" filterUnits="userSpaceOnUse" color-interpolation-filters="sRGB">
<feFlood flood-opacity="0" result="BackgroundImageFix"/>
<feColorMatrix in="SourceAlpha" type="matrix" values="0 0 0 0 0 0 0 0 0 0 0 0 0 0 0 0 0 0 127 0" result="hardAlpha"/>
<feMorphology radius="32" operator="dilate" in="SourceAlpha" result="effect1_dropShadow_17_48"/>
<feOffset dy="18"/>
<feGaussianBlur stdDeviation="16.15"/>
<feComposite in2="hardAlpha" operator="out"/>
<feColorMatrix type="matrix" values="0 0 0 0 0 0 0 0 0 0 0 0 0 0 0 0 0 0 0.35 0"/>
<feBlend mode="normal" in2="BackgroundImageFix" result="effect1_dropShadow_17_48"/>
<feBlend mode="normal" in="SourceGraphic" in2="effect1_dropShadow_17_48" result="shape"/>
</filter>
<linearGradient id="paint0_linear_17_48" x1="308.001" y1="0" x2="308.001" y2="1497" gradientUnits="userSpaceOnUse">
<stop stop-color="#1D0F02"/>
<stop offset="1"/>
</linearGradient>
<linearGradient id="paint1_linear_17_48" x1="1132.29" y1="539.963" x2="1202.91" y2="539.762" gradientUnits="userSpaceOnUse">
<stop stop-color="#180E05"/>
<stop offset="1" stop-color="#34230C" stop-opacity="0"/>
</linearGradient>
<clipPath id="clip0_17_48">
<rect width="1920" height="1080" fill="white"/>
</clipPath>
</defs>
</svg>
